<svg width="24" height="28" viewBox="0 0 24 28" fill="none" xmlns="http://www.w3.org/2000/svg">
<path d="M22.9467 9.76L14.6667 1.70667C13.9653 1.03981 13.0345 0.667938 12.0667 0.667938C11.0989 0.667938 10.1681 1.03981 9.46667 1.70667L1.18667 9.70667C0.818775 10.0278 0.522887 10.4231 0.318386 10.8665C0.113886 11.31 0.00538751 11.7917 0 12.28V23.72C0.014054 24.6902 0.412058 25.6152 1.10682 26.2925C1.80159 26.9697 2.73647 27.344 3.70667 27.3333H20.2933C21.2635 27.344 22.1984 26.9697 22.8932 26.2925C23.5879 25.6152 23.9859 24.6902 24 23.72V12.28C23.999 11.8113 23.9054 11.3474 23.7246 10.915C23.5439 10.4825 23.2795 10.09 22.9467 9.76V9.76ZM11.2533 3.62667C11.4573 3.44022 11.7237 3.33683 12 3.33683C12.2763 3.33683 12.5427 3.44022 12.7467 3.62667L20 10.6667L12.7067 17.7067C12.5027 17.8931 12.2363 17.9965 11.96 17.9965C11.6837 17.9965 11.4173 17.8931 11.2133 17.7067L4 10.6667L11.2533 3.62667ZM21.3333 23.72C21.3162 23.9817 21.1982 24.2266 21.0043 24.4031C20.8103 24.5797 20.5555 24.6741 20.2933 24.6667H3.70667C3.44451 24.6741 3.18966 24.5797 2.99571 24.4031C2.80176 24.2266 2.68381 23.9817 2.66667 23.72V13.1333L8.06667 18.3333L5.85333 20.4667C5.605 20.7165 5.46561 21.0544 5.46561 21.4067C5.46561 21.7589 5.605 22.0969 5.85333 22.3467C5.97726 22.4767 6.12618 22.5803 6.29114 22.6513C6.45611 22.7224 6.63373 22.7593 6.81333 22.76C7.15663 22.7586 7.48616 22.6249 7.73333 22.3867L10.0933 20.12C10.6795 20.4782 11.3531 20.6677 12.04 20.6677C12.7269 20.6677 13.4005 20.4782 13.9867 20.12L16.3467 22.3867C16.5938 22.6249 16.9234 22.7586 17.2667 22.76C17.4463 22.7593 17.6239 22.7224 17.7889 22.6513C17.9538 22.5803 18.1027 22.4767 18.2267 22.3467C18.475 22.0969 18.6144 21.7589 18.6144 21.4067C18.6144 21.0544 18.475 20.7165 18.2267 20.4667L16 18.3333L21.3333 13.1333V23.72Z" fill="white"/>
</svg>
