<svg width="28" height="28" viewBox="0 0 28 28" fill="none" xmlns="http://www.w3.org/2000/svg">
<path d="M23.88 15.3333C23.5867 15.3333 23.28 15.24 22.9867 15.1733C22.3931 15.0406 21.8095 14.8669 21.24 14.6533C20.6215 14.4283 19.9415 14.44 19.3311 14.6861C18.7206 14.9323 18.2228 15.3955 17.9333 15.9867L17.64 16.6C16.3451 15.8656 15.1488 14.9695 14.08 13.9333C13.0438 12.8645 12.1477 11.6682 11.4133 10.3733L12.0267 10.0933C12.6178 9.80389 13.081 9.30605 13.3272 8.69559C13.5733 8.08514 13.585 7.40522 13.36 6.78667C13.1483 6.21205 12.9745 5.62411 12.84 5.02667C12.7733 4.73334 12.72 4.42667 12.68 4.13334C12.5181 3.19416 12.0262 2.34366 11.2928 1.73499C10.5595 1.12632 9.63293 0.799483 8.68 0.813338H4.66667C4.103 0.8126 3.54553 0.931002 3.03082 1.16078C2.51611 1.39056 2.05578 1.72654 1.68 2.14667C1.29643 2.57821 1.01082 3.08767 0.842805 3.64005C0.674789 4.19243 0.628346 4.77464 0.706667 5.34667C1.43145 10.8962 3.96695 16.0515 7.92 20.0133C11.8818 23.9664 17.0372 26.5019 22.5867 27.2267C22.7597 27.2399 22.9336 27.2399 23.1067 27.2267C24.0899 27.2281 25.0392 26.8674 25.7733 26.2133C26.1935 25.8376 26.5294 25.3772 26.7592 24.8625C26.989 24.3478 27.1074 23.7903 27.1067 23.2267V19.2267C27.0995 18.3054 26.7745 17.4148 26.1866 16.7055C25.5987 15.9961 24.7839 15.5114 23.88 15.3333ZM24.5333 23.3333C24.5329 23.5194 24.4935 23.7033 24.4177 23.8732C24.342 24.0432 24.2315 24.1953 24.0933 24.32C23.9472 24.4531 23.7733 24.5521 23.5842 24.6098C23.3951 24.6674 23.1956 24.6823 23 24.6533C18.0244 24.0035 13.4003 21.736 9.84 18.2C6.27663 14.6366 3.98937 9.99649 3.33333 5.00001C3.30437 4.80445 3.31925 4.6049 3.3769 4.41581C3.43455 4.22671 3.53353 4.0528 3.66667 3.90667C3.79283 3.76687 3.94717 3.65539 4.11953 3.57955C4.29189 3.50371 4.47836 3.46524 4.66667 3.46667H8.66667C8.97488 3.45914 9.27619 3.55865 9.51929 3.74827C9.76239 3.93789 9.93227 4.2059 10 4.50667C10 4.86667 10.12 5.24 10.2 5.6C10.3541 6.29849 10.5591 6.98477 10.8133 7.65334L8.94667 8.53334C8.62582 8.68062 8.37648 8.94914 8.25333 9.28001C8.11998 9.60462 8.11998 9.96872 8.25333 10.2933C10.1723 14.4037 13.4763 17.7077 17.5867 19.6267C17.9113 19.76 18.2754 19.76 18.6 19.6267C18.9309 19.5035 19.1994 19.2542 19.3467 18.9333L20.1867 17.0667C20.8745 17.3175 21.5783 17.5224 22.2933 17.68C22.64 17.76 23.0133 17.8267 23.3733 17.88C23.6741 17.9477 23.9421 18.1176 24.1317 18.3607C24.3214 18.6038 24.4209 18.9051 24.4133 19.2133L24.5333 23.3333ZM16.6667 0.666672C16.36 0.666672 16.04 0.666672 15.7333 0.666672C15.3797 0.69673 15.0525 0.866032 14.8237 1.13733C14.5949 1.40864 14.4833 1.75972 14.5133 2.11334C14.5434 2.46696 14.7127 2.79416 14.984 3.02295C15.2553 3.25175 15.6064 3.3634 15.96 3.33334H16.6667C18.7884 3.33334 20.8232 4.17619 22.3235 5.67648C23.8238 7.17678 24.6667 9.21161 24.6667 11.3333C24.6667 11.5733 24.6667 11.8 24.6667 12.04C24.6371 12.3918 24.7482 12.7409 24.9757 13.0108C25.2031 13.2807 25.5283 13.4495 25.88 13.48H25.9867C26.3204 13.4814 26.6426 13.3575 26.8895 13.1328C27.1363 12.9082 27.29 12.5991 27.32 12.2667C27.32 11.96 27.32 11.64 27.32 11.3333C27.32 8.50667 26.198 5.79558 24.2005 3.79558C22.203 1.79557 19.4933 0.670205 16.6667 0.666672V0.666672ZM19.3333 11.3333C19.3333 11.687 19.4738 12.0261 19.7239 12.2761C19.9739 12.5262 20.313 12.6667 20.6667 12.6667C21.0203 12.6667 21.3594 12.5262 21.6095 12.2761C21.8595 12.0261 22 11.687 22 11.3333C22 9.91885 21.4381 8.5623 20.4379 7.5621C19.4377 6.56191 18.0812 6.00001 16.6667 6.00001C16.313 6.00001 15.9739 6.14048 15.7239 6.39053C15.4738 6.64058 15.3333 6.97972 15.3333 7.33334C15.3333 7.68696 15.4738 8.0261 15.7239 8.27615C15.9739 8.5262 16.313 8.66667 16.6667 8.66667C17.3739 8.66667 18.0522 8.94762 18.5523 9.44772C19.0524 9.94782 19.3333 10.6261 19.3333 11.3333Z" fill="white"/>
</svg>
