<svg width="32" height="32" viewBox="0 0 32 32" fill="none" xmlns="http://www.w3.org/2000/svg">
<path d="M24 5.97333C21.8783 3.8516 19.0006 2.65962 16 2.65962C12.9994 2.65962 10.1217 3.8516 7.99999 5.97333C5.87826 8.09506 4.68628 10.9727 4.68628 13.9733C4.68628 16.9739 5.87826 19.8516 7.99999 21.9733L15.0267 29.0133C15.1506 29.1383 15.2981 29.2375 15.4606 29.3052C15.623 29.3729 15.7973 29.4077 15.9733 29.4077C16.1493 29.4077 16.3236 29.3729 16.4861 29.3052C16.6486 29.2375 16.796 29.1383 16.92 29.0133L24 21.9067C26.1129 19.7938 27.2998 16.9281 27.2998 13.94C27.2998 10.9519 26.1129 8.08623 24 5.97333V5.97333ZM22.0933 20L16 26.12L9.90665 20C8.70285 18.7951 7.88329 17.2603 7.55158 15.5897C7.21987 13.9191 7.39091 12.1877 8.04306 10.6142C8.69521 9.04082 9.79921 7.69606 11.2155 6.74997C12.6318 5.80387 14.2968 5.29891 16 5.29891C17.7032 5.29891 19.3682 5.80387 20.7845 6.74997C22.2008 7.69606 23.3048 9.04082 23.9569 10.6142C24.6091 12.1877 24.7801 13.9191 24.4484 15.5897C24.1167 17.2603 23.2971 18.7951 22.0933 20V20ZM12 9.88C10.9236 10.9597 10.3192 12.4221 10.3192 13.9467C10.3192 15.4712 10.9236 16.9336 12 18.0133C12.7997 18.8144 13.8181 19.3614 14.9275 19.5859C16.0369 19.8103 17.1879 19.7021 18.2361 19.2749C19.2842 18.8476 20.1829 18.1204 20.8193 17.1843C21.4557 16.2483 21.8015 15.1452 21.8133 14.0133C21.8193 13.2576 21.6738 12.5083 21.3852 11.8098C21.0966 11.1114 20.671 10.4778 20.1333 9.94666C19.6049 9.4061 18.9748 8.97538 18.2792 8.67928C17.5837 8.38319 16.8364 8.22756 16.0805 8.22137C15.3246 8.21517 14.5749 8.35853 13.8746 8.64318C13.1743 8.92784 12.5372 9.34817 12 9.88V9.88ZM18.2533 16.12C17.748 16.633 17.0803 16.9545 16.3642 17.0297C15.648 17.1048 14.9281 16.9288 14.3273 16.5319C13.7266 16.135 13.2824 15.5417 13.0707 14.8534C12.8589 14.1652 12.8929 13.4248 13.1666 12.7589C13.4403 12.0929 13.9369 11.5427 14.5714 11.2023C15.2059 10.8619 15.939 10.7525 16.6452 10.8928C17.3515 11.0331 17.9871 11.4143 18.4433 11.9714C18.8996 12.5284 19.1482 13.2266 19.1467 13.9467C19.1273 14.7697 18.782 15.5514 18.1867 16.12H18.2533Z" fill="white"/>
</svg>
