<?xml version="1.0" encoding="utf-8"?>
<!-- Svg Vector Icons : http://www.onlinewebfonts.com/icon -->
<!DOCTYPE svg PUBLIC "-//W3C//DTD SVG 1.1//EN" "http://www.w3.org/Graphics/SVG/1.1/DTD/svg11.dtd">
<svg version="1.1" xmlns="http://www.w3.org/2000/svg" xmlns:xlink="http://www.w3.org/1999/xlink" x="0px" y="0px" viewBox="0 0 1000 1000" enable-background="new 0 0 1000 1000" xml:space="preserve">
<metadata> Svg Vector Icons : http://www.onlinewebfonts.com/icon </metadata>
<g><path d="M132.6,744.9C64.8,744.9,9.9,799.9,10,867.5c0,67.6,54.9,122.6,122.6,122.4c67.6,0.1,122.5-54.8,122.4-122.4C255.2,799.7,200.2,744.8,132.6,744.9z"/><path d="M132.5,10C64.9,10,10,64.9,10,132.5C10,200.1,64.9,255,132.5,255C470.2,255,745,529.8,745,867.5c0,67.6,54.9,122.5,122.5,122.5c67.6,0,122.5-54.9,122.5-122.5C990,394.7,605.4,10,132.5,10z"/><path d="M132.5,377.5C64.9,377.5,10,432.4,10,500s54.9,122.5,122.5,122.5c135.1,0,245,109.9,245,245c0,67.6,54.9,122.5,122.5,122.5s122.5-54.9,122.5-122.5C622.5,597.3,402.7,377.5,132.5,377.5z"/></g>
</svg>