<svg
  xmlns="http://www.w3.org/2000/svg"
  width="24"
  height="24"
  viewBox="0 0 24 24"
  fill="none"
>
  <g clip-path="url(#clip0_112_46)">
    <path
      d="M23.5 1.5H11.5V11.5L16.5 7.5H23.5V1.5Z"
      stroke="currentColor"
      stroke-width="2"
      stroke-linecap="round"
      stroke-linejoin="round"></path>
    <path
      d="M10.5 22.336C10.5 21.732 10.235 21.157 9.762 20.782C9.039 20.208 7.785 19.5 6 19.5C4.215 19.5 2.961 20.208 2.238 20.782C1.765 21.157 1.5 21.732 1.5 22.336V23.5H10.5V22.336Z"
      stroke="currentColor"
      stroke-width="2"
      stroke-linecap="round"
      stroke-linejoin="round"></path>
    <path
      d="M6 16.5C7.38071 16.5 8.5 15.3807 8.5 14C8.5 12.6193 7.38071 11.5 6 11.5C4.61929 11.5 3.5 12.6193 3.5 14C3.5 15.3807 4.61929 16.5 6 16.5Z"
      stroke="currentColor"
      stroke-width="2"
      stroke-linecap="round"
      stroke-linejoin="round"></path>
    <path
      d="M23.5 22.336C23.5 21.732 23.235 21.157 22.762 20.782C22.039 20.208 20.785 19.5 19 19.5C17.215 19.5 15.961 20.208 15.238 20.782C14.765 21.157 14.5 21.732 14.5 22.336V23.5H23.5V22.336Z"
      stroke="currentColor"
      stroke-width="2"
      stroke-linecap="round"
      stroke-linejoin="round"></path>
    <path
      d="M19 16.5C20.3807 16.5 21.5 15.3807 21.5 14C21.5 12.6193 20.3807 11.5 19 11.5C17.6193 11.5 16.5 12.6193 16.5 14C16.5 15.3807 17.6193 16.5 19 16.5Z"
      stroke="currentColor"
      stroke-width="2"
      stroke-linecap="round"
      stroke-linejoin="round"></path>
  </g>
  <defs>
    <clipPath id="clip0_112_46">
      <rect width="24" height="24" fill="white"></rect>
    </clipPath>
  </defs>
</svg>