<svg width="24" height="29" viewBox="0 0 24 29" fill="none" xmlns="http://www.w3.org/2000/svg">
<g filter="url(#filter0_d_717_24971)">
<path fill-rule="evenodd" clip-rule="evenodd" d="M13.6348 20.7275V12.7662H16.3582L16.7668 9.66268H13.6348V7.6815C13.6348 6.78323 13.8881 6.17107 15.2029 6.17107L16.877 6.1704V3.39446C16.5875 3.35756 15.5937 3.27295 14.437 3.27295C12.0216 3.27295 10.368 4.71903 10.368 7.37413V9.66268H7.63635V12.7662H10.368V20.7275H13.6348Z" fill="#404F65"/>
<mask id="mask0_717_24971" style="mask-type:alpha" maskUnits="userSpaceOnUse" x="7" y="3" width="10" height="18">
<path fill-rule="evenodd" clip-rule="evenodd" d="M13.6348 20.7275V12.7662H16.3582L16.7668 9.66268H13.6348V7.6815C13.6348 6.78323 13.8881 6.17107 15.2029 6.17107L16.877 6.1704V3.39446C16.5875 3.35756 15.5937 3.27295 14.437 3.27295C12.0216 3.27295 10.368 4.71903 10.368 7.37413V9.66268H7.63635V12.7662H10.368V20.7275H13.6348Z" fill="white"/>
</mask>
<g mask="url(#mask0_717_24971)">
</g>
</g>
<defs>
<filter id="filter0_d_717_24971" x="-4" y="0" width="32" height="32" filterUnits="userSpaceOnUse" color-interpolation-filters="sRGB">
<feFlood flood-opacity="0" result="BackgroundImageFix"/>
<feColorMatrix in="SourceAlpha" type="matrix" values="0 0 0 0 0 0 0 0 0 0 0 0 0 0 0 0 0 0 127 0" result="hardAlpha"/>
<feOffset dy="4"/>
<feGaussianBlur stdDeviation="2"/>
<feComposite in2="hardAlpha" operator="out"/>
<feColorMatrix type="matrix" values="0 0 0 0 0 0 0 0 0 0 0 0 0 0 0 0 0 0 0.25 0"/>
<feBlend mode="normal" in2="BackgroundImageFix" result="effect1_dropShadow_717_24971"/>
<feBlend mode="normal" in="SourceGraphic" in2="effect1_dropShadow_717_24971" result="shape"/>
</filter>
</defs>
</svg>
