<svg width="24" height="24" viewBox="0 0 24 24" fill="none" xmlns="http://www.w3.org/2000/svg">
<path fill-rule="evenodd" clip-rule="evenodd" d="M7.60063 2.18164H16.3991C19.3873 2.18164 21.8183 4.61264 21.8182 7.60057V16.3991C21.8182 19.387 19.3873 21.818 16.3991 21.818H7.60063C4.6127 21.818 2.18182 19.3871 2.18182 16.3991V7.60057C2.18182 4.61264 4.6127 2.18164 7.60063 2.18164ZM16.3993 20.0758C18.4266 20.0758 20.0761 18.4265 20.0761 16.3991H20.076V7.60057C20.076 5.5733 18.4265 3.92387 16.3991 3.92387H7.60063C5.57337 3.92387 3.92406 5.5733 3.92406 7.60057V16.3991C3.92406 18.4265 5.57337 20.0759 7.60063 20.0758H16.3993ZM6.85715 11.9999C6.85715 9.16406 9.16419 6.85697 12 6.85697C14.8358 6.85697 17.1429 9.16406 17.1429 11.9999C17.1429 14.8357 14.8358 17.1427 12 17.1427C9.16419 17.1427 6.85715 14.8357 6.85715 11.9999ZM8.62799 11.9998C8.62799 13.8591 10.1407 15.3717 12 15.3717C13.8593 15.3717 15.372 13.8591 15.372 11.9998C15.372 10.1404 13.8594 8.62772 12 8.62772C10.1406 8.62772 8.62799 10.1404 8.62799 11.9998Z" fill="#404F65"/>
<mask id="mask0_717_24973" style="mask-type:alpha" maskUnits="userSpaceOnUse" x="2" y="2" width="20" height="20">
<path fill-rule="evenodd" clip-rule="evenodd" d="M7.60063 2.18164H16.3991C19.3873 2.18164 21.8183 4.61264 21.8182 7.60057V16.3991C21.8182 19.387 19.3873 21.818 16.3991 21.818H7.60063C4.6127 21.818 2.18182 19.3871 2.18182 16.3991V7.60057C2.18182 4.61264 4.6127 2.18164 7.60063 2.18164ZM16.3993 20.0758C18.4266 20.0758 20.0761 18.4265 20.0761 16.3991H20.076V7.60057C20.076 5.5733 18.4265 3.92387 16.3991 3.92387H7.60063C5.57337 3.92387 3.92406 5.5733 3.92406 7.60057V16.3991C3.92406 18.4265 5.57337 20.0759 7.60063 20.0758H16.3993ZM6.85715 11.9999C6.85715 9.16406 9.16419 6.85697 12 6.85697C14.8358 6.85697 17.1429 9.16406 17.1429 11.9999C17.1429 14.8357 14.8358 17.1427 12 17.1427C9.16419 17.1427 6.85715 14.8357 6.85715 11.9999ZM8.62799 11.9998C8.62799 13.8591 10.1407 15.3717 12 15.3717C13.8593 15.3717 15.372 13.8591 15.372 11.9998C15.372 10.1404 13.8594 8.62772 12 8.62772C10.1406 8.62772 8.62799 10.1404 8.62799 11.9998Z" fill="white"/>
</mask>
<g mask="url(#mask0_717_24973)">
</g>
</svg>
