<svg width="184" height="48" viewBox="0 0 184 48" fill="none" xmlns="http://www.w3.org/2000/svg">
<path d="M75.0545 29.1708C75.0545 31.4515 74.5192 33.1272 73.4487 34.1977C72.3781 35.2683 70.7258 35.8035 68.4916 35.8035C66.2807 35.8035 63.9301 35.6872 61.4399 35.4544V30.7417C63.2552 30.8581 65.117 30.9163 67.0254 30.9163C67.5607 30.9163 67.9796 30.765 68.2821 30.4624C68.6079 30.1366 68.7709 29.7061 68.7709 29.1708V15.9053H64.2327V11.0181H75.0545V29.1708Z" fill="#8896AB"/>
<path d="M90.7622 35.4544H78.1949V30.5672H81.3368V15.9053H78.1949V11.0181H90.7622V15.9053H87.6204V30.5672H90.7622V35.4544Z" fill="#8896AB"/>
<path d="M114.847 34.9308C109.401 35.5126 104.397 35.8035 99.8359 35.8035C97.5551 35.8035 95.8795 35.2683 94.8089 34.1977C93.7384 33.1272 93.2031 31.4515 93.2031 29.1708V17.9999C93.2031 15.5562 93.75 13.7875 94.8439 12.6937C95.9609 11.5766 97.7413 11.0181 100.185 11.0181H112.752V15.9053H101.581C100.185 15.9053 99.4868 16.6035 99.4868 17.9999V29.1708C99.4868 29.7061 99.638 30.1366 99.9406 30.4624C100.266 30.765 100.697 30.9163 101.232 30.9163C103.909 30.9163 106.352 30.8581 108.563 30.7417V25.6799H104.025V21.4908H114.847V34.9308Z" fill="#8896AB"/>
<path d="M139.29 34.9308C133.844 35.5126 128.84 35.8035 124.279 35.8035C121.998 35.8035 120.323 35.2683 119.252 34.1977C118.182 33.1272 117.646 31.4515 117.646 29.1708V17.9999C117.646 15.5562 118.193 13.7875 119.287 12.6937C120.404 11.5766 122.184 11.0181 124.628 11.0181H137.195V15.9053H126.024C124.628 15.9053 123.93 16.6035 123.93 17.9999V29.1708C123.93 29.7061 124.081 30.1366 124.384 30.4624C124.71 30.765 125.14 30.9163 125.675 30.9163C128.352 30.9163 130.795 30.8581 133.006 30.7417V25.6799H128.468V21.4908H139.29V34.9308Z" fill="#8896AB"/>
<path d="M149.071 30.5672H161.813V35.4544H142.788V11.0181H149.071V30.5672Z" fill="#8896AB"/>
<path d="M183.639 35.4544H164.265V11.0181H183.639V15.9053H170.549V20.6181H180.847V25.5053H170.549V30.5672H183.639V35.4544Z" fill="#8896AB"/>
<path fill-rule="evenodd" clip-rule="evenodd" d="M2.65605 8.33013C3.3647 8.3332 4.04341 8.61609 4.54451 9.11719C5.0456 9.61828 5.32851 10.297 5.33158 11.0057C5.35035 11.7005 5.63959 12.3605 6.13766 12.8453C6.63574 13.3301 7.30332 13.6014 7.99838 13.6014C8.69343 13.6014 9.36102 13.3301 9.85909 12.8453C10.3572 12.3605 10.6464 11.7005 10.6652 11.0057V2.67553C10.6682 1.96688 10.9511 1.28812 11.4521 0.78703C11.9532 0.285935 12.632 0.00307222 13.3407 0V0C14.0466 0.00665222 14.7214 0.291222 15.219 0.792042C15.7165 1.29286 15.9966 1.96958 15.9987 2.67553V20.1647C15.989 20.521 16.0509 20.8756 16.1806 21.2076C16.3103 21.5395 16.5052 21.8421 16.7538 22.0975C17.0024 22.3529 17.2996 22.5559 17.6279 22.6945C17.9563 22.8331 18.309 22.9045 18.6654 22.9045C19.0218 22.9045 19.3746 22.8331 19.703 22.6945C20.0313 22.5559 20.3286 22.3529 20.5772 22.0975C20.8258 21.8421 21.0206 21.5395 21.1503 21.2076C21.28 20.8756 21.3419 20.521 21.3322 20.1647V11.0057C21.3353 10.297 21.6182 9.61828 22.1193 9.11719C22.6204 8.61609 23.2991 8.3332 24.0078 8.33013V8.33013C24.7137 8.33678 25.3885 8.62138 25.886 9.1222C26.3836 9.62302 26.6638 10.2997 26.6658 11.0057V20.1647C26.6658 20.8718 26.9467 21.5498 27.4466 22.0498C27.9466 22.5497 28.6245 22.8305 29.3316 22.8305C30.0386 22.8305 30.7167 22.5497 31.2166 22.0498C31.7165 21.5498 31.9974 20.8718 31.9974 20.1647V2.67553C32.0005 1.96655 32.2836 1.28749 32.7851 0.786341C33.2867 0.285191 33.9658 0.00256028 34.6748 0V0C35.3815 0.00360393 36.058 0.287251 36.5559 0.788788C37.0538 1.29032 37.3325 1.96883 37.331 2.67553V11.0057C37.3497 11.7005 37.6389 12.3605 38.137 12.8453C38.635 13.3301 39.3026 13.6014 39.9977 13.6014C40.6927 13.6014 41.3604 13.3301 41.8585 12.8453C42.3565 12.3605 42.6457 11.7005 42.6645 11.0057C42.6675 10.2967 42.9507 9.61765 43.4522 9.1165C43.9537 8.61535 44.633 8.33269 45.342 8.33013V8.33013C46.0487 8.33374 46.7251 8.61741 47.223 9.11894C47.7209 9.62048 47.9996 10.299 47.998 11.0057V37.0138C47.9955 37.7174 47.7148 38.3915 47.2172 38.8891C46.7197 39.3866 46.0456 39.6673 45.342 39.6699V39.6699C44.636 39.6684 43.9591 39.3887 43.4579 38.8915C42.9567 38.3944 42.6716 37.7197 42.6645 37.0138C42.6741 36.6575 42.6123 36.3029 42.4826 35.971C42.3529 35.639 42.158 35.3364 41.9094 35.081C41.6608 34.8256 41.3635 34.6226 41.0352 34.484C40.7069 34.3454 40.3541 34.274 39.9977 34.274C39.6413 34.274 39.2886 34.3454 38.9602 34.484C38.6319 34.6226 38.3346 34.8256 38.086 35.081C37.8374 35.3364 37.6425 35.639 37.5128 35.971C37.3831 36.3029 37.3214 36.6575 37.331 37.0138V45.3342C37.3315 45.6832 37.2631 46.0289 37.1298 46.3515C36.9966 46.6741 36.801 46.9673 36.5543 47.2141C36.3075 47.461 36.0145 47.6569 35.692 47.7904C35.3695 47.9239 35.0239 47.9925 34.6748 47.9922C33.9679 47.9933 33.2895 47.7141 32.788 47.2159C32.2865 46.7177 32.0029 46.0411 31.9993 45.3342V27.8216C31.9993 27.1146 31.7185 26.4366 31.2186 25.9366C30.7186 25.4367 30.0406 25.1558 29.3336 25.1558C28.6265 25.1558 27.9485 25.4367 27.4485 25.9366C26.9486 26.4366 26.6677 27.1146 26.6677 27.8216V37.0002C26.6616 37.7031 26.3796 38.3754 25.8823 38.8722C25.3851 39.3691 24.7126 39.6506 24.0098 39.6562V39.6562C23.3041 39.6542 22.6277 39.3743 22.1269 38.8772C21.6261 38.3801 21.3414 37.7058 21.3342 37.0002V27.8216C21.3155 27.1268 21.0262 26.4668 20.5281 25.982C20.0301 25.4972 19.3625 25.2259 18.6674 25.2259C17.9724 25.2259 17.3047 25.4972 16.8066 25.982C16.3086 26.4668 16.0194 27.1268 16.0006 27.8216V45.3342C15.9986 46.0385 15.7179 46.7134 15.2198 47.2114C14.7218 47.7095 14.0469 47.9902 13.3426 47.9922V47.9922C12.6356 47.9938 11.9568 47.7148 11.4552 47.2165C10.9536 46.7182 10.6702 46.0412 10.6671 45.3342V37.006C10.6767 36.6497 10.6148 36.2951 10.4851 35.9632C10.3554 35.6312 10.1606 35.3286 9.91201 35.0732C9.66342 34.8178 9.36614 34.6148 9.0378 34.4762C8.70946 34.3376 8.35667 34.2662 8.00028 34.2662C7.64388 34.2662 7.29109 34.3376 6.96275 34.4762C6.63441 34.6148 6.33722 34.8178 6.08864 35.0732C5.84005 35.3286 5.64512 35.6312 5.51543 35.9632C5.38574 36.2951 5.32386 36.6497 5.33349 37.006C5.32632 37.7116 5.04157 38.3859 4.5408 38.8831C4.04004 39.3802 3.36357 39.6601 2.65795 39.6621C1.95507 39.6565 1.28258 39.3749 0.785367 38.8781C0.288154 38.3812 0.00610335 37.7089 0 37.006V11.0057C0.00201638 10.2997 0.282125 9.62302 0.779667 9.1222C1.27721 8.62138 1.95203 8.33678 2.65795 8.33013H2.65605ZM10.6652 18.6762C10.6748 18.3199 10.6129 17.9653 10.4832 17.6334C10.3535 17.3014 10.1586 16.9988 9.91001 16.7434C9.66143 16.488 9.36424 16.285 9.0359 16.1464C8.70756 16.0078 8.35477 15.9364 7.99838 15.9364C7.64198 15.9364 7.28919 16.0078 6.96085 16.1464C6.63251 16.285 6.33523 16.488 6.08664 16.7434C5.83806 16.9988 5.64322 17.3014 5.51353 17.6334C5.38384 17.9653 5.32196 18.3199 5.33158 18.6762V29.3433C5.35035 30.0381 5.63959 30.6981 6.13766 31.1829C6.63574 31.6677 7.30332 31.939 7.99838 31.939C8.69343 31.939 9.36102 31.6677 9.85909 31.1829C10.3572 30.6981 10.6464 30.0381 10.6652 29.3433V18.6762ZM37.3232 29.3433V18.6762C37.3136 18.3199 37.3753 17.9653 37.505 17.6334C37.6347 17.3014 37.8297 16.9988 38.0782 16.7434C38.3268 16.488 38.6241 16.285 38.9524 16.1464C39.2808 16.0078 39.6336 15.9364 39.99 15.9364C40.3464 15.9364 40.6991 16.0078 41.0274 16.1464C41.3557 16.285 41.653 16.488 41.9016 16.7434C42.1502 16.9988 42.3451 17.3014 42.4748 17.6334C42.6045 17.9653 42.6663 18.3199 42.6567 18.6762V29.3433C42.6379 30.0381 42.3488 30.6981 41.8507 31.1829C41.3526 31.6677 40.685 31.939 39.99 31.939C39.2949 31.939 38.6272 31.6677 38.1292 31.1829C37.6311 30.6981 37.342 30.0381 37.3232 29.3433Z" fill="#8896AB"/>
</svg>
