<svg width="92" height="24" viewBox="0 0 92 24" fill="none" xmlns="http://www.w3.org/2000/svg">
<path d="M37.5275 14.5854C37.5275 15.7258 37.2599 16.5636 36.7246 17.0989C36.1893 17.6342 35.3631 17.9018 34.246 17.9018C33.1406 17.9018 31.9653 17.8436 30.7202 17.7272V15.3709C31.6279 15.4291 32.5588 15.4581 33.5129 15.4581C33.7806 15.4581 33.99 15.3825 34.1413 15.2312C34.3042 15.0683 34.3857 14.8531 34.3857 14.5854V7.95268H32.1166V5.50903H37.5275V14.5854Z" fill="#BBC3CF"/>
<path d="M45.3814 17.7272H39.0977V15.2836H40.6686V7.95268H39.0977V5.50903H45.3814V7.95268H43.8105V15.2836H45.3814V17.7272Z" fill="#BBC3CF"/>
<path d="M57.4237 17.4654C54.7008 17.7563 52.199 17.9018 49.9182 17.9018C48.7779 17.9018 47.94 17.6342 47.4048 17.0989C46.8695 16.5636 46.6018 15.7258 46.6018 14.5854V8.99995C46.6018 7.77813 46.8753 6.89376 47.4222 6.34685C47.9808 5.78831 48.8709 5.50903 50.0928 5.50903H56.3764V7.95268H50.7909C50.0928 7.95268 49.7437 8.30177 49.7437 8.99995V14.5854C49.7437 14.8531 49.8193 15.0683 49.9706 15.2312C50.1335 15.3825 50.3488 15.4581 50.6164 15.4581C51.9546 15.4581 53.1764 15.4291 54.2819 15.3709V12.84H52.0128V10.7454H57.4237V17.4654Z" fill="#BBC3CF"/>
<path d="M69.6453 17.4654C66.9224 17.7563 64.4206 17.9018 62.1398 17.9018C60.9995 17.9018 60.1617 17.6342 59.6264 17.0989C59.0911 16.5636 58.8235 15.7258 58.8235 14.5854V8.99995C58.8235 7.77813 59.0969 6.89376 59.6438 6.34685C60.2024 5.78831 61.0926 5.50903 62.3144 5.50903H68.598V7.95268H63.0126C62.3144 7.95268 61.9653 8.30177 61.9653 8.99995V14.5854C61.9653 14.8531 62.0409 15.0683 62.1922 15.2312C62.3551 15.3825 62.5704 15.4581 62.838 15.4581C64.1762 15.4581 65.398 15.4291 66.5035 15.3709V12.84H64.2344V10.7454H69.6453V17.4654Z" fill="#BBC3CF"/>
<path d="M74.536 15.2836H80.9069V17.7272H71.3942V5.50903H74.536V15.2836Z" fill="#BBC3CF"/>
<path d="M91.8201 17.7272H82.1328V5.50903H91.8201V7.95268H85.2747V10.309H90.4238V12.7527H85.2747V15.2836H91.8201V17.7272Z" fill="#BBC3CF"/>
<path fill-rule="evenodd" clip-rule="evenodd" d="M1.32803 4.16508C1.68236 4.16661 2.02171 4.30806 2.27226 4.5586C2.52281 4.80915 2.66426 5.14852 2.6658 5.50285C2.67518 5.85025 2.8198 6.18027 3.06884 6.42267C3.31788 6.66507 3.65167 6.80071 3.9992 6.80071C4.34673 6.80071 4.68052 6.66507 4.92955 6.42267C5.17859 6.18027 5.32321 5.85025 5.3326 5.50285V1.33777C5.33413 0.983444 5.47554 0.644064 5.72609 0.393516C5.97664 0.142968 6.31604 0.00153611 6.67036 0C7.02333 0.00332612 7.36074 0.145611 7.60951 0.396022C7.85828 0.646432 7.99834 0.984793 7.99934 1.33777V10.0824C7.99453 10.2605 8.02547 10.4378 8.09032 10.6038C8.15516 10.7698 8.25263 10.9211 8.37692 11.0488C8.50121 11.1765 8.64981 11.278 8.81398 11.3473C8.97815 11.4166 9.15454 11.4523 9.33274 11.4523C9.51094 11.4523 9.68734 11.4166 9.85151 11.3473C10.0157 11.278 10.1643 11.1765 10.2886 11.0488C10.4129 10.9211 10.5103 10.7698 10.5752 10.6038C10.64 10.4378 10.671 10.2605 10.6661 10.0824V5.50285C10.6677 5.14852 10.8091 4.80915 11.0597 4.5586C11.3102 4.30806 11.6496 4.16661 12.0039 4.16508C12.3569 4.1684 12.6943 4.3107 12.9431 4.56111C13.1918 4.81152 13.3319 5.14987 13.3329 5.50285V10.0824C13.3329 10.4359 13.4734 10.7749 13.7233 11.0249C13.9733 11.2749 14.3123 11.4153 14.6658 11.4153C15.0193 11.4153 15.3584 11.2749 15.6083 11.0249C15.8583 10.7749 15.9987 10.4359 15.9987 10.0824V1.33777C16.0003 0.983276 16.1419 0.643747 16.3926 0.393172C16.6434 0.142596 16.983 0.00128014 17.3375 0C17.6908 0.00180197 18.029 0.143626 18.278 0.394395C18.5269 0.645164 18.6663 0.984416 18.6655 1.33777V5.50285C18.6749 5.85025 18.8195 6.18027 19.0685 6.42267C19.3176 6.66507 19.6514 6.80071 19.9989 6.80071C20.3464 6.80071 20.6803 6.66507 20.9293 6.42267C21.1783 6.18027 21.3229 5.85025 21.3323 5.50285C21.3338 5.14835 21.4754 4.80884 21.7262 4.55826C21.9769 4.30768 22.3166 4.16636 22.671 4.16508C23.0244 4.16688 23.3626 4.30871 23.6116 4.55948C23.8605 4.81025 23.9999 5.14949 23.9991 5.50285V18.5069C23.9978 18.8588 23.8575 19.1958 23.6087 19.4446C23.3599 19.6934 23.0229 19.8337 22.671 19.835C22.3181 19.8342 21.9796 19.6944 21.729 19.4458C21.4784 19.1972 21.3359 18.8599 21.3323 18.5069C21.3371 18.3288 21.3062 18.1515 21.2414 17.9855C21.1765 17.8196 21.079 17.6682 20.9548 17.5405C20.8305 17.4128 20.6818 17.3114 20.5177 17.2421C20.3535 17.1728 20.1771 17.137 19.9989 17.137C19.8207 17.137 19.6443 17.1728 19.4802 17.2421C19.316 17.3114 19.1674 17.4128 19.0431 17.5405C18.9188 17.6682 18.8213 17.8196 18.7565 17.9855C18.6916 18.1515 18.6607 18.3288 18.6655 18.5069V22.6672C18.6658 22.8417 18.6316 23.0145 18.565 23.1758C18.4983 23.3371 18.4005 23.4837 18.2772 23.6071C18.1538 23.7306 18.0073 23.8285 17.8461 23.8952C17.6848 23.962 17.512 23.9963 17.3375 23.9962C16.984 23.9967 16.6448 23.8571 16.394 23.608C16.1433 23.3589 16.0015 23.0206 15.9997 22.6672V13.9108C15.9997 13.5573 15.8593 13.2183 15.6093 12.9683C15.3594 12.7184 15.0203 12.5779 14.6668 12.5779C14.3133 12.5779 13.9743 12.7184 13.7243 12.9683C13.4743 13.2183 13.3339 13.5573 13.3339 13.9108V18.5001C13.3308 18.8516 13.1898 19.1877 12.9412 19.4362C12.6926 19.6846 12.3564 19.8254 12.0049 19.8282C11.6521 19.8272 11.3139 19.6872 11.0635 19.4387C10.8131 19.1901 10.6707 18.8529 10.6671 18.5001V13.9108C10.6578 13.5634 10.5131 13.2334 10.2641 12.991C10.0151 12.7486 9.68127 12.613 9.33374 12.613C8.98621 12.613 8.65237 12.7486 8.40334 12.991C8.1543 13.2334 8.00973 13.5634 8.00034 13.9108V22.6672C7.99932 23.0193 7.85895 23.3568 7.60994 23.6058C7.36092 23.8548 7.02348 23.9951 6.67131 23.9962C6.31779 23.9969 5.9784 23.8575 5.72761 23.6083C5.47681 23.3591 5.33509 23.0207 5.33355 22.6672V18.503C5.33836 18.3249 5.30742 18.1476 5.24257 17.9816C5.17773 17.8157 5.08031 17.6643 4.95602 17.5366C4.83172 17.409 4.68308 17.3075 4.51891 17.2382C4.35474 17.1689 4.17835 17.1331 4.00015 17.1331C3.82195 17.1331 3.64555 17.1689 3.48138 17.2382C3.31721 17.3075 3.16862 17.409 3.04433 17.5366C2.92003 17.6643 2.82257 17.8157 2.75772 17.9816C2.69288 18.1476 2.66194 18.3249 2.66675 18.503C2.66317 18.8558 2.52079 19.193 2.27041 19.4416C2.02002 19.6901 1.68179 19.8301 1.32898 19.8311C0.977536 19.8283 0.641292 19.6875 0.392685 19.4391C0.144077 19.1907 0.00305168 18.8545 0 18.503V5.50285C0.00100819 5.14987 0.141063 4.81152 0.389834 4.56111C0.638606 4.3107 0.976019 4.1684 1.32898 4.16508H1.32803ZM5.3326 9.33811C5.33741 9.15998 5.30647 8.98268 5.24162 8.8167C5.17678 8.65072 5.07931 8.49942 4.95502 8.37172C4.83073 8.24403 4.68213 8.14253 4.51796 8.07323C4.35379 8.00393 4.1774 7.96822 3.9992 7.96822C3.821 7.96822 3.6446 8.00393 3.48043 8.07323C3.31626 8.14253 3.16762 8.24403 3.04333 8.37172C2.91904 8.49942 2.82162 8.65072 2.75677 8.8167C2.69193 8.98268 2.66099 9.15998 2.6658 9.33811V14.6717C2.67518 15.0191 2.8198 15.3491 3.06884 15.5915C3.31788 15.8339 3.65167 15.9695 3.9992 15.9695C4.34673 15.9695 4.68052 15.8339 4.92955 15.5915C5.17859 15.3491 5.32321 15.0191 5.3326 14.6717V9.33811ZM18.6616 14.6717V9.33811C18.6568 9.15998 18.6877 8.98268 18.7526 8.8167C18.8174 8.65072 18.9149 8.49942 19.0392 8.37172C19.1635 8.24403 19.3121 8.14253 19.4763 8.07323C19.6404 8.00393 19.8168 7.96822 19.995 7.96822C20.1732 7.96822 20.3496 8.00393 20.5138 8.07323C20.6779 8.14253 20.8266 8.24403 20.9509 8.37172C21.0751 8.49942 21.1726 8.65072 21.2375 8.8167C21.3023 8.98268 21.3332 9.15998 21.3284 9.33811V14.6717C21.319 15.0191 21.1744 15.3491 20.9254 15.5915C20.6764 15.8339 20.3426 15.9695 19.995 15.9695C19.6475 15.9695 19.3137 15.8339 19.0646 15.5915C18.8156 15.3491 18.671 15.0191 18.6616 14.6717Z" fill="#BBC3CF"/>
</svg>
