<svg width="97" height="24" viewBox="0 0 97 24" fill="none" xmlns="http://www.w3.org/2000/svg">
<g clip-path="url(#clip0_830_15380)">
<path d="M22.0057 1.38388C22.1456 1.43316 22.2675 1.5233 22.3557 1.64263C22.4438 1.76196 22.4941 1.90499 22.5001 2.05323C22.5761 2.84487 22.6085 3.64009 22.5972 4.43529C22.5888 4.80009 22.5804 5.16488 22.5562 5.52968C22.4189 5.47278 22.2893 5.41589 22.1512 5.36234C21.8032 5.22512 21.4626 5.09544 21.1137 4.97329C21.1221 4.78754 21.1305 4.60932 21.1305 4.42274C21.138 3.8312 21.1221 3.23129 21.0736 2.62386C20.5063 2.44564 19.9148 2.28332 19.3165 2.13774C18.5635 1.95953 17.8105 1.81311 17.0474 1.70769C16.6182 1.65163 16.2049 1.60226 15.8083 1.5621C15.4117 1.52194 14.9892 1.49767 14.5599 1.47843C14.2253 1.47006 13.9115 1.46253 13.5718 1.46253L13.0773 1.47006C12.9309 1.47006 12.7611 1.47843 12.5828 1.47843C12.1536 1.49516 11.7403 1.52696 11.3345 1.5621C10.9287 1.59724 10.5246 1.65163 10.0954 1.70769C9.34235 1.81311 8.58012 1.95869 7.82626 2.13774C7.22635 2.28332 6.64318 2.44564 6.06921 2.62386C5.97049 3.95576 6.00582 5.29421 6.17466 6.61905C6.26425 7.36018 6.39412 8.09588 6.56371 8.82289C6.66077 9.23621 6.77455 9.64954 6.89839 10.0461L6.90676 10.0788L6.91428 10.1114L6.92265 10.144L6.93854 10.1758L6.94692 10.2084L6.95525 10.2411L6.96363 10.2737L6.99541 10.3624V10.3708L7.00379 10.4026L7.0607 10.5565L7.06821 10.5891L7.11761 10.7188L7.12512 10.7431C7.37539 11.4687 7.66504 12.1801 7.99278 12.8741L8.00867 12.8984L8.01705 12.9235L8.02457 12.9394L8.04128 12.9637L8.04883 12.9879L8.05721 13.0122L8.0731 13.0281C8.19526 13.2791 8.32411 13.5301 8.45464 13.7811C8.55169 13.9434 8.64034 14.1158 8.72987 14.2672C8.83529 14.4541 8.93265 14.6161 9.02189 14.7533C9.29716 15.1993 9.58833 15.6369 9.89707 16.0586C10.2058 16.4803 10.5204 16.8852 10.8693 17.2902C10.9993 17.4441 11.1451 17.6062 11.3069 17.7763C11.4608 17.9436 11.6064 18.111 11.7445 18.2541C12.1009 18.6189 12.4732 18.9678 12.8464 19.3074L13.0003 19.4371C12.8949 19.5208 12.7895 19.6045 12.6766 19.6881C12.3846 19.9065 12.085 20.1174 11.7846 20.3282C10.1656 18.8768 8.77274 17.1915 7.65222 15.3281V15.3198L7.64385 15.3123L7.63551 15.3039C7.57109 15.1985 7.51416 15.093 7.45727 15.0043C7.36021 14.8261 7.25479 14.6471 7.1661 14.4772C6.89836 13.9911 6.65491 13.4891 6.42064 12.962C6.18637 12.4349 5.98305 11.917 5.79647 11.3982C5.53584 10.6649 5.31405 9.91841 5.1321 9.16175C4.58163 6.83376 4.41744 4.43113 4.64602 2.04989C4.65288 1.90143 4.70448 1.75851 4.79408 1.63994C4.88368 1.52137 5.00709 1.43269 5.14804 1.38556C5.91779 1.12618 6.70427 0.89944 7.49828 0.704491C8.27641 0.526276 9.07795 0.369817 9.89707 0.251007C10.3154 0.194112 10.7555 0.145585 11.2174 0.105424C11.6633 0.0644259 12.1009 0.0326311 12.5301 0.0158973C12.6925 0.0158973 12.8648 0.00753245 13.0489 0.00753245L13.576 0L14.1023 0.00753245C14.2889 0.00753245 14.4671 0.0158973 14.621 0.0158973C15.0586 0.0326311 15.4962 0.0644259 15.9421 0.105424C16.404 0.145585 16.8416 0.194112 17.2549 0.251007C18.0807 0.372327 18.8831 0.526276 19.6613 0.704491C20.4477 0.89944 21.2334 1.12284 22.0115 1.38556L22.0057 1.38388ZM17.2566 16.0594C17.5486 15.6461 17.8423 15.2227 18.1075 14.7868C18.199 14.6224 18.3492 14.4986 18.528 14.44C18.7068 14.3813 18.9011 14.3923 19.0722 14.4705C20.4803 15.1436 21.7586 16.0599 22.8482 17.1772C22.9757 17.2948 23.0577 17.4534 23.0799 17.6254C23.1021 17.7974 23.063 17.9716 22.9695 18.1177C22.7428 18.4741 22.4918 18.8464 22.2408 19.2112C21.9898 19.576 21.7136 19.9325 21.4467 20.273C21.2518 20.524 21.0409 20.7834 20.8142 21.0427C20.6201 21.2695 20.4009 21.5205 20.1582 21.7882C19.8177 22.1614 19.4889 22.5011 19.1542 22.8333H19.1458C18.822 23.1579 18.4765 23.4742 18.1167 23.7896C18.0106 23.893 17.8759 23.9622 17.73 23.9883C17.5842 24.0144 17.4338 23.9962 17.2984 23.936C16.2318 23.4464 15.2049 22.8746 14.2269 22.2258C14.3566 22.1288 14.4863 22.0317 14.616 21.9263C14.8913 21.7071 15.1674 21.4887 15.4259 21.2569C16.0868 21.677 16.7715 22.0583 17.4766 22.399C17.695 22.1965 17.9058 21.9941 18.1251 21.7832C18.4648 21.4485 18.781 21.1272 19.073 20.8026C19.2671 20.6001 19.4696 20.3575 19.6972 20.0981C19.8913 19.863 20.0938 19.6195 20.2888 19.361C20.5557 19.0364 20.7991 18.7042 21.0342 18.3637C21.1639 18.1963 21.2853 18.0072 21.4066 17.829C21.0419 17.4793 20.6517 17.1572 20.2394 16.8651C19.8488 16.5819 19.4402 16.3245 19.0162 16.0946C18.8296 16.3782 18.6354 16.6543 18.4405 16.9212C18.1008 17.3914 17.7519 17.829 17.3955 18.2507C17.2332 18.4365 17.0792 18.6071 16.9336 18.7695C16.8684 18.8531 16.7956 18.9234 16.7228 19.0037L16.7144 19.0121L16.7069 19.0205L16.6985 19.028L16.6901 19.0364L16.6826 19.0447L16.6743 19.0531L16.6659 19.0606L16.65 19.0774V19.0849C15.8762 19.8999 15.045 20.6582 14.1625 21.354C12.829 22.3779 11.3824 23.2454 9.85107 23.9394C9.71187 24.0018 9.55679 24.0197 9.40702 23.9907C9.25726 23.9616 9.12013 23.887 9.01438 23.777C8.65711 23.4691 8.32495 23.1529 7.99278 22.8366C7.65811 22.5128 7.32845 22.1672 6.98875 21.7916C6.73775 21.5238 6.51934 21.2728 6.32439 21.0461C6.10601 20.7867 5.89518 20.5273 5.6927 20.2763C5.42496 19.9283 5.1656 19.5794 4.90622 19.2146C4.64685 18.8498 4.40421 18.4774 4.17747 18.121C3.99842 17.8374 3.81264 17.5353 3.62606 17.2216C3.45872 16.9137 3.28553 16.6058 3.12405 16.3012C2.91404 15.9122 2.71911 15.5147 2.53252 15.1181C2.34594 14.7216 2.18447 14.3233 2.01462 13.91C1.70672 13.1569 1.43898 12.3872 1.20387 11.6007C0.968761 10.8142 0.774649 10.021 0.618188 9.21865C0.58773 9.07086 0.604164 8.91725 0.665211 8.77925C0.726259 8.64126 0.82886 8.52576 0.958706 8.44889C1.90213 7.77829 2.89634 7.18217 3.9323 6.66591C3.97247 7.05497 4.02182 7.43566 4.08624 7.81636C4.10214 7.94604 4.1264 8.07572 4.15067 8.20541C3.46293 8.56511 2.79741 8.96577 2.15769 9.40523C2.28738 10.0127 2.44132 10.6042 2.61117 11.1798C2.83038 11.9253 3.08978 12.6541 3.37342 13.3552C3.52737 13.7359 3.68885 14.1166 3.86706 14.4973C4.04528 14.878 4.22431 15.2503 4.41843 15.6076C4.57238 15.908 4.73471 16.1933 4.89703 16.4828C5.05851 16.7505 5.2317 17.0342 5.41494 17.3337C5.64252 17.6901 5.86924 18.039 6.10435 18.3628C6.33946 18.6866 6.59048 19.0322 6.84985 19.3602C7.05233 19.6187 7.24645 19.8622 7.44893 20.0973C7.66815 20.3567 7.87898 20.5993 8.06473 20.8018C8.3651 21.1264 8.68054 21.4502 9.02108 21.7824C9.23192 21.9932 9.45113 22.1957 9.66114 22.3906C10.8804 21.8041 12.037 21.0954 13.1133 20.2755C14.6907 19.0793 16.0856 17.6599 17.2541 16.0619L17.2566 16.0594ZM26.1791 8.44555C26.3085 8.52324 26.4111 8.63854 26.4733 8.77607C26.5355 8.9136 26.5543 9.06682 26.5271 9.2153C26.3648 10.0177 26.1707 10.8117 25.9356 11.5974C25.7005 12.383 25.4336 13.1536 25.1332 13.9066C25.1027 13.9817 25.0588 14.0507 25.0035 14.1099C24.8764 14.2573 24.6963 14.3487 24.5023 14.3644C24.3083 14.3801 24.116 14.3187 23.9669 14.1936C23.4193 13.717 22.8398 13.2784 22.2324 12.8808C21.6356 12.4904 21.0127 12.1413 20.3682 11.8358C20.1992 11.7596 20.0648 11.6229 19.9914 11.4526C19.918 11.2823 19.911 11.0907 19.9717 10.9154C20.214 10.2335 20.4168 9.53821 20.5791 8.83293C20.6519 8.55766 20.7088 8.28155 20.7657 7.99624C20.9522 8.06903 21.1305 8.14266 21.3171 8.22299C21.5923 8.34514 21.8676 8.47399 22.1428 8.60451C22.1027 8.79862 22.0592 8.98521 22.0132 9.17179C21.8843 9.7148 21.7379 10.2595 21.5681 10.7925C22.0701 11.0518 22.5645 11.343 23.0423 11.6509C23.4071 11.8944 23.7719 12.1529 24.1208 12.4207C24.2664 12.0157 24.4044 11.6024 24.5257 11.1815C24.7039 10.6059 24.8495 10.0102 24.9876 9.4069C23.9242 8.6798 22.7924 8.05825 21.6082 7.55112C20.8789 7.2359 20.1322 6.96242 19.3718 6.732C18.6769 6.52215 17.9707 6.35175 17.2566 6.22162C16.7546 6.13293 16.2358 6.06014 15.7087 6.00325C15.1816 5.94635 14.6637 5.91372 14.1449 5.89782L13.8538 5.88946H13.2865L13.0029 5.89782C12.4841 5.91372 11.957 5.94635 11.4382 6.00325C10.9195 6.06014 10.3932 6.13293 9.88285 6.22162C9.17752 6.35131 8.47301 6.52952 7.76768 6.732C7.49994 6.81567 7.23304 6.89935 6.9653 6.99138C6.94104 6.83743 6.91677 6.69184 6.90088 6.53789C6.85235 6.18983 6.81723 5.8493 6.79547 5.5004C8.98179 4.77756 11.27 4.41032 13.5727 4.4127C16.421 4.41661 19.2416 4.97237 21.8785 6.04927C23.3992 6.68294 24.8429 7.48771 26.1815 8.44805L26.1791 8.44555ZM12.6782 14.8554C12.5569 14.7015 12.4515 14.5634 12.3544 14.4421C11.5834 13.3865 10.9286 12.2506 10.4016 11.0543C10.3288 10.8929 10.2552 10.7305 10.1908 10.5682C10.1263 10.4059 10.077 10.2687 10.0234 10.1147C10.0002 10.0612 9.98393 10.005 9.97489 9.9474C9.95763 9.85211 9.9595 9.75433 9.98041 9.65977C10.0013 9.56521 10.0408 9.47576 10.0967 9.39664C10.1525 9.31751 10.2236 9.25029 10.3056 9.19891C10.3877 9.14752 10.4792 9.11299 10.5748 9.09732C10.7287 9.06469 10.9094 9.04043 11.0935 9.01365L11.6198 8.94003C11.9444 8.90823 12.2683 8.88397 12.6004 8.85636C12.9326 8.82874 13.2698 8.8321 13.5735 8.8321C13.8772 8.8321 14.2052 8.83962 14.5532 8.85636C14.8879 8.88062 15.2101 8.90488 15.5263 8.94003L16.0526 9.01365C16.2475 9.03792 16.4174 9.06218 16.5797 9.09732C16.6211 9.10398 16.6617 9.11463 16.701 9.12912C16.8844 9.19531 17.0342 9.33132 17.1177 9.50748C17.2013 9.68364 17.2118 9.88567 17.147 10.0696C17.0817 10.2369 17.0173 10.4093 16.952 10.5716C16.8868 10.7339 16.8223 10.8962 16.7495 11.0577C16.4863 11.654 16.1914 12.2357 15.866 12.8005C15.5391 13.3693 15.1793 13.9186 14.7884 14.4454C14.6668 14.6066 14.5616 14.7444 14.4729 14.8588C14.3349 15.0261 14.2294 15.1667 14.1382 15.2637C14.1097 15.3 14.0768 15.3325 14.0404 15.3608C13.9668 15.4228 13.8816 15.4695 13.7897 15.4982C13.6979 15.527 13.6013 15.5371 13.5055 15.5281C13.4097 15.519 13.3166 15.491 13.2317 15.4456C13.1469 15.4002 13.0719 15.3384 13.0112 15.2637C12.8899 15.1257 12.7845 14.996 12.6766 14.8588L12.6782 14.8554Z" fill="#4D5F7A"/>
</g>
<path d="M34.3977 10.5336C34.9161 9.72723 35.8281 9.32403 37.1337 9.32403V11.0376C36.9801 11.0088 36.8409 10.9944 36.7161 10.9944C36.0153 10.9944 35.4681 11.2008 35.0745 11.6136C34.6809 12.0168 34.4841 12.6024 34.4841 13.3704V17.1H32.6841V9.41043H34.3977V10.5336Z" fill="#4D5F7A"/>
<path d="M45.8192 13.2984C45.8192 13.4232 45.8096 13.6008 45.7904 13.8312H39.7568C39.8624 14.3976 40.136 14.8488 40.5776 15.1848C41.0288 15.5112 41.5856 15.6744 42.248 15.6744C43.0928 15.6744 43.7888 15.396 44.336 14.8392L45.3008 15.948C44.9552 16.3608 44.5184 16.6728 43.9904 16.884C43.4624 17.0953 42.8672 17.2009 42.2048 17.2009C41.36 17.2009 40.616 17.0329 39.9728 16.6968C39.3295 16.3608 38.8303 15.8952 38.4751 15.3C38.1295 14.6952 37.9567 14.0136 37.9567 13.2552C37.9567 12.5064 38.1247 11.8344 38.4607 11.2392C38.8063 10.6344 39.2815 10.164 39.8864 9.82803C40.4912 9.49203 41.1728 9.32403 41.9312 9.32403C42.68 9.32403 43.3472 9.49203 43.9328 9.82803C44.528 10.1544 44.9888 10.62 45.3152 11.2248C45.6512 11.82 45.8192 12.5112 45.8192 13.2984ZM41.9312 10.764C41.3552 10.764 40.8656 10.9368 40.4624 11.2824C40.0688 11.6184 39.8288 12.0696 39.7424 12.636H44.1056C44.0288 12.0792 43.7936 11.628 43.4 11.2824C43.0064 10.9368 42.5168 10.764 41.9312 10.764Z" fill="#4D5F7A"/>
<path d="M49.9242 17.2009C49.3002 17.2009 48.6906 17.1192 48.0954 16.956C47.5002 16.7928 47.025 16.5864 46.6698 16.3368L47.361 14.9688C47.7066 15.1992 48.1194 15.3864 48.5994 15.5304C49.089 15.6648 49.569 15.732 50.0394 15.732C51.1146 15.732 51.6522 15.4488 51.6522 14.8824C51.6522 14.6136 51.513 14.4264 51.2346 14.3208C50.9658 14.2152 50.529 14.1144 49.9242 14.0184C49.2906 13.9224 48.7722 13.812 48.369 13.6872C47.9754 13.5624 47.6298 13.3464 47.3322 13.0392C47.0442 12.7224 46.9002 12.2856 46.9002 11.7288C46.9002 10.9992 47.2026 10.4184 47.8074 9.98643C48.4218 9.54483 49.2474 9.32403 50.2842 9.32403C50.8122 9.32403 51.3402 9.38643 51.8682 9.51123C52.3962 9.62643 52.8282 9.78483 53.1642 9.98643L52.473 11.3544C51.8202 10.9704 51.0858 10.7784 50.2698 10.7784C49.7418 10.7784 49.3386 10.86 49.0602 11.0232C48.7914 11.1768 48.657 11.3832 48.657 11.6424C48.657 11.9304 48.801 12.1368 49.089 12.2616C49.3866 12.3768 49.8426 12.4872 50.457 12.5928C51.0714 12.6888 51.5754 12.7992 51.969 12.924C52.3626 13.0488 52.6986 13.26 52.977 13.5576C53.265 13.8552 53.409 14.2776 53.409 14.8248C53.409 15.5448 53.097 16.1208 52.473 16.5528C51.849 16.9848 50.9994 17.2009 49.9242 17.2009Z" fill="#4D5F7A"/>
<path d="M62.188 13.2984C62.188 13.4232 62.1784 13.6008 62.1592 13.8312H56.1255C56.2311 14.3976 56.5047 14.8488 56.9463 15.1848C57.3975 15.5112 57.9543 15.6744 58.6167 15.6744C59.4615 15.6744 60.1576 15.396 60.7048 14.8392L61.6696 15.948C61.324 16.3608 60.8872 16.6728 60.3592 16.884C59.8312 17.0953 59.2359 17.2009 58.5735 17.2009C57.7287 17.2009 56.9847 17.0329 56.3415 16.6968C55.6983 16.3608 55.1991 15.8952 54.8439 15.3C54.4983 14.6952 54.3255 14.0136 54.3255 13.2552C54.3255 12.5064 54.4935 11.8344 54.8295 11.2392C55.1751 10.6344 55.6503 10.164 56.2551 9.82803C56.8599 9.49203 57.5415 9.32403 58.2999 9.32403C59.0487 9.32403 59.716 9.49203 60.3016 9.82803C60.8968 10.1544 61.3576 10.62 61.684 11.2248C62.02 11.82 62.188 12.5112 62.188 13.2984ZM58.2999 10.764C57.7239 10.764 57.2343 10.9368 56.8311 11.2824C56.4375 11.6184 56.1975 12.0696 56.1111 12.636H60.4744C60.3976 12.0792 60.1624 11.628 59.7687 11.2824C59.3751 10.9368 58.8855 10.764 58.2999 10.764Z" fill="#4D5F7A"/>
<path d="M67.445 17.2009C66.6482 17.2009 65.933 17.0329 65.2994 16.6968C64.6658 16.3608 64.1714 15.8952 63.8162 15.3C63.461 14.6952 63.2834 14.0136 63.2834 13.2552C63.2834 12.4968 63.461 11.82 63.8162 11.2248C64.1714 10.6296 64.661 10.164 65.285 9.82803C65.9186 9.49203 66.6386 9.32403 67.445 9.32403C68.2034 9.32403 68.8658 9.47763 69.4322 9.78483C70.0082 10.092 70.4402 10.5336 70.7282 11.1096L69.3458 11.916C69.125 11.5608 68.8466 11.2968 68.5106 11.124C68.1842 10.9416 67.8242 10.8504 67.4306 10.8504C66.7586 10.8504 66.2018 11.0712 65.7602 11.5128C65.3186 11.9448 65.0978 12.5256 65.0978 13.2552C65.0978 13.9848 65.3138 14.5704 65.7458 15.012C66.1874 15.444 66.749 15.66 67.4306 15.66C67.8242 15.66 68.1842 15.5736 68.5106 15.4008C68.8466 15.2184 69.125 14.9496 69.3458 14.5944L70.7282 15.4008C70.4306 15.9768 69.9938 16.4232 69.4178 16.74C68.8514 17.0472 68.1938 17.2009 67.445 17.2009Z" fill="#4D5F7A"/>
<path d="M79.729 9.41043V17.1H78.0154V16.1208C77.7274 16.4664 77.3674 16.7352 76.9354 16.9272C76.5034 17.1096 76.0378 17.2009 75.5386 17.2009C74.5114 17.2009 73.7002 16.9176 73.105 16.3512C72.5194 15.7752 72.2266 14.9256 72.2266 13.8024V9.41043H74.0266V13.5576C74.0266 14.2488 74.1802 14.7672 74.4874 15.1128C74.8042 15.4488 75.2506 15.6168 75.8266 15.6168C76.4698 15.6168 76.9786 15.42 77.353 15.0264C77.737 14.6232 77.929 14.0472 77.929 13.2984V9.41043H79.729Z" fill="#4D5F7A"/>
<path d="M83.7994 10.5336C84.3178 9.72723 85.2298 9.32403 86.5354 9.32403V11.0376C86.3818 11.0088 86.2426 10.9944 86.1178 10.9944C85.417 10.9944 84.8698 11.2008 84.4762 11.6136C84.0826 12.0168 83.8858 12.6024 83.8858 13.3704V17.1H82.0858V9.41043H83.7994V10.5336Z" fill="#4D5F7A"/>
<path d="M92.3248 9.32403C93.0736 9.32403 93.7408 9.48723 94.3264 9.81363C94.9216 10.14 95.3872 10.6008 95.7232 11.196C96.0592 11.7912 96.2272 12.4776 96.2272 13.2552C96.2272 14.0328 96.0592 14.724 95.7232 15.3288C95.3872 15.924 94.9216 16.3848 94.3264 16.7112C93.7408 17.0377 93.0736 17.2009 92.3248 17.2009C91.7968 17.2009 91.312 17.1096 90.8704 16.9272C90.4384 16.7448 90.0736 16.4712 89.776 16.1064V17.1H88.0623V6.41522H89.8624V10.3464C90.1696 10.0104 90.5296 9.75603 90.9424 9.58323C91.3648 9.41043 91.8256 9.32403 92.3248 9.32403ZM92.1232 15.66C92.7856 15.66 93.328 15.4392 93.7504 14.9976C94.1824 14.556 94.3984 13.9752 94.3984 13.2552C94.3984 12.5352 94.1824 11.9544 93.7504 11.5128C93.328 11.0712 92.7856 10.8504 92.1232 10.8504C91.6912 10.8504 91.3024 10.9512 90.9568 11.1528C90.6112 11.3448 90.3376 11.6232 90.136 11.988C89.9344 12.3528 89.8336 12.7752 89.8336 13.2552C89.8336 13.7352 89.9344 14.1576 90.136 14.5224C90.3376 14.8872 90.6112 15.1704 90.9568 15.372C91.3024 15.564 91.6912 15.66 92.1232 15.66Z" fill="#4D5F7A"/>
<defs>
<clipPath id="clip0_830_15380">
<rect width="26.4001" height="24.0001" fill="white" transform="translate(0.303223)"/>
</clipPath>
</defs>
</svg>
