<svg width="155" height="44" viewBox="0 0 155 44" fill="none" xmlns="http://www.w3.org/2000/svg">
<path d="M52.4816 14.5485C52.4816 22.403 60.9252 23.4634 60.9252 29.1187C60.9252 31.0823 60.0612 31.7892 58.6867 31.7892C57.3121 31.7892 56.4481 31.0823 56.4481 29.1187V27.155H52.3638V28.8437C52.3638 33.2423 54.563 35.7557 58.8045 35.7557C63.046 35.7557 65.2452 33.2423 65.2452 28.8437C65.2452 20.9892 56.8016 19.9288 56.8016 14.2736C56.8016 12.3099 57.587 11.5637 58.9616 11.5637C60.3361 11.5637 61.1216 12.3099 61.1216 14.2736V15.4125H65.206V14.5485C65.206 10.1499 63.046 7.63647 58.8438 7.63647C54.6416 7.63647 52.4816 10.1499 52.4816 14.5485Z" fill="#8896AB"/>
<path d="M71.497 35.4416H75.817V26.3303L81.2759 7.95065H77.1522L73.8533 20.4787L70.5544 7.95065H66.038L71.497 26.3303V35.4416Z" fill="#8896AB"/>
<path d="M88.9923 7.95065H82.9836V35.4416H86.7538V16.0016L89.9742 35.4416H94.0585L97.0432 15.7267V35.4416H101.128V7.95065H95.1189L92.1734 27.4692L88.9923 7.95065Z" fill="#8896AB"/>
<path d="M103.013 11.8779H107.53V35.4416H111.85V11.8779H116.366V7.95065H103.013V11.8779Z" fill="#8896AB"/>
<path d="M131.7 35.4416C131.268 34.4205 131.229 33.4387 131.229 32.1034V27.8619C131.229 24.995 130.522 22.9136 128.362 22.0103C130.286 21.107 131.189 19.2612 131.189 16.4336V14.2736C131.189 10.0321 129.265 7.95065 124.788 7.95065H118.269V35.4416H122.589V24.2488H124.081C126.045 24.2488 126.909 25.1914 126.909 27.7441V32.0641C126.909 34.3027 127.066 34.7347 127.301 35.4416H131.7ZM124.67 11.8779C126.202 11.8779 126.869 12.7419 126.869 14.7056V17.4154C126.869 19.6147 125.888 20.3216 124.277 20.3216H122.589V11.8779H124.67Z" fill="#8896AB"/>
<path d="M134.07 35.4416H138.39V7.95065H134.07V35.4416Z" fill="#8896AB"/>
<path d="M149.992 25.1914V29.1187C149.992 31.0823 149.128 31.7892 147.754 31.7892C146.379 31.7892 145.515 31.0823 145.515 29.1187V14.2736C145.515 12.3099 146.379 11.5637 147.754 11.5637C149.128 11.5637 149.992 12.3099 149.992 14.2736V17.219H154.076V14.5485C154.076 10.1499 151.877 7.63647 147.636 7.63647C143.394 7.63647 141.195 10.1499 141.195 14.5485V28.8437C141.195 33.2423 143.394 35.7557 147.636 35.7557C151.877 35.7557 154.076 33.2423 154.076 28.8437V25.1914H149.992Z" fill="#8896AB"/>
<g clip-path="url(#clip0_756_17872)">
<path fill-rule="evenodd" clip-rule="evenodd" d="M14.8435 13.8349L12.4829 17.9161L10.2367 14.0199L12.5856 9.93873H28.9926L32.4763 3.89624H9.09898L4.49225 11.8868C7.94805 17.8569 11.3985 23.827 14.8435 29.7971H21.8109C20.061 26.768 18.312 23.7394 16.564 20.7113L16.0796 19.873H32.0476L38.9151 31.7642L32.0476 43.6364H6.85289L0.0558404 31.6498L3.46906 25.7218L5.72985 29.6165L4.50695 31.7496L9.11368 39.7402H29.7883L34.4097 31.7496L29.803 23.759H22.8356C24.3134 26.333 25.7922 28.9064 27.272 31.4794L27.4394 31.7452L26.3163 33.6933H12.5974C8.44473 26.5126 4.29748 19.3372 0.155622 12.1672L0 11.8824L6.85289 -0.00878906H39.2411L31.2563 13.8349H14.8435Z" fill="#8896AB"/>
</g>
<defs>
<clipPath id="clip0_756_17872">
<rect width="39.2425" height="43.6364" fill="white"/>
</clipPath>
</defs>
</svg>
