<svg width="24" height="24" viewBox="0 0 24 24" fill="none" xmlns="http://www.w3.org/2000/svg">
<path fill-rule="evenodd" clip-rule="evenodd" d="M21.8181 6.1461C21.1356 6.44856 20.4032 6.65368 19.6337 6.74525C20.4194 6.27474 21.0208 5.52844 21.3059 4.64189C20.5689 5.07762 19.7553 5.39401 18.8885 5.56553C18.1943 4.82501 17.207 4.36377 16.1118 4.36377C14.0108 4.36377 12.3072 6.06731 12.3072 8.16719C12.3072 8.46501 12.3408 8.75589 12.4058 9.03404C9.24436 8.87525 6.44105 7.36062 4.56484 5.05907C4.23687 5.61998 4.0503 6.27356 4.0503 6.97122C4.0503 8.29119 4.72245 9.45586 5.74227 10.1373C5.11878 10.1164 4.53239 9.94489 4.01902 9.6598V9.70732C4.01902 11.5499 5.33087 13.0877 7.07033 13.4377C6.75163 13.5235 6.41557 13.571 6.0679 13.571C5.82224 13.571 5.58466 13.5467 5.35172 13.5003C5.83611 15.0126 7.24069 16.1124 8.90484 16.1426C7.60342 17.1624 5.96245 17.7685 4.18011 17.7685C3.87302 17.7685 3.57054 17.7499 3.27272 17.7163C4.95657 18.7976 6.95563 19.428 9.10418 19.428C16.1026 19.428 19.9281 13.6313 19.9281 8.6041L19.9153 8.11159C20.6628 7.57847 21.3094 6.90865 21.8181 6.1461Z" fill="#404F65"/>
<mask id="mask0_717_24972" style="mask-type:alpha" maskUnits="userSpaceOnUse" x="3" y="4" width="19" height="16">
<path fill-rule="evenodd" clip-rule="evenodd" d="M21.8181 6.1461C21.1356 6.44856 20.4032 6.65368 19.6337 6.74525C20.4194 6.27474 21.0208 5.52844 21.3059 4.64189C20.5689 5.07762 19.7553 5.39401 18.8885 5.56553C18.1943 4.82501 17.207 4.36377 16.1118 4.36377C14.0108 4.36377 12.3072 6.06731 12.3072 8.16719C12.3072 8.46501 12.3408 8.75589 12.4058 9.03404C9.24436 8.87525 6.44105 7.36062 4.56484 5.05907C4.23687 5.61998 4.0503 6.27356 4.0503 6.97122C4.0503 8.29119 4.72245 9.45586 5.74227 10.1373C5.11878 10.1164 4.53239 9.94489 4.01902 9.6598V9.70732C4.01902 11.5499 5.33087 13.0877 7.07033 13.4377C6.75163 13.5235 6.41557 13.571 6.0679 13.571C5.82224 13.571 5.58466 13.5467 5.35172 13.5003C5.83611 15.0126 7.24069 16.1124 8.90484 16.1426C7.60342 17.1624 5.96245 17.7685 4.18011 17.7685C3.87302 17.7685 3.57054 17.7499 3.27272 17.7163C4.95657 18.7976 6.95563 19.428 9.10418 19.428C16.1026 19.428 19.9281 13.6313 19.9281 8.6041L19.9153 8.11159C20.6628 7.57847 21.3094 6.90865 21.8181 6.1461Z" fill="white"/>
</mask>
<g mask="url(#mask0_717_24972)">
</g>
</svg>
