<svg width="19" height="16" viewBox="0 0 19 16" fill="none" xmlns="http://www.w3.org/2000/svg">
<path fill-rule="evenodd" clip-rule="evenodd" d="M18.8181 2.14597C18.1356 2.44842 17.4032 2.65355 16.6336 2.74512C17.4194 2.27461 18.0208 1.5283 18.3059 0.641757C17.5689 1.07748 16.7553 1.39388 15.8885 1.56539C15.1943 0.824879 14.2069 0.363636 13.1118 0.363636C11.0108 0.363636 9.30722 2.06718 9.30722 4.16706C9.30722 4.46488 9.34083 4.75576 9.40574 5.03391C6.24434 4.87512 3.44104 3.36048 1.56483 1.05894C1.23686 1.61985 1.05028 2.27342 1.05028 2.97109C1.05028 4.29106 1.72243 5.45573 2.74225 6.13712C2.11877 6.11627 1.53237 5.94476 1.01901 5.65967V5.70718C1.01901 7.54979 2.33086 9.08761 4.07031 9.43761C3.75161 9.52336 3.41555 9.57088 3.06789 9.57088C2.82222 9.57088 2.58464 9.54655 2.35171 9.50018C2.8361 11.0125 4.24067 12.1123 5.90483 12.1424C4.6034 13.1622 2.96243 13.7683 1.1801 13.7683C0.873008 13.7683 0.570523 13.7498 0.272705 13.7162C1.95655 14.7974 3.95561 15.4278 6.10416 15.4278C13.1026 15.4278 16.928 9.63115 16.928 4.60397L16.9153 4.11145C17.6627 3.57833 18.3094 2.90851 18.8181 2.14597Z" fill="#BBC3CF"/>
</svg>
