<svg width="102" height="24" viewBox="0 0 102 24" fill="none" xmlns="http://www.w3.org/2000/svg">
<g clip-path="url(#clip0_830_15377)">
<path fill-rule="evenodd" clip-rule="evenodd" d="M2.46876 22.4667L4.57331 21.26L5.41828 20.7752L6.24784 20.2969L7.54944 19.551L9.61662 18.3707L11.6859 19.551L12.9854 20.2969L13.8148 20.7752L14.6621 21.26L16.7226 22.4491L17.3491 22.8046L17.9602 23.1534L19.2001 23.8642V12.4427L16.7226 11.0189V19.6212L15.0459 18.6559L12.575 17.243L11.6329 16.6945L10.8565 16.2557V2.07208H8.3789V16.5936L6.65816 17.583L4.1895 19.0069L2.46876 19.9876V11.0364L0 12.4515V23.8818L1.23104 23.1709L1.84882 22.8221L2.46876 22.4667ZM15.0437 16.6857V-0.490417H12.5728V15.2729L15.0437 16.6857ZM6.66042 15.602V4.63239H4.19166V17.0258L6.66042 15.602Z" fill="#4D5F7A"/>
</g>
<path d="M29.6675 17.1H31.8254L33.8146 10.2529H33.8965L35.8908 17.1H38.0487L41.0453 6.62731H38.6266L36.8931 13.9194H36.801L34.8936 6.62731H32.8226L30.9101 13.904H30.8232L29.0896 6.62731H26.6709L29.6675 17.1Z" fill="#4D5F7A"/>
<path d="M42.2304 17.1H49.3077V15.2745H44.4446V12.7739H48.9242V10.9483H44.4446V8.45288H49.2872V6.62731H42.2304V17.1Z" fill="#4D5F7A"/>
<path d="M51.0476 17.1H57.7516V15.2745H53.2618V6.62731H51.0476V17.1Z" fill="#4D5F7A"/>
<path d="M57.2683 6.62731L61.0882 13.3978V17.1H63.2871V13.3978L67.107 6.62731H64.6269L62.2388 11.1375H62.1365L59.7485 6.62731H57.2683Z" fill="#4D5F7A"/>
<path d="M68.5784 8.45288H71.7847V17.1H73.9733V8.45288H77.1796V6.62731H68.5784V8.45288Z" fill="#4D5F7A"/>
<path d="M80.8102 6.62731H78.596V17.1H80.8102V6.62731Z" fill="#4D5F7A"/>
<path d="M91.8723 10.2938C91.5808 7.87504 89.7502 6.48413 87.3263 6.48413C84.5598 6.48413 82.4479 8.43754 82.4479 11.8637C82.4479 15.2796 84.524 17.2432 87.3263 17.2432C90.011 17.2432 91.632 15.4586 91.8723 13.5307L89.6325 13.5205C89.4229 14.6404 88.5433 15.2847 87.3621 15.2847C85.7717 15.2847 84.6928 14.1034 84.6928 11.8637C84.6928 9.68527 85.7564 8.44265 87.3774 8.44265C88.5894 8.44265 89.4638 9.14322 89.6325 10.2938H91.8723Z" fill="#4D5F7A"/>
<path d="M99.1413 9.63924H101.264C101.233 7.77277 99.6987 6.48413 97.3669 6.48413C95.0709 6.48413 93.3885 7.75231 93.3987 9.65458C93.3936 11.1989 94.4828 12.0836 96.2521 12.508L97.3925 12.7944C98.5328 13.0705 99.1669 13.3978 99.172 14.1034C99.1669 14.8705 98.4408 15.3921 97.3158 15.3921C96.1652 15.3921 95.3368 14.8603 95.2652 13.812H93.1226C93.1788 16.0773 94.7999 17.2483 97.3413 17.2483C99.8982 17.2483 101.402 16.0262 101.407 14.1086C101.402 12.3648 100.087 11.4392 98.2669 11.0302L97.326 10.8052C96.4158 10.5955 95.6538 10.258 95.6692 9.50629C95.6692 8.83129 96.2675 8.33527 97.3516 8.33527C98.4101 8.33527 99.0595 8.81595 99.1413 9.63924Z" fill="#4D5F7A"/>
<defs>
<clipPath id="clip0_830_15377">
<rect width="19.2" height="24" fill="white"/>
</clipPath>
</defs>
</svg>
