<svg width="186" height="44" viewBox="0 0 186 44" fill="none" xmlns="http://www.w3.org/2000/svg">
<g clip-path="url(#clip0_756_17875)">
<path fill-rule="evenodd" clip-rule="evenodd" d="M4.48866 40.8484L8.31512 38.6544L9.85142 37.7729L11.3597 36.9033L13.7263 35.5471L17.4848 33.401L21.2472 35.5471L23.6098 36.9033L25.1179 37.7729L26.6583 38.6544L30.4047 40.8165L31.5438 41.4627L32.6549 42.0969L34.9092 43.3893V22.6229L30.4047 20.0341V35.6747L27.3562 33.9196L22.8636 31.3507L21.1508 30.3535L19.7391 29.5557V3.76725H15.2344V30.17L12.1057 31.969L7.61728 34.5578L4.48866 36.3409V20.066L0 22.6389V43.4212L2.23826 42.1288L3.3615 41.4946L4.48866 40.8484ZM27.3522 30.3375V-0.891846H22.8597V27.7687L27.3522 30.3375ZM12.1099 28.367V8.42235H7.6212V30.9558L12.1099 28.367Z" fill="#8896AB"/>
</g>
<path d="M53.941 31.091H57.8646L61.4813 18.6416H61.6301L65.2561 31.091H69.1797L74.628 12.0496H70.2303L67.0784 25.3079H66.9111L63.4431 12.0496H59.6776L56.2003 25.28H56.0423L52.8904 12.0496H48.4927L53.941 31.091Z" fill="#8896AB"/>
<path d="M76.7827 31.091H89.6505V27.7717H80.8085V23.2253H88.9532V19.906H80.8085V15.3689H89.6133V12.0496H76.7827V31.091Z" fill="#8896AB"/>
<path d="M92.814 31.091H105.003V27.7717H96.8398V12.0496H92.814V31.091Z" fill="#8896AB"/>
<path d="M104.124 12.0496L111.07 24.3596V31.091H115.068V24.3596L122.013 12.0496H117.504L113.162 20.2501H112.976L108.634 12.0496H104.124Z" fill="#8896AB"/>
<path d="M124.688 15.3689H130.518V31.091H134.497V15.3689H140.327V12.0496H124.688V15.3689Z" fill="#8896AB"/>
<path d="M146.928 12.0496H142.902V31.091H146.928V12.0496Z" fill="#8896AB"/>
<path d="M167.041 18.716C166.511 14.3182 163.182 11.7893 158.775 11.7893C153.745 11.7893 149.905 15.341 149.905 21.5703C149.905 27.781 153.68 31.3513 158.775 31.3513C163.656 31.3513 166.604 28.1065 167.041 24.6013L162.968 24.5827C162.587 26.6189 160.988 27.7903 158.84 27.7903C155.949 27.7903 153.987 25.6426 153.987 21.5703C153.987 17.6096 155.921 15.3503 158.868 15.3503C161.072 15.3503 162.662 16.624 162.968 18.716H167.041Z" fill="#8896AB"/>
<path d="M180.257 17.5259H184.116C184.06 14.1323 181.271 11.7893 177.031 11.7893C172.856 11.7893 169.797 14.0951 169.816 17.5538C169.807 20.3616 171.787 21.9701 175.004 22.7418L177.077 23.2624C179.151 23.7645 180.304 24.3596 180.313 25.6426C180.304 27.0372 178.983 27.9856 176.938 27.9856C174.846 27.9856 173.34 27.0186 173.21 25.1127H169.314C169.416 29.2315 172.364 31.3606 176.984 31.3606C181.633 31.3606 184.367 29.1385 184.376 25.6519C184.367 22.4815 181.977 20.7986 178.667 20.0548L176.957 19.6457C175.302 19.2645 173.916 18.6509 173.944 17.2841C173.944 16.0569 175.032 15.155 177.003 15.155C178.928 15.155 180.108 16.029 180.257 17.5259Z" fill="#8896AB"/>
<defs>
<clipPath id="clip0_756_17875">
<rect width="34.9091" height="43.6364" fill="white"/>
</clipPath>
</defs>
</svg>
