<svg width="93" height="24" viewBox="0 0 93 24" fill="none" xmlns="http://www.w3.org/2000/svg">
<g clip-path="url(#clip0_613_17467)">
<path fill-rule="evenodd" clip-rule="evenodd" d="M14.1748 23.5428C16.7722 23.2395 19.1914 22.0686 21.0405 20.2194C22.8896 18.3703 24.0606 15.9512 24.3638 13.3538H19.9985C19.7231 14.7953 19.0205 16.1207 17.9819 17.1576C16.9433 18.1945 15.6168 18.8949 14.1748 19.168V23.5428Z" fill="#BBC3CF"/>
<path fill-rule="evenodd" clip-rule="evenodd" d="M18.0523 1.62304L18.0797 1.60506C20.9044 -0.017989 23.1885 -0.495262 24.2519 0.569093C27.2603 3.57656 18.7767 12.9313 16.2635 15.4445C14.7521 16.9603 13.1505 18.3833 11.4673 19.7057V23.5398C10.114 23.3862 8.79919 22.9918 7.58485 22.3751L7.55738 22.3931C4.73268 24.0161 2.44964 24.4934 1.38529 23.4347C-0.0729892 21.9764 1.63335 18.6196 2.44014 17.2342C1.82732 16.0183 1.4331 14.7042 1.27543 13.3518H5.65024C5.84155 14.3671 6.24622 15.3304 6.83747 16.1777C7.42872 17.0251 8.19309 17.7373 9.08006 18.2673C8.57534 18.6338 8.06209 18.9823 7.52992 19.3089C6.75059 19.8042 5.94382 20.272 5.10862 20.6934C4.45498 20.1145 3.87033 19.4622 3.36627 18.7493C2.48562 20.4462 2.19208 21.6933 2.65986 22.1583C4.66831 24.1468 13.702 15.8488 15.1878 14.3631C16.7696 12.7834 18.2491 11.1046 19.6175 9.33677C19.1666 8.18442 18.4301 7.16568 17.4771 6.37635C16.5241 5.58702 15.386 5.05305 14.1698 4.82464V0.449778C15.5234 0.602059 16.8384 0.99659 18.0523 1.61451V1.62304ZM22.2708 5.24602C23.1515 3.54911 23.445 2.302 22.9773 1.83705C22.5095 1.37211 21.2728 1.67229 19.5749 2.55294C20.6187 3.29368 21.5301 4.20509 22.2708 5.24886V5.24602Z" fill="#BBC3CF"/>
<path fill-rule="evenodd" clip-rule="evenodd" d="M11.4693 0.458252C8.87178 0.761703 6.45269 1.93286 4.60356 3.78216C2.75443 5.63146 1.58348 8.05068 1.28027 10.6482H5.65513C5.92675 9.20653 6.62694 7.88028 7.66422 6.84283C8.70151 5.80537 10.0276 5.10495 11.4693 4.83309V0.458252Z" fill="#BBC3CF"/>
</g>
<path d="M44.6269 14.7786C44.6269 15.2843 44.5303 15.7615 44.3371 16.2104C44.1496 16.6536 43.8883 17.0428 43.5531 17.378C43.2235 17.7076 42.8343 17.9689 42.3854 18.1621C41.9423 18.3496 41.4678 18.4433 40.9621 18.4433C40.5076 18.4433 40.0701 18.3638 39.6496 18.2047C39.2349 18.0456 38.8599 17.8127 38.5246 17.5058C38.1894 17.8127 37.8116 18.0456 37.3911 18.2047C36.9706 18.3638 36.5331 18.4433 36.0786 18.4433C35.5729 18.4433 35.0956 18.3496 34.6468 18.1621C34.2036 17.9689 33.8144 17.7076 33.4792 17.378C33.1496 17.0428 32.8883 16.6536 32.6951 16.2104C32.5076 15.7615 32.4138 15.2843 32.4138 14.7786V6.05127H34.8598V14.7786C34.8598 14.949 34.8911 15.111 34.9536 15.2644C35.0161 15.4121 35.1013 15.5428 35.2093 15.6564C35.3229 15.7644 35.4536 15.8496 35.6013 15.9121C35.7491 15.9746 35.9081 16.0058 36.0786 16.0058C36.2491 16.0058 36.4081 15.9746 36.5559 15.9121C36.7036 15.8496 36.8314 15.7644 36.9394 15.6564C37.053 15.5428 37.1411 15.4121 37.2036 15.2644C37.2661 15.111 37.2974 14.949 37.2974 14.7786V6.05127H39.7434V14.7786C39.7434 14.949 39.7746 15.111 39.8371 15.2644C39.8996 15.4121 39.9849 15.5428 40.0928 15.6564C40.2065 15.7644 40.3371 15.8496 40.4849 15.9121C40.6326 15.9746 40.7917 16.0058 40.9621 16.0058C41.1326 16.0058 41.2917 15.9746 41.4394 15.9121C41.5871 15.8496 41.715 15.7644 41.8229 15.6564C41.9366 15.5428 42.0246 15.4121 42.0871 15.2644C42.1553 15.111 42.1894 14.949 42.1894 14.7786V6.05127H44.6269V14.7786Z" fill="#BBC3CF"/>
<path d="M49.3144 6.66491C49.3144 6.88082 49.2718 7.08252 49.1866 7.27003C49.107 7.45753 48.9962 7.6223 48.8542 7.76434C48.7122 7.90071 48.5445 8.0115 48.3514 8.09673C48.1639 8.17628 47.9622 8.21605 47.7462 8.21605C47.5303 8.21605 47.3258 8.17628 47.1326 8.09673C46.9451 8.0115 46.7803 7.90071 46.6383 7.76434C46.5019 7.6223 46.3911 7.45753 46.3059 7.27003C46.2264 7.08252 46.1866 6.88082 46.1866 6.66491C46.1866 6.45468 46.2264 6.25582 46.3059 6.06832C46.3911 5.87514 46.5019 5.71036 46.6383 5.574C46.7803 5.43195 46.9451 5.32116 47.1326 5.24161C47.3258 5.15638 47.5303 5.11377 47.7462 5.11377C47.9622 5.11377 48.1639 5.15638 48.3514 5.24161C48.5445 5.32116 48.7122 5.43195 48.8542 5.574C48.9962 5.71036 49.107 5.87514 49.1866 6.06832C49.2718 6.25582 49.3144 6.45468 49.3144 6.66491ZM48.9139 18.2729H46.5701V9.14503H48.9139V18.2729Z" fill="#BBC3CF"/>
<path d="M55.7065 18.2729H50.3883V15.9547H55.7065C55.8656 15.9547 56.0019 15.8979 56.1156 15.7843C56.2292 15.6706 56.286 15.5343 56.286 15.3752C56.286 15.2104 56.2292 15.1024 56.1156 15.0513C56.0019 15.0002 55.8656 14.9746 55.7065 14.9746H53.286C52.8826 14.9746 52.5048 14.8979 52.1525 14.7445C51.8002 14.5911 51.4934 14.3837 51.232 14.1223C50.9707 13.8553 50.7633 13.5456 50.6099 13.1933C50.4622 12.8411 50.3883 12.4632 50.3883 12.0598C50.3883 11.6564 50.4622 11.2786 50.6099 10.9263C50.7633 10.574 50.9707 10.2672 51.232 10.0058C51.4934 9.74446 51.8002 9.53992 52.1525 9.39219C52.5048 9.23878 52.8826 9.16208 53.286 9.16208H57.9991V11.4803H53.286C53.1269 11.4803 52.9906 11.5371 52.8769 11.6507C52.7633 11.7644 52.7065 11.9007 52.7065 12.0598C52.7065 12.2246 52.7633 12.3666 52.8769 12.4859C52.9906 12.5996 53.1269 12.6564 53.286 12.6564H55.7065C56.1042 12.6564 56.4792 12.7246 56.8315 12.8609C57.1838 12.9916 57.4906 13.1763 57.752 13.4149C58.0133 13.6536 58.2207 13.9405 58.3741 14.2757C58.5275 14.611 58.6042 14.9774 58.6042 15.3752C58.6042 15.7786 58.5275 16.1564 58.3741 16.5087C58.2207 16.8553 58.0133 17.1621 57.752 17.4291C57.4906 17.6905 57.1838 17.8979 56.8315 18.0513C56.4792 18.199 56.1042 18.2729 55.7065 18.2729Z" fill="#BBC3CF"/>
<path d="M62.1753 18.2729H59.8485V5.51434H62.1753V9.5456C62.4537 9.33537 62.7406 9.18764 63.0361 9.10242C63.3315 9.01151 63.6326 8.96605 63.9395 8.96605C64.502 8.96605 65.0304 9.07401 65.5247 9.28992C66.019 9.50014 66.448 9.79276 66.8116 10.1678C67.181 10.5371 67.4707 10.9717 67.681 11.4717C67.8969 11.9661 68.0048 12.4945 68.0048 13.057V18.2729H65.6611V13.057H65.6781C65.6781 12.8183 65.6327 12.5939 65.5417 12.3837C65.4508 12.1678 65.3258 11.9803 65.1667 11.8212C65.0077 11.6621 64.823 11.5371 64.6128 11.4462C64.4025 11.3553 64.1781 11.3098 63.9395 11.3098C63.6951 11.3098 63.465 11.3553 63.2491 11.4462C63.0332 11.5371 62.8457 11.6621 62.6866 11.8212C62.5275 11.9803 62.4025 12.1678 62.3116 12.3837C62.2207 12.5939 62.1753 12.8183 62.1753 13.057V18.2729Z" fill="#BBC3CF"/>
<path d="M73.2974 16.0399C73.3884 16.0683 73.4793 16.0882 73.5702 16.0996C73.6611 16.1053 73.752 16.1081 73.8429 16.1081C74.0702 16.1081 74.2889 16.0769 74.4992 16.0144C74.7094 15.9519 74.9054 15.8638 75.0872 15.7502C75.2747 15.6308 75.4395 15.4888 75.5815 15.324C75.7293 15.1536 75.8486 14.9661 75.9395 14.7615L77.644 16.4746C77.4281 16.7814 77.1781 17.057 76.894 17.3013C76.6156 17.5456 76.3117 17.753 75.9821 17.9235C75.6582 18.0939 75.3145 18.2218 74.9509 18.307C74.5929 18.3979 74.2236 18.4433 73.8429 18.4433C73.2009 18.4433 72.5957 18.324 72.0276 18.0854C71.4651 17.8468 70.9707 17.5144 70.5446 17.0882C70.1241 16.6621 69.7918 16.1564 69.5474 15.5712C69.3031 14.9803 69.181 14.3325 69.181 13.628C69.181 12.9064 69.3031 12.2473 69.5474 11.6507C69.7918 11.0541 70.1241 10.5456 70.5446 10.1251C70.9707 9.70469 71.4651 9.37799 72.0276 9.14503C72.5957 8.91207 73.2009 8.7956 73.8429 8.7956C74.2236 8.7956 74.5957 8.84105 74.9594 8.93196C75.323 9.02287 75.6668 9.15355 75.9906 9.32401C76.3202 9.49446 76.627 9.70469 76.9111 9.95469C77.1952 10.199 77.4452 10.4746 77.6611 10.7814L73.2974 16.0399ZM74.4906 11.2416C74.3827 11.2019 74.2747 11.1763 74.1668 11.1649C74.0645 11.1536 73.9565 11.1479 73.8429 11.1479C73.5247 11.1479 73.2236 11.2075 72.9395 11.3269C72.6611 11.4405 72.4168 11.6053 72.2065 11.8212C72.002 12.0371 71.8401 12.2984 71.7207 12.6053C71.6014 12.9064 71.5418 13.2473 71.5418 13.628C71.5418 13.7132 71.5446 13.8098 71.5503 13.9178C71.5616 14.0257 71.5759 14.1365 71.5929 14.2502C71.6156 14.3581 71.6412 14.4632 71.6696 14.5655C71.698 14.6678 71.7349 14.7587 71.7804 14.8382L74.4906 11.2416Z" fill="#BBC3CF"/>
<path d="M81.181 18.2729H78.8372V5.51434H81.181V18.2729Z" fill="#BBC3CF"/>
<path d="M85.306 21.7502H82.9622V9.14503H83.5247L84.4537 10.2445C84.664 10.0456 84.8941 9.8581 85.1441 9.68196C85.3941 9.50583 85.6526 9.35526 85.9196 9.23026C86.1924 9.09958 86.4736 8.9973 86.7634 8.92344C87.0532 8.84957 87.3458 8.81264 87.6412 8.81264C88.2833 8.81264 88.8856 8.92912 89.4481 9.16208C90.0162 9.38935 90.5106 9.71321 90.931 10.1337C91.3572 10.5541 91.6924 11.0626 91.9367 11.6592C92.181 12.2502 92.3032 12.9064 92.3032 13.628C92.3032 14.378 92.181 15.0541 91.9367 15.6564C91.6924 16.253 91.3572 16.7615 90.931 17.182C90.5106 17.5968 90.0162 17.9149 89.4481 18.1365C88.8856 18.3581 88.2833 18.4689 87.6412 18.4689C87.4367 18.4689 87.2321 18.4462 87.0276 18.4007C86.8287 18.3553 86.6299 18.2956 86.431 18.2218C86.2378 18.1422 86.0446 18.0541 85.8515 17.9576C85.664 17.861 85.4821 17.7615 85.306 17.6593V21.7502ZM89.9679 13.628C89.9679 13.2416 89.9054 12.895 89.7804 12.5882C89.6611 12.2814 89.4963 12.0229 89.2861 11.8127C89.0759 11.5967 88.8287 11.432 88.5446 11.3183C88.2606 11.2047 87.9594 11.1479 87.6412 11.1479C87.323 11.1479 87.0219 11.2047 86.7378 11.3183C86.4594 11.432 86.2151 11.5967 86.0049 11.8127C85.7946 12.0229 85.627 12.2814 85.502 12.5882C85.3827 12.895 85.323 13.2416 85.323 13.628C85.323 13.9973 85.3827 14.3354 85.502 14.6422C85.627 14.949 85.7946 15.2104 86.0049 15.4263C86.2151 15.6422 86.4594 15.8098 86.7378 15.9291C87.0219 16.0485 87.323 16.1081 87.6412 16.1081C87.9594 16.1081 88.2606 16.0485 88.5446 15.9291C88.8287 15.8098 89.0759 15.6422 89.2861 15.4263C89.4963 15.2104 89.6611 14.949 89.7804 14.6422C89.9054 14.3354 89.9679 13.9973 89.9679 13.628Z" fill="#BBC3CF"/>
<defs>
<clipPath id="clip0_613_17467">
<rect width="24.0711" height="24.0001" fill="white" transform="translate(0.820068)"/>
</clipPath>
</defs>
</svg>
