<svg width="93" height="24" viewBox="0 0 93 24" fill="none" xmlns="http://www.w3.org/2000/svg">
<g clip-path="url(#clip0_830_15379)">
<path fill-rule="evenodd" clip-rule="evenodd" d="M14.1748 23.5427C16.7722 23.2395 19.1914 22.0685 21.0405 20.2194C22.8896 18.3702 24.0606 15.9511 24.3638 13.3537H19.9985C19.7231 14.7952 19.0205 16.1206 17.9819 17.1575C16.9433 18.1944 15.6168 18.8949 14.1748 19.1679V23.5427Z" fill="#4D5F7A"/>
<path fill-rule="evenodd" clip-rule="evenodd" d="M18.0523 1.62304L18.0797 1.60506C20.9044 -0.017989 23.1885 -0.495262 24.2519 0.569093C27.2603 3.57656 18.7767 12.9313 16.2635 15.4445C14.7521 16.9603 13.1505 18.3833 11.4673 19.7057V23.5398C10.114 23.3862 8.79919 22.9918 7.58485 22.3751L7.55738 22.3931C4.73268 24.0161 2.44964 24.4934 1.38529 23.4347C-0.0729892 21.9764 1.63335 18.6196 2.44014 17.2342C1.82732 16.0183 1.4331 14.7042 1.27543 13.3518H5.65024C5.84155 14.3671 6.24622 15.3304 6.83747 16.1777C7.42872 17.0251 8.19309 17.7373 9.08006 18.2673C8.57534 18.6338 8.06209 18.9823 7.52992 19.3089C6.75059 19.8042 5.94382 20.272 5.10862 20.6934C4.45498 20.1145 3.87033 19.4622 3.36627 18.7493C2.48562 20.4462 2.19208 21.6933 2.65986 22.1583C4.66831 24.1468 13.702 15.8488 15.1878 14.3631C16.7696 12.7834 18.2491 11.1046 19.6175 9.33677C19.1666 8.18442 18.4301 7.16568 17.4771 6.37635C16.5241 5.58702 15.386 5.05305 14.1698 4.82464V0.449778C15.5234 0.602059 16.8384 0.99659 18.0523 1.61451V1.62304ZM22.2708 5.24602C23.1515 3.54911 23.445 2.302 22.9773 1.83705C22.5095 1.37211 21.2728 1.67229 19.5749 2.55294C20.6187 3.29368 21.5301 4.20509 22.2708 5.24886V5.24602Z" fill="#4D5F7A"/>
<path fill-rule="evenodd" clip-rule="evenodd" d="M11.4693 0.458313C8.87178 0.761764 6.45269 1.93293 4.60356 3.78223C2.75443 5.63152 1.58348 8.05074 1.28027 10.6483H5.65513C5.92675 9.20659 6.62694 7.88034 7.66422 6.84289C8.70151 5.80543 10.0276 5.10501 11.4693 4.83315V0.458313Z" fill="#4D5F7A"/>
</g>
<path d="M44.6269 14.7784C44.6269 15.2841 44.5303 15.7614 44.3371 16.2103C44.1496 16.6535 43.8883 17.0427 43.5531 17.3779C43.2235 17.7074 42.8343 17.9688 42.3854 18.162C41.9423 18.3495 41.4678 18.4432 40.9621 18.4432C40.5076 18.4432 40.0701 18.3637 39.6496 18.2046C39.2349 18.0455 38.8599 17.8125 38.5246 17.5057C38.1894 17.8125 37.8116 18.0455 37.3911 18.2046C36.9706 18.3637 36.5331 18.4432 36.0786 18.4432C35.5729 18.4432 35.0956 18.3495 34.6468 18.162C34.2036 17.9688 33.8144 17.7074 33.4792 17.3779C33.1496 17.0427 32.8883 16.6535 32.6951 16.2103C32.5076 15.7614 32.4138 15.2841 32.4138 14.7784V6.05115H34.8598V14.7784C34.8598 14.9489 34.8911 15.1108 34.9536 15.2642C35.0161 15.412 35.1013 15.5427 35.2093 15.6563C35.3229 15.7642 35.4536 15.8495 35.6013 15.912C35.7491 15.9745 35.9081 16.0057 36.0786 16.0057C36.2491 16.0057 36.4081 15.9745 36.5559 15.912C36.7036 15.8495 36.8314 15.7642 36.9394 15.6563C37.053 15.5427 37.1411 15.412 37.2036 15.2642C37.2661 15.1108 37.2974 14.9489 37.2974 14.7784V6.05115H39.7434V14.7784C39.7434 14.9489 39.7746 15.1108 39.8371 15.2642C39.8996 15.412 39.9849 15.5427 40.0928 15.6563C40.2065 15.7642 40.3371 15.8495 40.4849 15.912C40.6326 15.9745 40.7917 16.0057 40.9621 16.0057C41.1326 16.0057 41.2917 15.9745 41.4394 15.912C41.5871 15.8495 41.715 15.7642 41.8229 15.6563C41.9366 15.5427 42.0246 15.412 42.0871 15.2642C42.1553 15.1108 42.1894 14.9489 42.1894 14.7784V6.05115H44.6269V14.7784Z" fill="#4D5F7A"/>
<path d="M49.3144 6.66479C49.3144 6.8807 49.2718 7.0824 49.1866 7.2699C49.107 7.4574 48.9962 7.62218 48.8542 7.76422C48.7122 7.90059 48.5445 8.01138 48.3514 8.09661C48.1639 8.17616 47.9622 8.21593 47.7462 8.21593C47.5303 8.21593 47.3258 8.17616 47.1326 8.09661C46.9451 8.01138 46.7803 7.90059 46.6383 7.76422C46.5019 7.62218 46.3911 7.4574 46.3059 7.2699C46.2264 7.0824 46.1866 6.8807 46.1866 6.66479C46.1866 6.45456 46.2264 6.2557 46.3059 6.0682C46.3911 5.87501 46.5019 5.71024 46.6383 5.57388C46.7803 5.43183 46.9451 5.32103 47.1326 5.24149C47.3258 5.15626 47.5303 5.11365 47.7462 5.11365C47.9622 5.11365 48.1639 5.15626 48.3514 5.24149C48.5445 5.32103 48.7122 5.43183 48.8542 5.57388C48.9962 5.71024 49.107 5.87501 49.1866 6.0682C49.2718 6.2557 49.3144 6.45456 49.3144 6.66479ZM48.9139 18.2728H46.5701V9.14491H48.9139V18.2728Z" fill="#4D5F7A"/>
<path d="M55.7065 18.2728H50.3883V15.9546H55.7065C55.8656 15.9546 56.0019 15.8978 56.1156 15.7841C56.2292 15.6705 56.286 15.5341 56.286 15.375C56.286 15.2103 56.2292 15.1023 56.1156 15.0512C56.0019 15 55.8656 14.9745 55.7065 14.9745H53.286C52.8826 14.9745 52.5048 14.8978 52.1525 14.7444C51.8002 14.5909 51.4934 14.3836 51.232 14.1222C50.9707 13.8551 50.7633 13.5455 50.6099 13.1932C50.4622 12.8409 50.3883 12.4631 50.3883 12.0597C50.3883 11.6563 50.4622 11.2784 50.6099 10.9262C50.7633 10.5739 50.9707 10.2671 51.232 10.0057C51.4934 9.74434 51.8002 9.53979 52.1525 9.39207C52.5048 9.23866 52.8826 9.16195 53.286 9.16195H57.9991V11.4801H53.286C53.1269 11.4801 52.9906 11.537 52.8769 11.6506C52.7633 11.7642 52.7065 11.9006 52.7065 12.0597C52.7065 12.2245 52.7633 12.3665 52.8769 12.4858C52.9906 12.5995 53.1269 12.6563 53.286 12.6563H55.7065C56.1042 12.6563 56.4792 12.7245 56.8315 12.8608C57.1838 12.9915 57.4906 13.1762 57.752 13.4148C58.0133 13.6534 58.2207 13.9404 58.3741 14.2756C58.5275 14.6108 58.6042 14.9773 58.6042 15.375C58.6042 15.7784 58.5275 16.1563 58.3741 16.5086C58.2207 16.8552 58.0133 17.162 57.752 17.429C57.4906 17.6904 57.1838 17.8978 56.8315 18.0512C56.4792 18.1989 56.1042 18.2728 55.7065 18.2728Z" fill="#4D5F7A"/>
<path d="M62.1753 18.2728H59.8485V5.51422H62.1753V9.54548C62.4537 9.33525 62.7406 9.18752 63.0361 9.10229C63.3315 9.01138 63.6326 8.96593 63.9395 8.96593C64.502 8.96593 65.0304 9.07388 65.5247 9.28979C66.019 9.50002 66.448 9.79264 66.8116 10.1676C67.181 10.537 67.4707 10.9716 67.681 11.4716C67.8969 11.9659 68.0048 12.4943 68.0048 13.0568V18.2728H65.6611V13.0568H65.6781C65.6781 12.8182 65.6327 12.5938 65.5417 12.3836C65.4508 12.1676 65.3258 11.9801 65.1667 11.8211C65.0077 11.662 64.823 11.537 64.6128 11.446C64.4025 11.3551 64.1781 11.3097 63.9395 11.3097C63.6951 11.3097 63.465 11.3551 63.2491 11.446C63.0332 11.537 62.8457 11.662 62.6866 11.8211C62.5275 11.9801 62.4025 12.1676 62.3116 12.3836C62.2207 12.5938 62.1753 12.8182 62.1753 13.0568V18.2728Z" fill="#4D5F7A"/>
<path d="M73.2974 16.0398C73.3884 16.0682 73.4793 16.0881 73.5702 16.0995C73.6611 16.1052 73.752 16.108 73.8429 16.108C74.0702 16.108 74.2889 16.0767 74.4992 16.0142C74.7094 15.9517 74.9054 15.8637 75.0872 15.75C75.2747 15.6307 75.4395 15.4887 75.5815 15.3239C75.7293 15.1534 75.8486 14.9659 75.9395 14.7614L77.644 16.4745C77.4281 16.7813 77.1781 17.0569 76.894 17.3012C76.6156 17.5455 76.3117 17.7529 75.9821 17.9233C75.6582 18.0938 75.3145 18.2216 74.9509 18.3069C74.5929 18.3978 74.2236 18.4432 73.8429 18.4432C73.2009 18.4432 72.5957 18.3239 72.0276 18.0853C71.4651 17.8466 70.9707 17.5142 70.5446 17.0881C70.1241 16.662 69.7918 16.1563 69.5474 15.5711C69.3031 14.9802 69.181 14.3324 69.181 13.6279C69.181 12.9063 69.3031 12.2472 69.5474 11.6506C69.7918 11.054 70.1241 10.5455 70.5446 10.125C70.9707 9.70457 71.4651 9.37786 72.0276 9.14491C72.5957 8.91195 73.2009 8.79548 73.8429 8.79548C74.2236 8.79548 74.5957 8.84093 74.9594 8.93184C75.323 9.02275 75.6668 9.15343 75.9906 9.32389C76.3202 9.49434 76.627 9.70457 76.9111 9.95457C77.1952 10.1989 77.4452 10.4745 77.6611 10.7813L73.2974 16.0398ZM74.4906 11.2415C74.3827 11.2017 74.2747 11.1762 74.1668 11.1648C74.0645 11.1534 73.9565 11.1478 73.8429 11.1478C73.5247 11.1478 73.2236 11.2074 72.9395 11.3267C72.6611 11.4404 72.4168 11.6051 72.2065 11.8211C72.002 12.037 71.8401 12.2983 71.7207 12.6051C71.6014 12.9063 71.5418 13.2472 71.5418 13.6279C71.5418 13.7131 71.5446 13.8097 71.5503 13.9176C71.5616 14.0256 71.5759 14.1364 71.5929 14.25C71.6156 14.358 71.6412 14.4631 71.6696 14.5654C71.698 14.6676 71.7349 14.7586 71.7804 14.8381L74.4906 11.2415Z" fill="#4D5F7A"/>
<path d="M81.181 18.2728H78.8372V5.51422H81.181V18.2728Z" fill="#4D5F7A"/>
<path d="M85.306 21.7501H82.9622V9.14491H83.5247L84.4537 10.2443C84.664 10.0455 84.8941 9.85798 85.1441 9.68184C85.3941 9.5057 85.6526 9.35514 85.9196 9.23013C86.1924 9.09945 86.4736 8.99718 86.7634 8.92332C87.0532 8.84945 87.3458 8.81252 87.6412 8.81252C88.2833 8.81252 88.8856 8.929 89.4481 9.16195C90.0162 9.38923 90.5106 9.71309 90.931 10.1335C91.3572 10.554 91.6924 11.0625 91.9367 11.6591C92.181 12.25 92.3032 12.9063 92.3032 13.6279C92.3032 14.3779 92.181 15.054 91.9367 15.6563C91.6924 16.2529 91.3572 16.7614 90.931 17.1819C90.5106 17.5966 90.0162 17.9148 89.4481 18.1364C88.8856 18.358 88.2833 18.4688 87.6412 18.4688C87.4367 18.4688 87.2321 18.4461 87.0276 18.4006C86.8287 18.3552 86.6299 18.2955 86.431 18.2216C86.2378 18.1421 86.0446 18.054 85.8515 17.9574C85.664 17.8608 85.4821 17.7614 85.306 17.6591V21.7501ZM89.9679 13.6279C89.9679 13.2415 89.9054 12.8949 89.7804 12.5881C89.6611 12.2813 89.4963 12.0228 89.2861 11.8125C89.0759 11.5966 88.8287 11.4318 88.5446 11.3182C88.2606 11.2046 87.9594 11.1478 87.6412 11.1478C87.323 11.1478 87.0219 11.2046 86.7378 11.3182C86.4594 11.4318 86.2151 11.5966 86.0049 11.8125C85.7946 12.0228 85.627 12.2813 85.502 12.5881C85.3827 12.8949 85.323 13.2415 85.323 13.6279C85.323 13.9972 85.3827 14.3353 85.502 14.6421C85.627 14.9489 85.7946 15.2103 86.0049 15.4262C86.2151 15.6421 86.4594 15.8097 86.7378 15.929C87.0219 16.0483 87.323 16.108 87.6412 16.108C87.9594 16.108 88.2606 16.0483 88.5446 15.929C88.8287 15.8097 89.0759 15.6421 89.2861 15.4262C89.4963 15.2103 89.6611 14.9489 89.7804 14.6421C89.9054 14.3353 89.9679 13.9972 89.9679 13.6279Z" fill="#4D5F7A"/>
<defs>
<clipPath id="clip0_830_15379">
<rect width="24.0711" height="24.0001" fill="white" transform="translate(0.820068)"/>
</clipPath>
</defs>
</svg>
