<svg width="150" height="51" viewBox="0 0 150 51" fill="none" xmlns="http://www.w3.org/2000/svg">
<rect y="0.997681" width="150" height="50" rx="5" fill="#333F51"/>
<path fill-rule="evenodd" clip-rule="evenodd" d="M53.862 33.8853H47.9343L46.5107 38.1722H44L49.6146 22.3116H52.2232L57.8379 38.1722H55.2843L53.862 33.8853ZM48.5482 31.9071H53.2469L50.9306 24.9496H50.8658L48.5482 31.9071ZM69.9636 32.391C69.9636 35.9845 68.0778 38.2932 65.232 38.2932C63.761 38.3717 62.3754 37.5859 61.6646 36.2701H61.6107V41.9977H59.2834V26.6086H61.5362V28.5319H61.579C62.3214 27.2243 63.7084 26.4389 65.1892 26.4876C68.0668 26.4876 69.9636 28.8075 69.9636 32.391ZM67.5715 32.391C67.5715 30.0499 66.3852 28.5107 64.5752 28.5107C62.797 28.5107 61.601 30.0823 61.601 32.391C61.601 34.721 62.797 36.2813 64.5752 36.2813C66.3852 36.2813 67.5715 34.7534 67.5715 32.391ZM82.4428 32.391C82.4428 35.9845 80.557 38.2932 77.7112 38.2932C76.2402 38.3717 74.8546 37.5859 74.1438 36.2701H74.0899V41.9977H71.7626V26.6086H74.0153V28.5319H74.0581C74.8005 27.2243 76.1876 26.4389 77.6683 26.4876C80.546 26.4876 82.4428 28.8075 82.4428 32.391ZM80.0507 32.391C80.0507 30.0499 78.8644 28.5107 77.0544 28.5107C75.2762 28.5107 74.0802 30.0823 74.0802 32.391C74.0802 34.721 75.2762 36.2813 77.0544 36.2813C78.8644 36.2813 80.0507 34.7534 80.0507 32.391ZM90.6906 33.7531C90.863 35.3259 92.3612 36.3586 94.4084 36.3586C96.37 36.3586 97.7813 35.3259 97.7813 33.9077C97.7813 32.6766 96.9302 31.9395 94.9147 31.4343L92.8993 30.9391C90.0436 30.2356 88.7179 28.8736 88.7179 26.6634C88.7179 23.9268 91.0562 22.0471 94.3766 22.0471C97.6627 22.0471 99.9154 23.9268 99.9912 26.6634H97.6419C97.5013 25.0806 96.2184 24.1251 94.3435 24.1251C92.4687 24.1251 91.1858 25.0918 91.1858 26.4987C91.1858 27.6201 92.0052 28.2799 94.0097 28.785L95.723 29.2141C98.9138 29.9836 100.239 31.2908 100.239 33.6108C100.239 36.5781 97.922 38.4366 94.2359 38.4366C90.7871 38.4366 88.4586 36.6217 88.3082 33.753L90.6906 33.7531ZM105.262 23.872V26.6086H107.418V28.4882H105.262V34.8632C105.262 35.8535 105.694 36.315 106.642 36.315C106.898 36.3105 107.153 36.2921 107.407 36.2601V38.1285C106.981 38.2097 106.548 38.2465 106.115 38.2383C103.819 38.2383 102.924 37.359 102.924 35.1163V28.4882H101.275V26.6086H102.924V23.872H105.262ZM108.667 32.391C108.667 28.7527 110.768 26.4664 114.044 26.4664C117.332 26.4664 119.423 28.7526 119.423 32.391C119.423 36.0394 117.343 38.3157 114.044 38.3157C110.747 38.3157 108.667 36.0394 108.667 32.391ZM117.052 32.391C117.052 29.8952 115.93 28.4221 114.044 28.4221C112.159 28.4221 111.038 29.9064 111.038 32.391C111.038 34.8968 112.159 36.3587 114.044 36.3587C115.93 36.3587 117.052 34.8968 117.052 32.391ZM121.342 26.6086H123.562V28.5768H123.615C123.925 27.3097 125.063 26.4377 126.343 26.4875C126.611 26.4866 126.878 26.5163 127.14 26.5761V28.7963C126.801 28.6908 126.448 28.6423 126.094 28.6529C125.41 28.6246 124.748 28.9027 124.282 29.4142C123.815 29.9256 123.592 30.6194 123.669 31.3133V38.1722H121.342L121.342 26.6086ZM137.87 34.7758C137.557 36.875 135.553 38.3157 132.988 38.3157C129.69 38.3157 127.643 36.0618 127.643 32.4459C127.643 28.8188 129.701 26.4664 132.89 26.4664C136.027 26.4664 138 28.6641 138 32.1702V32.9835H129.992V33.1269C129.917 33.9878 130.209 34.84 130.792 35.4666C131.376 36.0933 132.195 36.4341 133.042 36.4023C134.171 36.5102 135.236 35.8488 135.66 34.7758L137.87 34.7758ZM130.003 31.3246L135.671 31.3246C135.714 30.551 135.438 29.7945 134.91 29.2374C134.382 28.6803 133.65 28.3731 132.89 28.3897C132.125 28.385 131.389 28.6924 130.847 29.2436C130.305 29.7947 130.001 30.5439 130.003 31.3246ZM48.2565 10.3732C49.2445 10.3009 50.2123 10.6843 50.8934 11.4178C51.5745 12.1513 51.8971 13.1577 51.7726 14.16C51.7726 16.5947 50.4823 17.9942 48.2565 17.9942H45.5574V10.3732H48.2565ZM46.718 16.9164H48.1269C48.833 16.9595 49.5205 16.6758 49.9985 16.144C50.4766 15.6123 50.6943 14.8892 50.5912 14.1755C50.6868 13.4648 50.466 12.7476 49.9891 12.2202C49.5122 11.6928 48.8292 11.4104 48.1269 11.4502H46.718V16.9164ZM53.0836 15.116C52.9869 14.0851 53.4716 13.0874 54.3343 12.5414C55.1971 11.9954 56.2888 11.9954 57.1515 12.5414C58.0143 13.0874 58.499 14.0851 58.4023 15.116C58.5008 16.148 58.0166 17.1476 57.1531 17.6948C56.2895 18.242 55.1963 18.242 54.3328 17.6948C53.4693 17.1476 52.985 16.148 53.0836 15.116ZM57.2576 15.116C57.2576 13.8693 56.7085 13.1403 55.7448 13.1403C54.7774 13.1403 54.2332 13.8693 54.2332 15.116C54.2332 16.3726 54.7774 17.0961 55.7448 17.0961C56.7085 17.0961 57.2576 16.3676 57.2576 15.116ZM65.4723 17.9941H64.3178L63.1523 13.7583H63.0643L61.9037 17.9941H60.7602L59.2058 12.2428H60.3346L61.3448 16.6314H61.4279L62.5873 12.2428H63.655L64.8143 16.6314H64.9024L65.9077 12.2428H67.0206L65.4723 17.9941ZM68.3279 12.2428H69.3992V13.1565H69.4824C69.7716 12.4838 70.4474 12.0723 71.1652 12.1318C71.721 12.0892 72.2657 12.3066 72.6454 12.7228C73.0251 13.1389 73.1987 13.7086 73.1171 14.2709V17.994H72.0042V14.5559C72.0042 13.6317 71.6104 13.1721 70.7873 13.1721C70.4103 13.1542 70.0445 13.305 69.7856 13.5852C69.5268 13.8653 69.4009 14.2468 69.4408 14.6295V17.9941H68.3279L68.3279 12.2428ZM74.8904 9.99768H76.0033V17.9941H74.8904V9.99768ZM77.5503 15.116C77.4537 14.085 77.9385 13.0874 78.8013 12.5413C79.6641 11.9953 80.7559 11.9953 81.6187 12.5413C82.4815 13.0874 82.9663 14.085 82.8697 15.116C82.9681 16.148 82.4837 17.1476 81.6202 17.6948C80.7566 18.2419 79.6634 18.2419 78.7998 17.6948C77.9362 17.1476 77.4519 16.148 77.5503 15.116ZM81.7243 15.116C81.7243 13.8693 81.1752 13.1403 80.2115 13.1403C79.2442 13.1403 78.7 13.8693 78.7 15.116C78.7 16.3726 79.2442 17.0961 80.2115 17.0961C81.1752 17.0961 81.7243 16.3676 81.7243 15.116ZM84.0413 16.3676C84.0413 15.3324 84.7971 14.7356 86.1387 14.6507L87.6662 14.5609V14.0645C87.6662 13.4571 87.2724 13.1141 86.5117 13.1141C85.8904 13.1141 85.4599 13.3467 85.3364 13.7533H84.259C84.3727 12.7655 85.2838 12.1318 86.563 12.1318C87.9768 12.1318 88.7742 12.8496 88.7742 14.0645V17.9941H87.7028V17.1859H87.6148C87.2509 17.7761 86.6039 18.1211 85.921 18.0889C85.4423 18.1397 84.9648 17.9815 84.6067 17.6536C84.2486 17.3257 84.0432 16.8585 84.0413 16.3676ZM87.6662 15.8762V15.3954L86.2891 15.4852C85.5125 15.5382 85.1603 15.8076 85.1603 16.3146C85.1603 16.8322 85.6005 17.1335 86.206 17.1335C86.5644 17.1705 86.9221 17.0575 87.1974 16.8205C87.4726 16.5835 87.6418 16.2428 87.6662 15.8762ZM90.2368 15.116C90.2368 13.2987 91.1528 12.1474 92.5776 12.1474C93.297 12.1136 93.9708 12.5068 94.3069 13.1564H94.39V9.99768H95.5029V17.9941H94.4365V17.0854H94.3485C93.987 17.7297 93.3049 18.1162 92.5776 18.0889C91.1431 18.0889 90.2368 16.9377 90.2368 15.116ZM91.3865 15.116C91.3865 16.3358 91.9503 17.0699 92.8932 17.0699C93.8312 17.0699 94.4109 16.3252 94.4109 15.121C94.4109 13.9223 93.8251 13.1671 92.8932 13.1671C91.9563 13.1671 91.3865 13.9061 91.3865 15.116ZM100.107 15.116C100.011 14.0851 100.495 13.0874 101.358 12.5414C102.221 11.9954 103.313 11.9954 104.175 12.5414C105.038 13.0874 105.523 14.0851 105.426 15.116C105.525 16.148 105.04 17.1476 104.177 17.6948C103.313 18.242 102.22 18.242 101.357 17.6948C100.493 17.1476 100.009 16.148 100.107 15.116ZM104.281 15.116C104.281 13.8693 103.732 13.1403 102.769 13.1403C101.801 13.1403 101.257 13.8693 101.257 15.116C101.257 16.3726 101.801 17.0961 102.769 17.0961C103.732 17.0961 104.281 16.3676 104.281 15.116ZM106.919 12.2428H107.991V13.1565H108.074C108.363 12.4838 109.039 12.0723 109.757 12.1318C110.312 12.0892 110.857 12.3066 111.237 12.7228C111.617 13.1389 111.79 13.7086 111.709 14.2709V17.994H110.596V14.5559C110.596 13.6317 110.202 13.1721 109.379 13.1721C109.002 13.1542 108.636 13.305 108.377 13.5852C108.118 13.8653 107.992 14.2468 108.032 14.6295V17.9941H106.919V12.2428ZM117.997 10.8109V12.269H119.219V13.2251H117.997V16.1824C117.997 16.7849 118.24 17.0487 118.794 17.0487C118.936 17.0482 119.078 17.0395 119.219 17.0225V17.9679C119.019 18.0044 118.816 18.0238 118.613 18.0259C117.376 18.0259 116.883 17.5819 116.883 16.473V13.225H115.988V12.269H116.883V10.8109H117.997ZM120.739 9.99768H121.842V13.1671H121.93C122.233 12.4885 122.921 12.0765 123.65 12.1368C124.202 12.1061 124.739 12.3284 125.115 12.743C125.491 13.1576 125.665 13.7215 125.592 14.2809V17.9941H124.478V14.5609C124.478 13.6423 124.058 13.177 123.272 13.177C122.885 13.1446 122.503 13.2882 122.229 13.5693C121.956 13.8504 121.817 14.2405 121.852 14.6351V17.9941H120.739L120.739 9.99768ZM132.081 16.4412C131.769 17.5261 130.739 18.227 129.637 18.1051C128.885 18.1254 128.163 17.8075 127.661 17.2358C127.159 16.6642 126.93 15.8965 127.032 15.1366C126.932 14.3745 127.161 13.6056 127.66 13.0291C128.159 12.4526 128.879 12.1253 129.632 12.1318C131.201 12.1318 132.148 13.2251 132.148 15.0311V15.4272H128.166V15.4908C128.131 15.9176 128.274 16.3397 128.56 16.6534C128.846 16.9671 129.248 17.1432 129.668 17.1384C130.212 17.2051 130.742 16.9296 131.009 16.4412L132.081 16.4412ZM128.166 14.5877H131.014C131.043 14.1974 130.908 13.813 130.644 13.5293C130.379 13.2456 130.01 13.0889 129.626 13.0979C129.237 13.0929 128.863 13.2483 128.588 13.5288C128.313 13.8093 128.161 14.1912 128.166 14.5877ZM31.3136 26.1643C31.3165 28.8438 32.9255 31.262 35.4 32.3057C34.9241 33.8475 34.2067 35.3046 33.2745 36.623C32.0225 38.4907 30.7098 40.3155 28.6263 40.3492C26.6019 40.3958 25.9216 39.161 23.5996 39.161C21.2559 39.161 20.5307 40.3155 18.5891 40.3958C16.6049 40.4691 15.0885 38.4023 13.791 36.5521C11.1977 32.7736 9.17831 25.9036 11.8856 21.2291C13.1568 18.9508 15.5338 17.5051 18.1468 17.4209C20.1328 17.3801 21.9771 18.7585 23.1981 18.7585C24.3959 18.7585 26.6748 17.1097 29.0254 17.3557C31.2597 17.4254 33.3302 18.5417 34.6123 20.3679C32.5891 21.6084 31.3442 23.796 31.3136 26.1643ZM27.4898 14.8707C26.3876 16.2378 24.7177 17.0252 22.9589 17.0072C22.847 15.2931 23.423 13.6049 24.5599 12.3146C25.7112 11.0067 27.3144 10.1795 29.0499 9.99768C29.1854 11.7626 28.6258 13.5107 27.4898 14.8707Z" fill="#F1F5FB"/>
</svg>
