<svg width="26" height="26" viewBox="0 0 26 26" fill="none" xmlns="http://www.w3.org/2000/svg">
<g filter="url(#filter0_d_716_11218)">
<circle cx="13" cy="12" r="9.375" fill="#A855F7" stroke="#974DDE" stroke-width="1.25"/>
</g>
<path d="M18.5917 8.00834C18.5142 7.93023 18.4221 7.86824 18.3205 7.82593C18.219 7.78362 18.11 7.76184 18 7.76184C17.89 7.76184 17.7811 7.78362 17.6796 7.82593C17.578 7.86824 17.4858 7.93023 17.4084 8.00834L11.2 14.225L8.59171 11.6083C8.51127 11.5306 8.41632 11.4695 8.31227 11.4285C8.20823 11.3875 8.09713 11.3674 7.98531 11.3694C7.87349 11.3713 7.76315 11.3952 7.66058 11.4398C7.55802 11.4844 7.46524 11.5487 7.38754 11.6292C7.30984 11.7096 7.24875 11.8046 7.20774 11.9086C7.16674 12.0127 7.14663 12.1238 7.14856 12.2356C7.1505 12.3474 7.17444 12.4577 7.21902 12.5603C7.2636 12.6629 7.32794 12.7556 7.40837 12.8333L10.6084 16.0333C10.6858 16.1114 10.778 16.1734 10.8796 16.2157C10.9811 16.2581 11.09 16.2798 11.2 16.2798C11.31 16.2798 11.419 16.2581 11.5205 16.2157C11.6221 16.1734 11.7142 16.1114 11.7917 16.0333L18.5917 9.23334C18.6763 9.1553 18.7438 9.06059 18.79 8.95518C18.8361 8.84976 18.86 8.73592 18.86 8.62084C18.86 8.50575 18.8361 8.39192 18.79 8.2865C18.7438 8.18108 18.6763 8.08637 18.5917 8.00834V8.00834Z" fill="white"/>
<defs>
<filter id="filter0_d_716_11218" x="0.5" y="0.75" width="25" height="25" filterUnits="userSpaceOnUse" color-interpolation-filters="sRGB">
<feFlood flood-opacity="0" result="BackgroundImageFix"/>
<feColorMatrix in="SourceAlpha" type="matrix" values="0 0 0 0 0 0 0 0 0 0 0 0 0 0 0 0 0 0 127 0" result="hardAlpha"/>
<feOffset dy="1.25"/>
<feGaussianBlur stdDeviation="1.25"/>
<feColorMatrix type="matrix" values="0 0 0 0 0 0 0 0 0 0 0 0 0 0 0 0 0 0 0.05 0"/>
<feBlend mode="normal" in2="BackgroundImageFix" result="effect1_dropShadow_716_11218"/>
<feBlend mode="normal" in="SourceGraphic" in2="effect1_dropShadow_716_11218" result="shape"/>
</filter>
</defs>
</svg>
