<svg width="219" height="219" viewBox="0 0 219 219" fill="none" xmlns="http://www.w3.org/2000/svg">
<mask id="mask0_1384_23092" style="mask-type:alpha" maskUnits="userSpaceOnUse" x="0" y="0" width="219" height="219">
<circle cx="109.5" cy="109.5" r="107.99" fill="#C4C4C4" stroke="#F8BB54" stroke-width="3.02069"/>
</mask>
<g mask="url(#mask0_1384_23092)">
<path d="M-63.6362 45.9222C-63.6362 45.9222 -12.6466 36.4768 0.509327 3.4183C13.0912 -28.272 64.9198 -36.7901 64.9198 -36.7901" stroke="#F8BB54" stroke-width="3.39535" stroke-miterlimit="10"/>
<path d="M-63.6362 61.8111C-63.6362 61.8111 -1.07997 50.9095 15.0337 11.0099C30.3968 -27.0802 93.9243 -36.7901 93.9243 -36.7901" stroke="#F8BB54" stroke-width="3.39535" stroke-miterlimit="10"/>
<path d="M-63.6362 77.7446C-63.6362 77.7446 10.4424 65.3422 29.5139 18.6897C47.7024 -25.9325 122.929 -36.7901 122.929 -36.7901" stroke="#F8BB54" stroke-width="3.39535" stroke-miterlimit="10"/>
<path d="M-63.6362 93.6339C-63.6362 93.6339 22.0089 79.775 44.0382 26.2813C65.0081 -24.7408 151.934 -36.7901 151.934 -36.7901" stroke="#F8BB54" stroke-width="3.39535" stroke-miterlimit="10"/>
<path d="M-63.6362 109.523C-63.6362 109.523 33.5754 94.2078 58.5626 33.9168C82.3136 -23.5491 180.894 -36.7901 180.894 -36.7901" stroke="#F8BB54" stroke-width="3.39535" stroke-miterlimit="10"/>
<path d="M-63.6362 125.456C-63.6362 125.456 45.0978 108.684 73.0428 41.5524C99.6633 -22.4017 209.898 -36.7901 209.898 -36.7901" stroke="#F8BB54" stroke-width="3.39535" stroke-miterlimit="10"/>
<path d="M-63.6362 141.346C-63.6362 141.346 56.6643 123.073 87.5672 49.1882C116.969 -21.21 238.903 -36.7901 238.903 -36.7901" stroke="#F8BB54" stroke-width="3.39535" stroke-miterlimit="10"/>
<path d="M-63.6362 157.235C-63.6362 157.235 68.2309 137.506 102.047 56.7798C134.275 -20.0182 267.908 -36.7901 267.908 -36.7901" stroke="#F8BB54" stroke-width="3.39535" stroke-miterlimit="10"/>
<path d="M-63.6362 173.168C-63.6362 173.168 79.753 151.983 116.572 64.4593C151.58 -18.8708 296.868 -36.7901 296.868 -36.7901" stroke="#F8BB54" stroke-width="3.39535" stroke-miterlimit="10"/>
<path d="M-63.6362 189.056C-63.6362 189.056 91.3198 166.416 131.052 72.0952C168.886 -17.6791 325.873 -36.7901 325.873 -36.7901" stroke="#F8BB54" stroke-width="3.39535" stroke-miterlimit="10"/>
<path d="M-63.6362 204.99C-63.6362 204.99 102.886 180.848 145.576 79.7307C186.192 -16.4874 354.877 -36.7901 354.877 -36.7901" stroke="#F8BB54" stroke-width="3.39535" stroke-miterlimit="10"/>
<path d="M-63.6362 220.881C-63.6362 220.881 114.409 195.281 160.057 87.3666C203.497 -15.3397 383.881 -36.7901 383.881 -36.7901" stroke="#F8BB54" stroke-width="3.39535" stroke-miterlimit="10"/>
<path d="M-63.6362 236.768C-63.6362 236.768 125.975 209.714 174.581 94.9578C220.803 -14.148 412.885 -36.7901 412.885 -36.7901" stroke="#F8BB54" stroke-width="3.39535" stroke-miterlimit="10"/>
<path d="M-63.6362 252.701C-63.6362 252.701 137.542 224.147 189.105 102.638C238.108 -12.9563 441.847 -36.7901 441.847 -36.7901" stroke="#F8BB54" stroke-width="3.39535" stroke-miterlimit="10"/>
<path d="M-63.6362 268.592C-63.6362 268.592 149.064 238.579 203.585 110.229C255.414 -11.8088 470.851 -36.7901 470.851 -36.7901" stroke="#F8BB54" stroke-width="3.39535" stroke-miterlimit="10"/>
<path d="M-63.6362 284.482C-63.6362 284.482 160.631 253.012 218.11 117.865C272.72 -10.6171 499.856 -36.7901 499.856 -36.7901" stroke="#F8BB54" stroke-width="3.39535" stroke-miterlimit="10"/>
<path d="M-63.6362 300.416C-63.6362 300.416 172.197 267.488 232.59 125.501C290.025 -9.42541 528.86 -36.7901 528.86 -36.7901" stroke="#F8BB54" stroke-width="3.39535" stroke-miterlimit="10"/>
<path d="M-63.6362 316.303C-63.6362 316.303 183.719 281.878 247.114 133.136C307.331 -8.27801 557.822 -36.7901 557.822 -36.7901" stroke="#F8BB54" stroke-width="3.39535" stroke-miterlimit="10"/>
</g>
</svg>
