<svg width="311" height="311" viewBox="0 0 311 311" fill="none" xmlns="http://www.w3.org/2000/svg">
<mask id="mask0_613_17217" style="mask-type:alpha" maskUnits="userSpaceOnUse" x="0" y="0" width="311" height="311">
<circle cx="155.5" cy="155.5" r="153.355" fill="#C4C4C4" stroke="#F8BB54" stroke-width="4.28966"/>
</mask>
<g mask="url(#mask0_613_17217)">
<path d="M-90.3694 65.2137C-90.3694 65.2137 -17.9595 51.8004 0.723164 4.85428C18.5906 -40.1488 92.1919 -52.2454 92.1919 -52.2454" stroke="#F8BB54" stroke-width="2" stroke-miterlimit="10"/>
<path d="M-90.3694 87.7774C-90.3694 87.7774 -1.53378 72.2961 21.3491 15.635C43.1661 -38.4564 133.381 -52.2454 133.381 -52.2454" stroke="#F8BB54" stroke-width="2" stroke-miterlimit="10"/>
<path d="M-90.3694 110.404C-90.3694 110.404 14.829 92.7919 41.9123 26.541C67.7417 -36.8265 174.57 -52.2454 174.57 -52.2454" stroke="#F8BB54" stroke-width="2" stroke-miterlimit="10"/>
<path d="M-90.3694 132.969C-90.3694 132.969 31.2545 113.288 62.5382 37.3218C92.3173 -35.1342 215.759 -52.2454 215.759 -52.2454" stroke="#F8BB54" stroke-width="2" stroke-miterlimit="10"/>
<path d="M-90.3694 155.533C-90.3694 155.533 47.68 133.784 83.1641 48.165C116.893 -33.4419 256.886 -52.2454 256.886 -52.2454" stroke="#F8BB54" stroke-width="2" stroke-miterlimit="10"/>
<path d="M-90.3694 178.159C-90.3694 178.159 64.0428 154.342 103.727 59.0081C141.531 -31.8124 298.075 -52.2454 298.075 -52.2454" stroke="#F8BB54" stroke-width="2" stroke-miterlimit="10"/>
<path d="M-90.3694 200.724C-90.3694 200.724 80.4683 174.775 124.353 69.8517C166.107 -30.1201 339.264 -52.2454 339.264 -52.2454" stroke="#F8BB54" stroke-width="2" stroke-miterlimit="10"/>
<path d="M-90.3694 223.288C-90.3694 223.288 96.894 195.271 144.916 80.6325C190.682 -28.4278 380.453 -52.2454 380.453 -52.2454" stroke="#F8BB54" stroke-width="2" stroke-miterlimit="10"/>
<path d="M-90.3694 245.915C-90.3694 245.915 113.256 215.829 165.542 91.5381C215.258 -26.7983 421.58 -52.2454 421.58 -52.2454" stroke="#F8BB54" stroke-width="2" stroke-miterlimit="10"/>
<path d="M-90.3694 268.477C-90.3694 268.477 129.682 236.325 186.106 102.382C239.833 -25.106 462.769 -52.2454 462.769 -52.2454" stroke="#F8BB54" stroke-width="2" stroke-miterlimit="10"/>
<path d="M-90.3694 291.104C-90.3694 291.104 146.108 256.821 206.732 113.225C264.409 -23.4137 503.958 -52.2454 503.958 -52.2454" stroke="#F8BB54" stroke-width="2" stroke-miterlimit="10"/>
<path d="M-90.3694 313.67C-90.3694 313.67 162.47 277.317 227.295 124.069C288.984 -21.7838 545.146 -52.2454 545.146 -52.2454" stroke="#F8BB54" stroke-width="2" stroke-miterlimit="10"/>
<path d="M-90.3694 336.232C-90.3694 336.232 178.896 297.813 247.921 134.849C313.56 -20.0914 586.335 -52.2454 586.335 -52.2454" stroke="#F8BB54" stroke-width="2" stroke-miterlimit="10"/>
<path d="M-90.3694 358.859C-90.3694 358.859 195.322 318.309 268.547 145.755C338.135 -18.3991 627.463 -52.2454 627.463 -52.2454" stroke="#F8BB54" stroke-width="2" stroke-miterlimit="10"/>
<path d="M-90.3694 381.425C-90.3694 381.425 211.684 338.804 289.11 156.536C362.711 -16.7696 668.652 -52.2454 668.652 -52.2454" stroke="#F8BB54" stroke-width="2" stroke-miterlimit="10"/>
<path d="M-90.3694 403.991C-90.3694 403.991 228.11 359.3 309.736 167.379C387.287 -15.0773 709.841 -52.2454 709.841 -52.2454" stroke="#F8BB54" stroke-width="2" stroke-miterlimit="10"/>
<path d="M-90.3694 426.618C-90.3694 426.618 244.535 379.857 330.299 178.222C411.862 -13.385 751.03 -52.2454 751.03 -52.2454" stroke="#F8BB54" stroke-width="2" stroke-miterlimit="10"/>
<path d="M-90.3694 449.18C-90.3694 449.18 260.898 400.292 350.925 189.066C436.438 -11.7555 792.158 -52.2454 792.158 -52.2454" stroke="#F8BB54" stroke-width="2" stroke-miterlimit="10"/>
</g>
</svg>
