<svg width="199" height="149" viewBox="0 0 199 149" fill="none" xmlns="http://www.w3.org/2000/svg">
<g clip-path="url(#clip0_1384_29770)">
<path d="M198.91 2.64064C198.91 1.18261 197.728 0.00064069 196.27 0.000640754C194.812 0.000640817 193.63 1.18261 193.63 2.64064C193.63 4.09867 194.812 5.28064 196.27 5.28064C197.728 5.28064 198.91 4.09867 198.91 2.64064Z" fill="#F59E0B"/>
<path d="M198.91 26.5801C198.91 25.1221 197.728 23.9401 196.27 23.9401C194.812 23.9401 193.63 25.1221 193.63 26.5801C193.63 28.0381 194.812 29.2201 196.27 29.2201C197.728 29.2201 198.91 28.0381 198.91 26.5801Z" fill="#F59E0B"/>
<path d="M198.91 50.5098C198.912 49.9852 198.759 49.4719 198.469 49.0348C198.179 48.5977 197.765 48.2564 197.281 48.0543C196.797 47.8522 196.264 47.7983 195.75 47.8994C195.235 48.0005 194.762 48.2521 194.39 48.6223C194.018 48.9925 193.765 49.4647 193.662 49.979C193.559 50.4933 193.611 51.0267 193.811 51.5115C194.011 51.9963 194.351 52.4108 194.787 52.7024C195.223 52.994 195.736 53.1498 196.26 53.1498C196.961 53.1498 197.634 52.8719 198.131 52.3771C198.627 51.8823 198.908 51.2109 198.91 50.5098V50.5098Z" fill="#F59E0B"/>
<path d="M198.91 74.4402C198.91 73.9161 198.755 73.4037 198.464 72.9679C198.173 72.5321 197.759 72.1925 197.274 71.9919C196.79 71.7914 196.257 71.7389 195.743 71.8412C195.229 71.9434 194.757 72.1958 194.387 72.5664C194.016 72.937 193.764 73.4092 193.661 73.9232C193.559 74.4373 193.612 74.9701 193.812 75.4543C194.013 75.9386 194.352 76.3524 194.788 76.6436C195.224 76.9347 195.736 77.0902 196.26 77.0902C196.608 77.0902 196.953 77.0217 197.274 76.8885C197.596 76.7554 197.888 76.5602 198.134 76.3141C198.38 76.068 198.576 75.7759 198.709 75.4543C198.842 75.1328 198.91 74.7882 198.91 74.4402V74.4402Z" fill="#F59E0B"/>
<path d="M198.91 98.3799C198.91 96.9219 197.728 95.7399 196.27 95.7399C194.812 95.7399 193.63 96.9219 193.63 98.3799C193.63 99.8379 194.812 101.02 196.27 101.02C197.728 101.02 198.91 99.8379 198.91 98.3799Z" fill="#F59E0B"/>
<path d="M198.595 121.3C198.041 119.951 196.498 119.308 195.15 119.862C193.801 120.417 193.157 121.959 193.712 123.308C194.266 124.656 195.809 125.3 197.157 124.746C198.506 124.191 199.15 122.648 198.595 121.3Z" fill="#F59E0B"/>
<path d="M193.66 146.24C193.658 146.765 193.812 147.278 194.103 147.716C194.393 148.153 194.807 148.494 195.291 148.696C195.776 148.898 196.31 148.951 196.825 148.849C197.34 148.747 197.813 148.495 198.184 148.124C198.555 147.752 198.808 147.279 198.91 146.764C199.012 146.249 198.958 145.716 198.756 145.231C198.555 144.746 198.214 144.333 197.776 144.042C197.339 143.752 196.825 143.598 196.3 143.6C195.601 143.602 194.931 143.881 194.436 144.376C193.942 144.87 193.663 145.54 193.66 146.24V146.24Z" fill="#F59E0B"/>
<path d="M177.5 2.64064C177.5 1.18261 176.318 0.00064069 174.86 0.000640754C173.402 0.000640817 172.22 1.18261 172.22 2.64064C172.22 4.09867 173.402 5.28064 174.86 5.28064C176.318 5.28064 177.5 4.09867 177.5 2.64064Z" fill="#F59E0B"/>
<path d="M177.5 26.5801C177.5 25.1221 176.318 23.9401 174.86 23.9401C173.402 23.9401 172.22 25.1221 172.22 26.5801C172.22 28.0381 173.402 29.2201 174.86 29.2201C176.318 29.2201 177.5 28.0381 177.5 26.5801Z" fill="#F59E0B"/>
<path d="M177.5 50.5097C177.502 49.9848 177.348 49.471 177.058 49.0337C176.767 48.5964 176.354 48.2551 175.869 48.0533C175.384 47.8515 174.851 47.7982 174.336 47.9001C173.821 48.0021 173.348 48.2546 172.976 48.6258C172.605 48.997 172.353 49.4702 172.251 49.9852C172.149 50.5002 172.202 51.0338 172.404 51.5184C172.606 52.003 172.947 52.4168 173.384 52.7073C173.821 52.9977 174.335 53.1517 174.86 53.1498C175.56 53.1471 176.229 52.868 176.724 52.3735C177.219 51.879 177.498 51.2091 177.5 50.5097V50.5097Z" fill="#F59E0B"/>
<path d="M177.5 74.4402C177.5 73.9156 177.345 73.4029 177.053 72.9669C176.761 72.5309 176.347 72.1912 175.862 71.9909C175.377 71.7907 174.844 71.7388 174.329 71.8419C173.815 71.945 173.343 72.1983 172.973 72.5699C172.603 72.9415 172.351 73.4147 172.25 73.9294C172.149 74.4441 172.203 74.9772 172.405 75.4613C172.607 75.9453 172.948 76.3584 173.385 76.6484C173.822 76.9384 174.336 77.0922 174.86 77.0902C175.208 77.0902 175.552 77.0216 175.873 76.8883C176.194 76.755 176.485 76.5597 176.73 76.3135C176.976 76.0673 177.17 75.775 177.302 75.4536C177.434 75.1321 177.502 74.7877 177.5 74.4402V74.4402Z" fill="#F59E0B"/>
<path d="M177.5 98.3799C177.5 96.9219 176.318 95.7399 174.86 95.7399C173.402 95.7399 172.22 96.9219 172.22 98.3799C172.22 99.8379 173.402 101.02 174.86 101.02C176.318 101.02 177.5 99.8379 177.5 98.3799Z" fill="#F59E0B"/>
<path d="M177.193 121.298C176.639 119.949 175.096 119.306 173.747 119.86C172.399 120.415 171.755 121.957 172.31 123.306C172.864 124.654 174.407 125.298 175.755 124.744C177.104 124.189 177.747 122.646 177.193 121.298Z" fill="#F59E0B"/>
<path d="M177.5 146.24C177.5 145.715 177.345 145.203 177.053 144.767C176.761 144.331 176.347 143.991 175.862 143.791C175.377 143.59 174.844 143.539 174.329 143.642C173.815 143.745 173.343 143.998 172.973 144.37C172.603 144.741 172.351 145.214 172.25 145.729C172.149 146.244 172.203 146.777 172.405 147.261C172.607 147.745 172.948 148.158 173.385 148.448C173.822 148.738 174.336 148.892 174.86 148.89C175.208 148.89 175.552 148.821 175.873 148.688C176.194 148.555 176.485 148.359 176.73 148.113C176.976 147.867 177.17 147.575 177.302 147.253C177.434 146.932 177.502 146.588 177.5 146.24Z" fill="#F59E0B"/>
<path d="M156.09 2.64064C156.09 1.18261 154.908 0.00064069 153.45 0.000640754C151.992 0.000640817 150.81 1.18261 150.81 2.64064C150.81 4.09867 151.992 5.28064 153.45 5.28064C154.908 5.28064 156.09 4.09867 156.09 2.64064Z" fill="#F59E0B"/>
<path d="M156.09 26.5801C156.09 25.1221 154.908 23.9401 153.45 23.9401C151.992 23.9401 150.81 25.1221 150.81 26.5801C150.81 28.0381 151.992 29.2201 153.45 29.2201C154.908 29.2201 156.09 28.0381 156.09 26.5801Z" fill="#F59E0B"/>
<path d="M156.1 50.5098C156.102 49.9852 155.948 49.4719 155.658 49.0348C155.368 48.5977 154.955 48.2564 154.471 48.0543C153.987 47.8522 153.454 47.7983 152.939 47.8994C152.424 48.0005 151.951 48.2521 151.58 48.6223C151.208 48.9925 150.955 49.4647 150.851 49.979C150.748 50.4933 150.8 51.0267 151.001 51.5115C151.201 51.9963 151.541 52.4108 151.977 52.7024C152.413 52.994 152.925 53.1498 153.45 53.1498C154.151 53.1498 154.823 52.8719 155.32 52.3771C155.817 51.8823 156.097 51.2109 156.1 50.5098V50.5098Z" fill="#F59E0B"/>
<path d="M156.1 74.4402C156.1 73.9161 155.944 73.4037 155.653 72.9679C155.362 72.5321 154.948 72.1925 154.464 71.9919C153.98 71.7914 153.447 71.7389 152.933 71.8412C152.419 71.9434 151.947 72.1958 151.576 72.5664C151.205 72.937 150.953 73.4092 150.851 73.9232C150.748 74.4373 150.801 74.9701 151.002 75.4543C151.202 75.9386 151.542 76.3524 151.978 76.6436C152.413 76.9347 152.926 77.0902 153.45 77.0902C153.798 77.0902 154.142 77.0217 154.464 76.8885C154.785 76.7554 155.078 76.5602 155.324 76.3141C155.57 76.068 155.765 75.7759 155.898 75.4543C156.031 75.1328 156.1 74.7882 156.1 74.4402V74.4402Z" fill="#F59E0B"/>
<path d="M156.09 98.3799C156.09 96.9219 154.908 95.7399 153.45 95.7399C151.992 95.7399 150.81 96.9219 150.81 98.3799C150.81 99.8379 151.992 101.02 153.45 101.02C154.908 101.02 156.09 99.8379 156.09 98.3799Z" fill="#F59E0B"/>
<path d="M155.792 121.299C155.237 119.95 153.694 119.307 152.346 119.861C150.997 120.416 150.354 121.958 150.908 123.307C151.463 124.655 153.005 125.299 154.354 124.745C155.702 124.19 156.346 122.647 155.792 121.299Z" fill="#F59E0B"/>
<path d="M156.1 146.24C156.1 145.716 155.944 145.203 155.653 144.768C155.362 144.332 154.948 143.992 154.464 143.792C153.98 143.591 153.447 143.539 152.933 143.641C152.419 143.743 151.947 143.995 151.576 144.366C151.205 144.737 150.953 145.209 150.851 145.723C150.748 146.237 150.801 146.77 151.002 147.254C151.202 147.738 151.542 148.152 151.978 148.443C152.413 148.735 152.926 148.89 153.45 148.89C154.153 148.89 154.827 148.611 155.324 148.114C155.821 147.617 156.1 146.943 156.1 146.24V146.24Z" fill="#F59E0B"/>
<path d="M134.69 2.64064C134.69 1.18261 133.508 0.00064069 132.05 0.000640754C130.592 0.000640817 129.41 1.18261 129.41 2.64064C129.41 4.09867 130.592 5.28064 132.05 5.28064C133.508 5.28064 134.69 4.09867 134.69 2.64064Z" fill="#F59E0B"/>
<path d="M134.69 26.5801C134.69 25.1221 133.508 23.9401 132.05 23.9401C130.592 23.9401 129.41 25.1221 129.41 26.5801C129.41 28.0381 130.592 29.2201 132.05 29.2201C133.508 29.2201 134.69 28.0381 134.69 26.5801Z" fill="#F59E0B"/>
<path d="M134.66 50.5097C134.662 49.9848 134.508 49.471 134.218 49.0337C133.927 48.5964 133.514 48.2551 133.029 48.0533C132.544 47.8515 132.011 47.7982 131.496 47.9001C130.981 48.0021 130.508 48.2546 130.137 48.6258C129.765 48.997 129.513 49.4702 129.411 49.9852C129.309 50.5002 129.362 51.0338 129.564 51.5184C129.766 52.003 130.107 52.4168 130.544 52.7073C130.982 52.9977 131.495 53.1517 132.02 53.1498C132.72 53.1471 133.39 52.868 133.884 52.3735C134.379 51.879 134.658 51.2091 134.66 50.5097V50.5097Z" fill="#F59E0B"/>
<path d="M134.66 74.4402C134.66 73.9156 134.505 73.4029 134.213 72.9669C133.921 72.5309 133.507 72.1912 133.022 71.9909C132.537 71.7907 132.004 71.7388 131.49 71.8419C130.975 71.945 130.503 72.1983 130.133 72.5699C129.763 72.9415 129.511 73.4147 129.41 73.9294C129.309 74.4441 129.363 74.9772 129.565 75.4613C129.767 75.9453 130.108 76.3584 130.545 76.6484C130.982 76.9384 131.496 77.0922 132.02 77.0902C132.368 77.0902 132.712 77.0216 133.033 76.8883C133.354 76.755 133.645 76.5597 133.891 76.3135C134.136 76.0673 134.33 75.775 134.462 75.4536C134.594 75.1321 134.662 74.7877 134.66 74.4402V74.4402Z" fill="#F59E0B"/>
<path d="M134.69 98.3799C134.69 96.9219 133.508 95.7399 132.05 95.7399C130.592 95.7399 129.41 96.9219 129.41 98.3799C129.41 99.8379 130.592 101.02 132.05 101.02C133.508 101.02 134.69 99.8379 134.69 98.3799Z" fill="#F59E0B"/>
<path d="M134.389 121.296C133.835 119.947 132.292 119.304 130.944 119.858C129.595 120.413 128.951 121.955 129.506 123.304C130.06 124.652 131.603 125.296 132.951 124.742C134.3 124.187 134.944 122.644 134.389 121.296Z" fill="#F59E0B"/>
<path d="M134.66 146.24C134.66 145.715 134.505 145.203 134.213 144.767C133.921 144.331 133.507 143.991 133.022 143.791C132.537 143.59 132.004 143.539 131.49 143.642C130.975 143.745 130.503 143.998 130.133 144.37C129.763 144.741 129.511 145.214 129.41 145.729C129.309 146.244 129.363 146.777 129.565 147.261C129.767 147.745 130.108 148.158 130.545 148.448C130.982 148.738 131.496 148.892 132.02 148.89C132.368 148.89 132.712 148.821 133.033 148.688C133.354 148.555 133.645 148.359 133.891 148.113C134.136 147.867 134.33 147.575 134.462 147.253C134.594 146.932 134.662 146.588 134.66 146.24V146.24Z" fill="#F59E0B"/>
<path d="M113.28 2.64064C113.28 1.18261 112.098 0.00064069 110.64 0.000640754C109.182 0.000640817 108 1.18261 108 2.64064C108 4.09867 109.182 5.28064 110.64 5.28064C112.098 5.28064 113.28 4.09867 113.28 2.64064Z" fill="#F59E0B"/>
<path d="M113.28 26.58C113.28 25.122 112.098 23.94 110.64 23.94C109.182 23.94 108 25.122 108 26.58C108 28.0381 109.182 29.22 110.64 29.22C112.098 29.22 113.28 28.0381 113.28 26.58Z" fill="#F59E0B"/>
<path d="M113.29 50.5098C113.292 49.9852 113.139 49.4719 112.849 49.0348C112.559 48.5977 112.145 48.2564 111.661 48.0543C111.177 47.8522 110.644 47.7983 110.129 47.8994C109.615 48.0005 109.142 48.2521 108.77 48.6223C108.398 48.9925 108.145 49.4647 108.042 49.979C107.939 50.4933 107.991 51.0267 108.191 51.5115C108.391 51.9963 108.731 52.4108 109.167 52.7024C109.603 52.994 110.116 53.1498 110.64 53.1498C111.341 53.1498 112.014 52.8719 112.511 52.3771C113.007 51.8823 113.288 51.2109 113.29 50.5098V50.5098Z" fill="#F59E0B"/>
<path d="M113.29 74.4402C113.29 73.9161 113.135 73.4037 112.844 72.9679C112.552 72.5321 112.139 72.1925 111.654 71.9919C111.17 71.7914 110.637 71.7389 110.123 71.8412C109.609 71.9434 109.137 72.1958 108.766 72.5664C108.396 72.937 108.143 73.4092 108.041 73.9232C107.939 74.4373 107.991 74.9701 108.192 75.4543C108.393 75.9386 108.732 76.3524 109.168 76.6436C109.604 76.9347 110.116 77.0902 110.64 77.0902C110.988 77.0902 111.333 77.0217 111.654 76.8885C111.976 76.7554 112.268 76.5602 112.514 76.3141C112.76 76.068 112.955 75.7759 113.089 75.4543C113.222 75.1328 113.29 74.7882 113.29 74.4402V74.4402Z" fill="#F59E0B"/>
<path d="M113.28 98.3799C113.28 96.9219 112.098 95.7399 110.64 95.7399C109.182 95.7399 108 96.9219 108 98.3799C108 99.8379 109.182 101.02 110.64 101.02C112.098 101.02 113.28 99.8379 113.28 98.3799Z" fill="#F59E0B"/>
<path d="M112.977 121.298C112.423 119.949 110.88 119.306 109.531 119.86C108.183 120.415 107.539 121.957 108.094 123.306C108.648 124.654 110.191 125.298 111.539 124.744C112.888 124.189 113.532 122.646 112.977 121.298Z" fill="#F59E0B"/>
<path d="M113.29 146.24C113.29 145.716 113.135 145.203 112.844 144.768C112.552 144.332 112.139 143.992 111.654 143.792C111.17 143.591 110.637 143.539 110.123 143.641C109.609 143.743 109.137 143.995 108.766 144.366C108.396 144.737 108.143 145.209 108.041 145.723C107.939 146.237 107.991 146.77 108.192 147.254C108.393 147.738 108.732 148.152 109.168 148.443C109.604 148.735 110.116 148.89 110.64 148.89C111.343 148.89 112.017 148.611 112.514 148.114C113.011 147.617 113.29 146.943 113.29 146.24V146.24Z" fill="#F59E0B"/>
</g>
<g clip-path="url(#clip1_1384_29770)">
<path d="M90.9099 2.64064C90.9099 1.18261 89.7279 0.00064069 88.2699 0.000640754C86.8119 0.000640817 85.6299 1.18261 85.6299 2.64064C85.6299 4.09867 86.8119 5.28064 88.2699 5.28064C89.7279 5.28064 90.9099 4.09867 90.9099 2.64064Z" fill="#F59E0B"/>
<path d="M90.9099 26.5801C90.9099 25.1221 89.7279 23.9401 88.2699 23.9401C86.8119 23.9401 85.6299 25.1221 85.6299 26.5801C85.6299 28.0381 86.8119 29.2201 88.2699 29.2201C89.7279 29.2201 90.9099 28.0381 90.9099 26.5801Z" fill="#F59E0B"/>
<path d="M90.9104 50.5098C90.9123 49.9852 90.7586 49.4719 90.4686 49.0348C90.1787 48.5977 89.7654 48.2564 89.2814 48.0543C88.7973 47.8522 88.2642 47.7983 87.7495 47.8994C87.2348 48.0005 86.7617 48.2521 86.3901 48.6223C86.0185 48.9925 85.7651 49.4647 85.662 49.979C85.5589 50.4933 85.6108 51.0267 85.8111 51.5115C86.0114 51.9963 86.3511 52.4108 86.7871 52.7024C87.2231 52.994 87.7358 53.1498 88.2603 53.1498C88.9614 53.1498 89.6339 52.8719 90.1306 52.3771C90.6273 51.8823 90.9077 51.2109 90.9104 50.5098V50.5098Z" fill="#F59E0B"/>
<path d="M90.9104 74.4402C90.9104 73.9161 90.7549 73.4037 90.4638 72.9679C90.1726 72.5321 89.7587 72.1925 89.2745 71.9919C88.7903 71.7914 88.2574 71.7389 87.7434 71.8412C87.2293 71.9434 86.7572 72.1958 86.3865 72.5664C86.0159 72.937 85.7635 73.4092 85.6613 73.9232C85.559 74.4373 85.6115 74.9701 85.8121 75.4543C86.0127 75.9386 86.3523 76.3524 86.7881 76.6436C87.2239 76.9347 87.7362 77.0902 88.2603 77.0902C88.6083 77.0902 88.953 77.0217 89.2745 76.8885C89.596 76.7554 89.8881 76.5602 90.1342 76.3141C90.3802 76.068 90.5755 75.7759 90.7087 75.4543C90.8419 75.1328 90.9104 74.7882 90.9104 74.4402V74.4402Z" fill="#F59E0B"/>
<path d="M90.9099 98.3799C90.9099 96.9219 89.7279 95.7399 88.2699 95.7399C86.8119 95.7399 85.6299 96.9219 85.6299 98.3799C85.6299 99.8379 86.8119 101.02 88.2699 101.02C89.7279 101.02 90.9099 99.8379 90.9099 98.3799Z" fill="#F59E0B"/>
<path d="M90.5952 121.3C90.0408 119.951 88.4982 119.308 87.1497 119.862C85.8012 120.417 85.1575 121.959 85.7119 123.308C86.2664 124.656 87.809 125.3 89.1575 124.746C90.506 124.191 91.1497 122.648 90.5952 121.3Z" fill="#F59E0B"/>
<path d="M85.6602 146.24C85.6582 146.765 85.8122 147.278 86.1026 147.716C86.393 148.153 86.8068 148.494 87.2915 148.696C87.7761 148.898 88.3097 148.951 88.8247 148.849C89.3397 148.747 89.8128 148.495 90.184 148.124C90.5552 147.752 90.8078 147.279 90.9097 146.764C91.0116 146.249 90.9583 145.716 90.7565 145.231C90.5547 144.746 90.2135 144.333 89.7762 144.042C89.3389 143.752 88.8252 143.598 88.3002 143.6C87.6008 143.602 86.9308 143.881 86.4363 144.376C85.9418 144.87 85.6628 145.54 85.6602 146.24V146.24Z" fill="#F59E0B"/>
<path d="M69.4997 2.64064C69.4997 1.18261 68.3178 0.00064069 66.8597 0.000640754C65.4017 0.000640817 64.2197 1.18261 64.2197 2.64064C64.2197 4.09867 65.4017 5.28064 66.8597 5.28064C68.3178 5.28064 69.4997 4.09867 69.4997 2.64064Z" fill="#F59E0B"/>
<path d="M69.4997 26.5801C69.4997 25.1221 68.3178 23.9401 66.8597 23.9401C65.4017 23.9401 64.2197 25.1221 64.2197 26.5801C64.2197 28.0381 65.4017 29.2201 66.8597 29.2201C68.3178 29.2201 69.4997 28.0381 69.4997 26.5801Z" fill="#F59E0B"/>
<path d="M69.5002 50.5097C69.5022 49.9848 69.3482 49.471 69.0578 49.0337C68.7673 48.5964 68.3535 48.2551 67.8689 48.0533C67.3843 47.8515 66.8506 47.7982 66.3357 47.9001C65.8207 48.0021 65.3475 48.2546 64.9763 48.6258C64.6051 48.997 64.3526 49.4702 64.2506 49.9852C64.1487 50.5002 64.202 51.0338 64.4038 51.5184C64.6056 52.003 64.9469 52.4168 65.3842 52.7073C65.8215 52.9977 66.3352 53.1517 66.8602 53.1498C67.5595 53.1471 68.2295 52.868 68.724 52.3735C69.2185 51.879 69.4976 51.2091 69.5002 50.5097V50.5097Z" fill="#F59E0B"/>
<path d="M69.5002 74.4402C69.5002 73.9156 69.3445 73.4029 69.0529 72.9669C68.7612 72.5309 68.3468 72.1912 67.862 71.9909C67.3772 71.7907 66.8438 71.7388 66.3295 71.8419C65.8152 71.945 65.343 72.1983 64.9728 72.5699C64.6026 72.9415 64.351 73.4147 64.2499 73.9294C64.1488 74.4441 64.2027 74.9772 64.4048 75.4613C64.6069 75.9453 64.9481 76.3584 65.3852 76.6484C65.8223 76.9384 66.3356 77.0922 66.8602 77.0902C67.2077 77.0902 67.5518 77.0216 67.8728 76.8883C68.1937 76.755 68.4852 76.5597 68.7305 76.3135C68.9758 76.0673 69.17 75.775 69.3021 75.4536C69.4342 75.1321 69.5015 74.7877 69.5002 74.4402V74.4402Z" fill="#F59E0B"/>
<path d="M69.4997 98.3799C69.4997 96.9219 68.3178 95.7399 66.8597 95.7399C65.4017 95.7399 64.2197 96.9219 64.2197 98.3799C64.2197 99.8379 65.4017 101.02 66.8597 101.02C68.3178 101.02 69.4997 99.8379 69.4997 98.3799Z" fill="#F59E0B"/>
<path d="M69.193 121.298C68.6385 119.949 67.0959 119.306 65.7474 119.86C64.3989 120.415 63.7551 121.957 64.3096 123.306C64.864 124.654 66.4067 125.298 67.7552 124.744C69.1037 124.189 69.7474 122.646 69.193 121.298Z" fill="#F59E0B"/>
<path d="M69.5002 146.24C69.5002 145.715 69.3445 145.203 69.0529 144.767C68.7612 144.331 68.3468 143.991 67.862 143.791C67.3772 143.59 66.8438 143.539 66.3295 143.642C65.8152 143.745 65.343 143.998 64.9728 144.37C64.6026 144.741 64.351 145.214 64.2499 145.729C64.1488 146.244 64.2027 146.777 64.4048 147.261C64.6069 147.745 64.9481 148.158 65.3852 148.448C65.8223 148.738 66.3356 148.892 66.8602 148.89C67.2077 148.89 67.5518 148.821 67.8728 148.688C68.1937 148.555 68.4852 148.359 68.7305 148.113C68.9758 147.867 69.17 147.575 69.3021 147.253C69.4342 146.932 69.5015 146.588 69.5002 146.24Z" fill="#F59E0B"/>
<path d="M48.0896 2.64064C48.0896 1.18261 46.9076 0.00064069 45.4496 0.000640754C43.9915 0.000640817 42.8096 1.18261 42.8096 2.64064C42.8096 4.09867 43.9915 5.28064 45.4496 5.28064C46.9076 5.28064 48.0896 4.09867 48.0896 2.64064Z" fill="#F59E0B"/>
<path d="M48.0896 26.5801C48.0896 25.1221 46.9076 23.9401 45.4496 23.9401C43.9915 23.9401 42.8096 25.1221 42.8096 26.5801C42.8096 28.0381 43.9915 29.2201 45.4496 29.2201C46.9076 29.2201 48.0896 28.0381 48.0896 26.5801Z" fill="#F59E0B"/>
<path d="M48.0998 50.5098C48.1018 49.9852 47.9481 49.4719 47.6581 49.0348C47.3681 48.5977 46.9549 48.2564 46.4708 48.0543C45.9868 47.8522 45.4537 47.7983 44.939 47.8994C44.4243 48.0005 43.9512 48.2521 43.5795 48.6223C43.2079 48.9925 42.9545 49.4647 42.8515 49.979C42.7484 50.4933 42.8003 51.0267 43.0006 51.5115C43.2008 51.9963 43.5405 52.4108 43.9765 52.7024C44.4125 52.994 44.9252 53.1498 45.4498 53.1498C46.1509 53.1498 46.8234 52.8719 47.3201 52.3771C47.8168 51.8823 48.0972 51.2109 48.0998 50.5098V50.5098Z" fill="#F59E0B"/>
<path d="M48.0998 74.4402C48.0998 73.9161 47.9444 73.4037 47.6532 72.9679C47.362 72.5321 46.9482 72.1925 46.4639 71.9919C45.9797 71.7914 45.4469 71.7389 44.9328 71.8412C44.4188 71.9434 43.9465 72.1958 43.5759 72.5664C43.2053 72.937 42.953 73.4092 42.8507 73.9232C42.7485 74.4373 42.801 74.9701 43.0015 75.4543C43.2021 75.9386 43.5418 76.3524 43.9776 76.6436C44.4133 76.9347 44.9257 77.0902 45.4498 77.0902C45.7978 77.0902 46.1424 77.0217 46.4639 76.8885C46.7855 76.7554 47.0775 76.5602 47.3236 76.3141C47.5697 76.068 47.7649 75.7759 47.8981 75.4543C48.0313 75.1328 48.0998 74.7882 48.0998 74.4402V74.4402Z" fill="#F59E0B"/>
<path d="M48.0896 98.3799C48.0896 96.9219 46.9076 95.7399 45.4496 95.7399C43.9915 95.7399 42.8096 96.9219 42.8096 98.3799C42.8096 99.8379 43.9915 101.02 45.4496 101.02C46.9076 101.02 48.0896 99.8379 48.0896 98.3799Z" fill="#F59E0B"/>
<path d="M47.7915 121.299C47.2371 119.95 45.6944 119.307 44.3459 119.861C42.9974 120.416 42.3538 121.958 42.9082 123.307C43.4626 124.655 45.0052 125.299 46.3537 124.745C47.7022 124.19 48.346 122.647 47.7915 121.299Z" fill="#F59E0B"/>
<path d="M48.0998 146.24C48.0998 145.716 47.9444 145.203 47.6532 144.768C47.362 144.332 46.9482 143.992 46.4639 143.792C45.9797 143.591 45.4469 143.539 44.9328 143.641C44.4188 143.743 43.9465 143.995 43.5759 144.366C43.2053 144.737 42.953 145.209 42.8507 145.723C42.7485 146.237 42.801 146.77 43.0015 147.254C43.2021 147.738 43.5418 148.152 43.9776 148.443C44.4133 148.735 44.9257 148.89 45.4498 148.89C46.1526 148.89 46.8266 148.611 47.3236 148.114C47.8206 147.617 48.0998 146.943 48.0998 146.24V146.24Z" fill="#F59E0B"/>
<path d="M26.6902 2.64064C26.6902 1.18261 25.5082 0.00064069 24.0502 0.000640754C22.5921 0.000640817 21.4102 1.18261 21.4102 2.64064C21.4102 4.09867 22.5921 5.28064 24.0502 5.28064C25.5082 5.28064 26.6902 4.09867 26.6902 2.64064Z" fill="#F59E0B"/>
<path d="M26.6902 26.5801C26.6902 25.1221 25.5082 23.9401 24.0502 23.9401C22.5921 23.9401 21.4102 25.1221 21.4102 26.5801C21.4102 28.0381 22.5921 29.2201 24.0502 29.2201C25.5082 29.2201 26.6902 28.0381 26.6902 26.5801Z" fill="#F59E0B"/>
<path d="M26.6604 50.5097C26.6623 49.9848 26.5083 49.471 26.2179 49.0337C25.9275 48.5964 25.5137 48.2551 25.0291 48.0533C24.5444 47.8515 24.0108 47.7982 23.4958 47.9001C22.9808 48.0021 22.5078 48.2546 22.1366 48.6258C21.7653 48.997 21.5127 49.4702 21.4108 49.9852C21.3089 50.5002 21.3622 51.0338 21.564 51.5184C21.7658 52.003 22.107 52.4168 22.5443 52.7073C22.9817 52.9977 23.4954 53.1517 24.0203 53.1498C24.7197 53.1471 25.3897 52.868 25.8842 52.3735C26.3788 51.879 26.6577 51.2091 26.6604 50.5097V50.5097Z" fill="#F59E0B"/>
<path d="M26.6604 74.4402C26.6604 73.9156 26.5047 73.4029 26.213 72.9669C25.9214 72.5309 25.507 72.1912 25.0222 71.9909C24.5374 71.7907 24.004 71.7388 23.4897 71.8419C22.9754 71.945 22.5032 72.1983 22.133 72.5699C21.7628 72.9415 21.5112 73.4147 21.4101 73.9294C21.3089 74.4441 21.3629 74.9772 21.565 75.4613C21.7671 75.9453 22.1083 76.3584 22.5454 76.6484C22.9825 76.9384 23.4958 77.0922 24.0203 77.0902C24.3679 77.0902 24.712 77.0216 25.033 76.8883C25.3539 76.755 25.6454 76.5597 25.8906 76.3135C26.1359 76.0673 26.3302 75.775 26.4623 75.4536C26.5944 75.1321 26.6617 74.7877 26.6604 74.4402V74.4402Z" fill="#F59E0B"/>
<path d="M26.6902 98.3799C26.6902 96.9219 25.5082 95.7399 24.0502 95.7399C22.5921 95.7399 21.4102 96.9219 21.4102 98.3799C21.4102 99.8379 22.5921 101.02 24.0502 101.02C25.5082 101.02 26.6902 99.8379 26.6902 98.3799Z" fill="#F59E0B"/>
<path d="M26.3892 121.296C25.8348 119.947 24.2922 119.304 22.9437 119.858C21.5952 120.413 20.9514 121.955 21.5059 123.304C22.0603 124.652 23.603 125.296 24.9515 124.742C26.3 124.187 26.9437 122.644 26.3892 121.296Z" fill="#F59E0B"/>
<path d="M26.6604 146.24C26.6604 145.715 26.5047 145.203 26.213 144.767C25.9214 144.331 25.507 143.991 25.0222 143.791C24.5374 143.59 24.004 143.539 23.4897 143.642C22.9754 143.745 22.5032 143.998 22.133 144.37C21.7628 144.741 21.5112 145.214 21.4101 145.729C21.3089 146.244 21.3629 146.777 21.565 147.261C21.7671 147.745 22.1083 148.158 22.5454 148.448C22.9825 148.738 23.4958 148.892 24.0203 148.89C24.3679 148.89 24.712 148.821 25.033 148.688C25.3539 148.555 25.6454 148.359 25.8906 148.113C26.1359 147.867 26.3302 147.575 26.4623 147.253C26.5944 146.932 26.6617 146.588 26.6604 146.24V146.24Z" fill="#F59E0B"/>
<path d="M5.28 2.64064C5.28 1.18261 4.09803 0.00064069 2.64 0.000640754C1.18197 0.000640817 -1.79131e-07 1.18261 -1.15398e-07 2.64064C-5.16654e-08 4.09867 1.18197 5.28064 2.64 5.28064C4.09803 5.28064 5.28 4.09867 5.28 2.64064Z" fill="#F59E0B"/>
<path d="M5.28 26.58C5.28 25.122 4.09803 23.94 2.64 23.94C1.18197 23.94 -1.79131e-07 25.122 -1.15398e-07 26.58C-5.16654e-08 28.0381 1.18197 29.22 2.64 29.22C4.09803 29.22 5.28 28.0381 5.28 26.58Z" fill="#F59E0B"/>
<path d="M5.29024 50.5098C5.29222 49.9852 5.13851 49.4719 4.84853 49.0348C4.55855 48.5977 4.14532 48.2564 3.66127 48.0543C3.17723 47.8522 2.64412 47.7983 2.12941 47.8994C1.61471 48.0005 1.14159 48.2521 0.769978 48.6223C0.398367 48.9925 0.144953 49.4647 0.0418893 49.979C-0.0611746 50.4933 -0.00927678 51.0267 0.190998 51.5115C0.391273 51.9963 0.730946 52.4108 1.16695 52.7024C1.60295 52.994 2.11567 53.1498 2.64022 53.1498C3.34131 53.1498 4.01383 52.8719 4.51052 52.3771C5.0072 51.8823 5.2876 51.2109 5.29024 50.5098V50.5098Z" fill="#F59E0B"/>
<path d="M5.29023 74.4402C5.29023 73.9161 5.13483 73.4037 4.84364 72.9679C4.55245 72.5321 4.13859 72.1925 3.65437 71.9919C3.17015 71.7914 2.63729 71.7389 2.12324 71.8412C1.60919 71.9434 1.13698 72.1958 0.76637 72.5664C0.39576 72.937 0.143401 73.4092 0.0411499 73.9232C-0.0611009 74.4373 -0.00860443 74.9701 0.191968 75.4543C0.39254 75.9386 0.732191 76.3524 1.16798 76.6436C1.60377 76.9347 2.11609 77.0902 2.64021 77.0902C2.98821 77.0902 3.33286 77.0217 3.65437 76.8885C3.97588 76.7554 4.26798 76.5602 4.51405 76.3141C4.76013 76.068 4.95534 75.7759 5.08851 75.4543C5.22169 75.1328 5.29023 74.7882 5.29023 74.4402V74.4402Z" fill="#F59E0B"/>
<path d="M5.28 98.3799C5.28 96.9219 4.09803 95.7399 2.64 95.7399C1.18197 95.7399 -1.79131e-07 96.9219 -1.15398e-07 98.3799C-5.16654e-08 99.8379 1.18197 101.02 2.64 101.02C4.09803 101.02 5.28 99.8379 5.28 98.3799Z" fill="#F59E0B"/>
<path d="M4.97708 121.298C4.42265 119.949 2.87999 119.306 1.53149 119.86C0.182988 120.415 -0.460681 121.957 0.0937552 123.306C0.648191 124.654 2.19079 125.298 3.53929 124.744C4.88779 124.189 5.53152 122.646 4.97708 121.298Z" fill="#F59E0B"/>
<path d="M5.29023 146.24C5.29023 145.716 5.13483 145.203 4.84364 144.768C4.55245 144.332 4.13859 143.992 3.65437 143.792C3.17015 143.591 2.63729 143.539 2.12324 143.641C1.60919 143.743 1.13698 143.995 0.76637 144.366C0.39576 144.737 0.143401 145.209 0.0411499 145.723C-0.0611009 146.237 -0.00860443 146.77 0.191968 147.254C0.39254 147.738 0.732191 148.152 1.16798 148.443C1.60377 148.735 2.11609 148.89 2.64021 148.89C3.34303 148.89 4.01708 148.611 4.51405 148.114C5.01102 147.617 5.29023 146.943 5.29023 146.24V146.24Z" fill="#F59E0B"/>
</g>
<defs>
<clipPath id="clip0_1384_29770">
<rect width="148.89" height="90.91" fill="white" transform="translate(108 148.89) rotate(-90)"/>
</clipPath>
<clipPath id="clip1_1384_29770">
<rect width="148.89" height="90.91" fill="white" transform="translate(0 148.89) rotate(-90)"/>
</clipPath>
</defs>
</svg>
