<svg width="166" height="51" viewBox="0 0 166 51" fill="none" xmlns="http://www.w3.org/2000/svg">
<rect y="0.997681" width="166" height="50" rx="5" fill="#333F51"/>
<path fill-rule="evenodd" clip-rule="evenodd" d="M58.0156 13.2386C58.0576 14.1669 57.7257 15.0723 57.0973 15.7435C56.3951 16.4898 55.4157 16.8951 54.4039 16.8582C52.8519 16.8458 51.4584 15.8828 50.8678 14.4145C50.2771 12.9462 50.6043 11.2588 51.6982 10.1324C52.4089 9.39008 53.3884 8.982 54.4039 9.00515C54.9215 9.00339 55.4339 9.10995 55.9098 9.31828C56.3528 9.50108 56.7472 9.78865 57.0606 10.1574L56.4117 10.8213C55.9163 10.2184 55.1726 9.88902 54.4039 9.93199C53.6312 9.92812 52.8903 10.2465 52.352 10.8137C51.8138 11.3809 51.5246 12.1479 51.5513 12.938C51.5349 14.1318 52.2222 15.2185 53.2934 15.6925C54.3646 16.1665 55.6093 15.9346 56.4485 15.1048C56.8252 14.6871 57.0425 14.1447 57.0606 13.5767H54.4039V12.6749H57.9666C57.9992 12.8609 58.0156 13.0496 58.0156 13.2386ZM63.6228 10.1073H60.3172V12.4871H63.329V13.3889H60.3172V15.7686H63.6228V16.6954H59.3378V9.1805H63.6228V10.1073ZM67.6385 16.6954H66.6958V10.1073H64.639V9.1805H69.7443V10.1073H67.6385V16.6954ZM73.3437 16.6954V9.1805H74.2864V16.6954H73.3437ZM78.4735 16.6954H77.5308V10.1073H75.474V9.1805H80.518V10.1073H78.4735V16.6954ZM90.0798 15.7185C88.5898 17.2343 86.1829 17.2343 84.6929 15.7185C83.2485 14.1544 83.2485 11.709 84.6929 10.1449C85.4054 9.41064 86.375 8.99768 87.3863 8.99768C88.3977 8.99768 89.3672 9.41064 90.0798 10.1449C91.5303 11.7065 91.5303 14.1569 90.0798 15.7185ZM85.3907 15.0922C86.4942 16.2164 88.2784 16.2164 89.3819 15.0922C90.4657 13.87 90.4657 12.0059 89.3819 10.7837C88.2784 9.6595 86.4942 9.6595 85.3907 10.7837C84.307 12.0059 84.307 13.87 85.3907 15.0922ZM92.4916 16.6954V9.1805H93.6424L97.2174 15.0296V9.1805H98.1601V16.6954H97.1807L93.4466 10.5708V16.6954H92.4916ZM83.3829 27.6547C84.7731 27.6273 86.1146 28.1786 87.1001 29.1821C88.0857 30.1856 88.6308 31.5554 88.6106 32.9777C88.6106 35.9143 86.286 38.2961 83.4155 38.3007C80.545 38.3053 78.2132 35.9309 78.2042 32.9943C78.1952 30.0578 80.5124 27.6685 83.3829 27.6547ZM83.3829 36.2091C84.1949 36.1899 84.965 35.8358 85.5182 35.2274C86.0715 34.619 86.361 33.8077 86.3212 32.9777C86.318 31.6509 85.5224 30.4609 84.3148 29.9769C83.1072 29.4928 81.7331 29.8132 80.8498 30.7847C79.9664 31.7561 79.7533 33.1813 80.3124 34.3785C80.8715 35.5758 82.0891 36.3017 83.3829 36.2091ZM71.9847 27.6547H71.9725C73.3627 27.6273 74.7042 28.1786 75.6897 29.1821C76.6753 30.1856 77.2204 31.5554 77.2002 32.9777C77.2002 35.9159 74.8731 38.2985 72.001 38.3008C69.129 38.3031 66.7982 35.9243 66.7937 32.986C66.7892 30.0478 69.1127 27.6616 71.9847 27.6547ZM71.9847 36.2091H71.9725C72.7845 36.1899 73.5546 35.8358 74.1078 35.2274C74.6611 34.619 74.9506 33.8077 74.9108 32.9777C74.9073 31.6498 74.11 30.4593 72.9009 29.9764C71.6918 29.4934 70.317 29.8163 69.4349 30.7905C68.5528 31.7646 68.343 33.1917 68.9061 34.3881C69.4691 35.5846 70.6903 36.3069 71.9847 36.2091ZM58.4073 29.2954L65.8388 29.2328C65.9242 29.6994 65.9652 30.1734 65.9612 30.6481C66.0188 32.5967 65.334 34.4919 64.0513 35.9336C62.5855 37.5038 60.5275 38.3487 58.4073 38.2507C55.4433 38.3687 52.6536 36.8182 51.1373 34.2101C49.621 31.6019 49.621 28.3541 51.1373 25.7459C52.6536 23.1378 55.4433 21.5873 58.4073 21.7053C60.4895 21.6869 62.4902 22.5318 63.9534 24.0475L62.3985 25.6382C61.3257 24.5786 59.886 23.9976 58.3951 24.0224C55.1495 24.0224 52.5185 26.7141 52.5185 30.0344C52.5185 33.3547 55.1495 36.0463 58.3951 36.0463C59.9212 36.1085 61.402 35.508 62.472 34.393C63.1819 33.6137 63.6133 32.6117 63.6963 31.5499H58.4073V29.2954ZM113.88 31.0489L114.137 31.6125L107.171 34.5558C107.608 35.5731 108.608 36.2139 109.693 36.1715C110.741 36.1743 111.713 35.6129 112.252 34.6936L114.027 35.9461C113.061 37.4258 111.432 38.3104 109.693 38.3008C108.31 38.3215 106.979 37.7661 106.004 36.7622C105.03 35.7583 104.496 34.3921 104.526 32.9777C104.442 31.5956 104.92 30.2394 105.848 29.2309C106.776 28.2225 108.07 27.6519 109.424 27.6547C111.453 27.7311 113.226 29.0815 113.88 31.0489ZM106.779 32.8274L111.431 30.8485C111.065 30.1104 110.304 29.6668 109.497 29.7213C108.731 29.7566 108.011 30.1058 107.5 30.6902C106.989 31.2745 106.729 32.0448 106.779 32.8274ZM101.123 37.9877V22.3316H103.412V37.9877H101.123ZM97.3765 28.8445V27.9678H99.4823V37.4491C99.4823 41.3819 97.2663 42.9976 94.5852 42.9976C92.5641 43.0099 90.738 41.7662 89.9696 39.8539L91.9652 39.0022C92.3823 40.1182 93.4175 40.8655 94.5852 40.8934C96.2992 40.8934 97.3643 39.8038 97.3643 37.7622V36.9982H97.2908C96.6028 37.8101 95.5987 38.2687 94.5484 38.2507C91.7695 38.1128 89.5856 35.7676 89.5856 32.9213C89.5856 30.0751 91.7695 27.7299 94.5484 27.592C95.5953 27.5906 96.5929 28.0463 97.2908 28.8445H97.3765ZM94.7566 36.2091H94.7443C95.54 36.1778 96.2885 35.8148 96.8158 35.2044C97.3431 34.594 97.6032 33.7894 97.5357 32.9777C97.5961 32.1698 97.3352 31.3711 96.812 30.7627C96.2887 30.1543 95.5476 29.7878 94.7566 29.7463C93.1195 29.8939 91.864 31.2965 91.864 32.9777C91.864 34.6589 93.1195 36.0615 94.7566 36.2091ZM124.617 22.3316C126.396 22.2009 128.096 23.0975 129.025 24.655C129.953 26.2125 129.953 28.17 129.025 29.7275C128.096 31.285 126.396 32.1816 124.617 32.0509H121.422V37.9877H119.132V22.3316H124.617ZM124.605 29.8465L124.654 29.8841C126.104 29.8841 127.28 28.6813 127.28 27.1975C127.28 25.7137 126.104 24.5109 124.654 24.5109H121.409V29.8465H124.605ZM138.721 27.592L138.782 27.6296C141.39 27.6296 143.422 29.2203 143.422 31.9632V37.9877H141.218V36.7352H141.145C140.508 37.7481 139.381 38.3244 138.207 38.2381C137.254 38.3102 136.313 37.9849 135.598 37.3361C134.883 36.6874 134.455 35.7704 134.411 34.7938C134.411 32.5268 136.627 31.2743 138.819 31.2743C139.651 31.2707 140.471 31.4772 141.206 31.8755V31.7127C141.148 31.111 140.856 30.5585 140.395 30.1793C139.935 29.8001 139.345 29.6261 138.758 29.6962C137.902 29.6246 137.086 30.0765 136.676 30.8485L134.644 29.9843C135.416 28.4275 137.018 27.4879 138.721 27.592ZM138.439 36.1715L138.501 36.2091C139.88 36.1747 141.023 35.1062 141.182 33.7042C140.546 33.3414 139.828 33.1597 139.1 33.1781C137.95 33.1781 136.652 33.5914 136.652 34.8439C136.652 35.7833 137.692 36.1715 138.439 36.1715ZM151.454 27.9678H154L147.732 42.7346H145.344L147.67 37.4616L143.594 27.9678H146.042L148.76 34.7562H148.834L151.454 27.9678ZM130.873 37.9877V22.3316H133.163V37.9877H130.873ZM40.22 24.956C40.5295 25.135 40.7145 25.4553 40.7144 25.8128C40.7144 26.1703 40.5295 26.4906 40.22 26.6691L34.6025 29.9115L30.6591 26.0996L34.9738 21.9287L40.22 24.956ZM34.0833 21.4143L29.9481 25.4121L15.6576 11.5977L28.3101 18.0814L34.0833 21.4143ZM15.8677 40.3977L29.9481 26.787L33.712 30.4259L28.3318 33.5318L15.8677 40.3977ZM14.8134 12.1569L29.2369 26.0993L14.8 40.0551L14.8134 12.1569Z" fill="#F1F5FB"/>
</svg>
