<svg width="166" height="50" viewBox="0 0 166 50" fill="none" xmlns="http://www.w3.org/2000/svg">
<rect width="166" height="50" rx="5" fill="#556987"/>
<path fill-rule="evenodd" clip-rule="evenodd" d="M58.0153 12.2409C58.0574 13.1693 57.7255 14.0747 57.0971 14.7458C56.3949 15.4921 55.4155 15.8974 54.4036 15.8606C52.8517 15.8481 51.4582 14.8851 50.8675 13.4168C50.2768 11.9486 50.6041 10.2611 51.698 9.13471C52.4087 8.39239 53.3882 7.98432 54.4036 8.00747C54.9212 8.00571 55.4337 8.11227 55.9095 8.32059C56.3525 8.5034 56.7469 8.79097 57.0604 9.15976L56.4115 9.82358C55.9161 9.22073 55.1724 8.89134 54.4036 8.93431C53.6309 8.93043 52.89 9.2488 52.3518 9.81599C51.8135 10.3832 51.5244 11.1502 51.551 11.9403C51.5346 13.1341 52.2219 14.2208 53.2931 14.6948C54.3643 15.1688 55.6091 14.9369 56.4482 14.1071C56.8249 13.6894 57.0422 13.147 57.0604 12.579H54.4036V11.6773H57.9663C57.999 11.8633 58.0154 12.0519 58.0153 12.2409ZM63.6226 9.10966H60.317V11.4894H63.3287V12.3912H60.317V14.7709H63.6226V15.6977H59.3375V8.18282H63.6226V9.10966ZM67.6382 15.6977H66.6955V9.10966H64.6387V8.18282H69.744V9.10966H67.6382V15.6977ZM73.3434 15.6977V8.18282H74.2861V15.6977H73.3434ZM78.4732 15.6977H77.5305V9.10966H75.4737V8.18282H80.5178V9.10966H78.4732V15.6977ZM90.0795 14.7208C88.5895 16.2366 86.1826 16.2366 84.6926 14.7208C83.2483 13.1567 83.2483 10.7113 84.6926 9.14723C85.4052 8.41296 86.3747 8 87.3861 8C88.3974 8 89.367 8.41296 90.0795 9.14723C91.53 10.7088 91.53 13.1592 90.0795 14.7208ZM85.3905 14.0945C86.494 15.2187 88.2782 15.2187 89.3817 14.0945C90.4654 12.8723 90.4654 11.0082 89.3817 9.786C88.2782 8.66182 86.494 8.66182 85.3905 9.786C84.3067 11.0082 84.3067 12.8723 85.3905 14.0945ZM92.4914 15.6977V8.18282H93.6422L97.2171 14.0319V8.18282H98.1598V15.6977H97.1804L93.4463 9.57308V15.6977H92.4914ZM83.3826 26.657C84.7729 26.6297 86.1144 27.1809 87.0999 28.1844C88.0854 29.1879 88.6305 30.5577 88.6104 31.98C88.6103 34.9166 86.2857 37.2984 83.4153 37.303C80.5448 37.3076 78.2129 34.9332 78.2039 31.9967C78.1949 29.0601 80.5122 26.6708 83.3826 26.657ZM83.3826 35.2114C84.1947 35.1922 84.9647 34.8382 85.518 34.2297C86.0712 33.6213 86.3608 32.81 86.3209 31.98C86.3178 30.6532 85.5221 29.4632 84.3146 28.9792C83.107 28.4952 81.7329 28.8155 80.8495 29.787C79.9662 30.7585 79.7531 32.1836 80.3121 33.3809C80.8712 34.5781 82.0888 35.304 83.3826 35.2114ZM71.9845 26.657H71.9722C73.3625 26.6297 74.704 27.1809 75.6895 28.1844C76.675 29.1879 77.2201 30.5577 77.2 31.98C77.2 34.9182 74.8729 37.3008 72.0008 37.3031C69.1287 37.3054 66.798 34.9266 66.7935 31.9884C66.789 29.0502 69.1124 26.6639 71.9845 26.657ZM71.9845 35.2114H71.9722C72.7843 35.1922 73.5543 34.8382 74.1076 34.2297C74.6608 33.6213 74.9504 32.81 74.9105 31.98C74.907 30.6521 74.1098 29.4616 72.9007 28.9787C71.6916 28.4957 70.3168 28.8187 69.4347 29.7928C68.5526 30.767 68.3428 32.194 68.9058 33.3904C69.4688 34.5869 70.69 35.3092 71.9845 35.2114ZM58.4071 28.2977L65.8385 28.2351C65.9239 28.7017 65.9649 29.1757 65.961 29.6504C66.0186 31.599 65.3337 33.4942 64.0511 34.9359C62.5853 36.5061 60.5273 37.351 58.4071 37.253C55.443 37.371 52.6534 35.8206 51.1371 33.2124C49.6207 30.6042 49.6207 27.3564 51.1371 24.7483C52.6534 22.1401 55.443 20.5897 58.4071 20.7077C60.4893 20.6892 62.49 21.5341 63.9531 23.0498L62.3983 24.6405C61.3255 23.5809 59.8858 22.9999 58.3948 23.0248C55.1493 23.0248 52.5182 25.7164 52.5182 29.0367C52.5182 32.357 55.1493 35.0486 58.3948 35.0486C59.921 35.1108 61.4017 34.5103 62.4717 33.3953C63.1816 32.616 63.6131 31.6141 63.696 30.5522H58.4071V28.2977ZM113.88 30.0512L114.137 30.6148L107.171 33.5582C107.607 34.5754 108.607 35.2162 109.693 35.1739C110.74 35.1766 111.712 34.6152 112.251 33.6959L114.027 34.9484C113.06 36.4282 111.432 37.3127 109.693 37.3031C108.31 37.3238 106.978 36.7684 106.004 35.7645C105.03 34.7606 104.496 33.3945 104.526 31.98C104.442 30.5979 104.92 29.2417 105.848 28.2333C106.775 27.2249 108.07 26.6543 109.423 26.657C111.453 26.7334 113.226 28.0838 113.88 30.0512ZM106.779 31.8297L111.431 29.8508C111.065 29.1127 110.304 28.6692 109.497 28.7236C108.731 28.7589 108.011 29.1081 107.5 29.6925C106.989 30.2768 106.729 31.0471 106.779 31.8297ZM101.123 36.99V21.3339H103.412V36.99H101.123ZM97.3763 27.8468V26.9701H99.4821V36.4514C99.4821 40.3842 97.2661 41.9999 94.5849 41.9999C92.5639 42.0123 90.7378 40.7685 89.9693 38.8562L91.9649 38.0045C92.3821 39.1205 93.4173 39.8678 94.5849 39.8957C96.2989 39.8957 97.3641 38.8061 97.3641 36.7645V36.0005H97.2906C96.6026 36.8125 95.5984 37.2711 94.5482 37.253C91.7692 37.1151 89.5853 34.77 89.5853 31.9237C89.5853 29.0774 91.7692 26.7322 94.5482 26.5943C95.595 26.5929 96.5927 27.0486 97.2906 27.8468H97.3763ZM94.7563 35.2114H94.7441C95.5397 35.1801 96.2882 34.8171 96.8155 34.2067C97.3428 33.5963 97.603 32.7917 97.5355 31.98C97.5959 31.1721 97.3349 30.3734 96.8117 29.765C96.2885 29.1566 95.5473 28.7901 94.7563 28.7486C93.1193 28.8962 91.8638 30.2988 91.8638 31.98C91.8638 33.6612 93.1193 35.0638 94.7563 35.2114ZM124.617 21.3339C126.395 21.2032 128.096 22.0998 129.024 23.6573C129.953 25.2148 129.953 27.1723 129.024 28.7298C128.096 30.2873 126.395 31.1839 124.617 31.0532H121.421V36.99H119.132V21.3339H124.617ZM124.605 28.8488L124.654 28.8864C126.104 28.8864 127.28 27.6836 127.28 26.1998C127.28 24.7161 126.104 23.5132 124.654 23.5132H121.409V28.8488H124.605ZM138.721 26.5943L138.782 26.6319C141.39 26.6319 143.422 28.2226 143.422 30.9655V36.99H141.218V35.7375H141.145C140.508 36.7504 139.381 37.3267 138.206 37.2405C137.253 37.3125 136.312 36.9872 135.598 36.3384C134.883 35.6897 134.455 34.7727 134.411 33.7961C134.411 31.5291 136.627 30.2767 138.819 30.2767C139.651 30.2731 140.471 30.4796 141.206 30.8778V30.715C141.148 30.1133 140.855 29.5608 140.395 29.1816C139.934 28.8024 139.344 28.6284 138.757 28.6985C137.902 28.6269 137.085 29.0789 136.676 29.8508L134.644 28.9866C135.416 27.4299 137.017 26.4902 138.721 26.5943ZM138.439 35.1739L138.5 35.2114C139.879 35.177 141.023 34.1085 141.181 32.7065C140.546 32.3437 139.827 32.1621 139.1 32.1804C137.949 32.1804 136.652 32.5937 136.652 33.8462C136.652 34.7856 137.692 35.1739 138.439 35.1739ZM151.453 26.9701H154L147.731 41.7369H145.344L147.67 36.4639L143.593 26.9701H146.042L148.76 33.7586H148.833L151.453 26.9701ZM130.873 36.99V21.3339H133.162V36.99H130.873ZM40.2198 23.9583C40.5293 24.1373 40.7142 24.4576 40.7142 24.8151C40.7142 25.1726 40.5292 25.493 40.2197 25.6715L34.6022 28.9138L30.6588 25.1019L34.9736 20.931L40.2198 23.9583ZM34.0831 20.4166L29.9478 24.4144L15.6573 10.6L28.3099 17.0837L34.0831 20.4166ZM15.8674 39.4L29.9478 25.7893L33.7118 29.4282L28.3316 32.5341L15.8674 39.4ZM14.8132 11.1592L29.2367 25.1016L14.7998 39.0574L14.8132 11.1592Z" fill="white"/>
</svg>
