<svg width="1440" height="940" viewBox="0 0 1440 940" fill="none" xmlns="http://www.w3.org/2000/svg">
<g clip-path="url(#clip0_657_11346)">
<rect width="1440" height="940" fill="#2A3342"/>
<g opacity="0.4">
<rect width="1440" height="1320" transform="translate(0 -276)" fill="#2A3342"/>
<line x1="1464" y1="396.5" x2="-24" y2="396.5" stroke="#333F51"/>
<line x1="1464" y1="420.5" x2="-24" y2="420.5" stroke="#333F51"/>
<line x1="1464" y1="444.5" x2="-24" y2="444.5" stroke="#333F51"/>
<line x1="1464" y1="468.5" x2="-24" y2="468.5" stroke="#333F51"/>
<line x1="1464" y1="492.5" x2="-24" y2="492.5" stroke="#333F51"/>
<line x1="1464" y1="516.5" x2="-24" y2="516.5" stroke="#333F51"/>
<line x1="1464" y1="540.5" x2="-24" y2="540.5" stroke="#333F51"/>
<line x1="1464" y1="564.5" x2="-24" y2="564.5" stroke="#333F51"/>
<line x1="1464" y1="588.5" x2="-24" y2="588.5" stroke="#333F51"/>
<line x1="1464" y1="612.5" x2="-24" y2="612.5" stroke="#333F51"/>
<line x1="1464" y1="636.5" x2="-24" y2="636.5" stroke="#333F51"/>
<line x1="1464" y1="660.5" x2="-24" y2="660.5" stroke="#333F51"/>
<line x1="1464" y1="684.5" x2="-24" y2="684.5" stroke="#333F51"/>
<line x1="1464" y1="708.5" x2="-24" y2="708.5" stroke="#333F51"/>
<line x1="1464" y1="732.5" x2="-24" y2="732.5" stroke="#333F51"/>
<line x1="1464" y1="756.5" x2="-24" y2="756.5" stroke="#333F51"/>
<line x1="1464" y1="780.5" x2="-24" y2="780.5" stroke="#333F51"/>
<line x1="1464" y1="804.5" x2="-24" y2="804.5" stroke="#333F51"/>
<line x1="1464" y1="828.5" x2="-24" y2="828.5" stroke="#333F51"/>
<line x1="1464" y1="852.5" x2="-24" y2="852.5" stroke="#333F51"/>
<line x1="1464" y1="876.5" x2="-24" y2="876.5" stroke="#333F51"/>
<line x1="1464" y1="900.5" x2="-24" y2="900.5" stroke="#333F51"/>
<line x1="1464" y1="924.5" x2="-24" y2="924.5" stroke="#333F51"/>
<line x1="24.5" y1="372" x2="24.5" y2="1092" stroke="#333F51"/>
<line x1="24.5" y1="372" x2="24.5" y2="1092" stroke="#333F51"/>
<line x1="48.5" y1="372" x2="48.5" y2="1092" stroke="#333F51"/>
<line x1="72.5" y1="372" x2="72.5" y2="1092" stroke="#333F51"/>
<line x1="96.5" y1="372" x2="96.5" y2="1092" stroke="#333F51"/>
<line x1="120.5" y1="372" x2="120.5" y2="1092" stroke="#333F51"/>
<line x1="144.5" y1="372" x2="144.5" y2="1092" stroke="#333F51"/>
<line x1="168.5" y1="372" x2="168.5" y2="1092" stroke="#333F51"/>
<line x1="192.5" y1="372" x2="192.5" y2="1092" stroke="#333F51"/>
<line x1="216.5" y1="372" x2="216.5" y2="1092" stroke="#333F51"/>
<line x1="240.5" y1="372" x2="240.5" y2="1092" stroke="#333F51"/>
<line x1="264.5" y1="372" x2="264.5" y2="1092" stroke="#333F51"/>
<line x1="288.5" y1="372" x2="288.5" y2="1092" stroke="#333F51"/>
<line x1="312.5" y1="372" x2="312.5" y2="1092" stroke="#333F51"/>
<line x1="336.5" y1="372" x2="336.5" y2="1092" stroke="#333F51"/>
<line x1="360.5" y1="372" x2="360.5" y2="1092" stroke="#333F51"/>
<line x1="384.5" y1="372" x2="384.5" y2="1092" stroke="#333F51"/>
<line x1="408.5" y1="372" x2="408.5" y2="1092" stroke="#333F51"/>
<line x1="432.5" y1="372" x2="432.5" y2="1092" stroke="#333F51"/>
<line x1="456.5" y1="372" x2="456.5" y2="1092" stroke="#333F51"/>
<line x1="480.5" y1="372" x2="480.5" y2="1092" stroke="#333F51"/>
<line x1="504.5" y1="372" x2="504.5" y2="1092" stroke="#333F51"/>
<line x1="528.5" y1="372" x2="528.5" y2="1092" stroke="#333F51"/>
<line x1="552.5" y1="372" x2="552.5" y2="1092" stroke="#333F51"/>
<line x1="576.5" y1="372" x2="576.5" y2="1092" stroke="#333F51"/>
<line x1="600.5" y1="372" x2="600.5" y2="1092" stroke="#333F51"/>
<line x1="624.5" y1="372" x2="624.5" y2="1092" stroke="#333F51"/>
<line x1="648.5" y1="372" x2="648.5" y2="1092" stroke="#333F51"/>
<line x1="672.5" y1="372" x2="672.5" y2="1092" stroke="#333F51"/>
<line x1="696.5" y1="372" x2="696.5" y2="1092" stroke="#333F51"/>
<line x1="720.5" y1="372" x2="720.5" y2="1092" stroke="#333F51"/>
<line x1="744.5" y1="372" x2="744.5" y2="1092" stroke="#333F51"/>
<line x1="768.5" y1="372" x2="768.5" y2="1092" stroke="#333F51"/>
<line x1="792.5" y1="372" x2="792.5" y2="1092" stroke="#333F51"/>
<line x1="816.5" y1="372" x2="816.5" y2="1092" stroke="#333F51"/>
<line x1="840.5" y1="372" x2="840.5" y2="1092" stroke="#333F51"/>
<line x1="864.5" y1="372" x2="864.5" y2="1092" stroke="#333F51"/>
<line x1="888.5" y1="372" x2="888.5" y2="1092" stroke="#333F51"/>
<line x1="912.5" y1="372" x2="912.5" y2="1092" stroke="#333F51"/>
<line x1="936.5" y1="372" x2="936.5" y2="1092" stroke="#333F51"/>
<line x1="960.5" y1="372" x2="960.5" y2="1092" stroke="#333F51"/>
<line x1="984.5" y1="372" x2="984.5" y2="1092" stroke="#333F51"/>
<line x1="1008.5" y1="372" x2="1008.5" y2="1092" stroke="#333F51"/>
<line x1="1032.5" y1="372" x2="1032.5" y2="1092" stroke="#333F51"/>
<line x1="1056.5" y1="372" x2="1056.5" y2="1092" stroke="#333F51"/>
<line x1="1080.5" y1="372" x2="1080.5" y2="1092" stroke="#333F51"/>
<line x1="1104.5" y1="372" x2="1104.5" y2="1092" stroke="#333F51"/>
<line x1="1128.5" y1="372" x2="1128.5" y2="1092" stroke="#333F51"/>
<line x1="1152.5" y1="372" x2="1152.5" y2="1092" stroke="#333F51"/>
<line x1="1176.5" y1="372" x2="1176.5" y2="1092" stroke="#333F51"/>
<line x1="1200.5" y1="372" x2="1200.5" y2="1092" stroke="#333F51"/>
<line x1="1224.5" y1="372" x2="1224.5" y2="1092" stroke="#333F51"/>
<line x1="1248.5" y1="372" x2="1248.5" y2="1092" stroke="#333F51"/>
<line x1="1272.5" y1="372" x2="1272.5" y2="1092" stroke="#333F51"/>
<line x1="1296.5" y1="372" x2="1296.5" y2="1092" stroke="#333F51"/>
<line x1="1320.5" y1="372" x2="1320.5" y2="1092" stroke="#333F51"/>
<line x1="1344.5" y1="372" x2="1344.5" y2="1092" stroke="#333F51"/>
<line x1="1368.5" y1="372" x2="1368.5" y2="1092" stroke="#333F51"/>
<line x1="1392.5" y1="372" x2="1392.5" y2="1092" stroke="#333F51"/>
<line x1="1416.5" y1="372" x2="1416.5" y2="1092" stroke="#333F51"/>
<line x1="1440.5" y1="372" x2="1440.5" y2="1092" stroke="#333F51"/>
<line x1="0.5" y1="-324" x2="0.499969" y2="396" stroke="#333F51"/>
<line x1="1464" y1="12.5" x2="-24" y2="12.5" stroke="#333F51"/>
<line x1="1464" y1="36.5" x2="-24" y2="36.5" stroke="#333F51"/>
<line x1="1464" y1="60.5" x2="-24" y2="60.5" stroke="#333F51"/>
<line x1="1464" y1="84.5" x2="-24" y2="84.5" stroke="#333F51"/>
<line x1="1464" y1="108.5" x2="-24" y2="108.5" stroke="#333F51"/>
<line x1="1464" y1="132.5" x2="-24" y2="132.5" stroke="#333F51"/>
<line x1="1464" y1="156.5" x2="-24" y2="156.5" stroke="#333F51"/>
<line x1="1464" y1="180.5" x2="-24" y2="180.5" stroke="#333F51"/>
<line x1="1464" y1="204.5" x2="-24" y2="204.5" stroke="#333F51"/>
<line x1="1464" y1="228.5" x2="-24" y2="228.5" stroke="#333F51"/>
<line x1="1464" y1="252.5" x2="-24" y2="252.5" stroke="#333F51"/>
<line x1="1464" y1="276.5" x2="-24" y2="276.5" stroke="#333F51"/>
<line x1="1464" y1="300.5" x2="-24" y2="300.5" stroke="#333F51"/>
<line x1="1464" y1="324.5" x2="-24" y2="324.5" stroke="#333F51"/>
<line x1="1464" y1="348.5" x2="-24" y2="348.5" stroke="#333F51"/>
<line x1="1464" y1="372.5" x2="-24" y2="372.5" stroke="#333F51"/>
<line x1="24.5" y1="-324" x2="24.5" y2="396" stroke="#333F51"/>
<line x1="24.5" y1="-324" x2="24.5" y2="396" stroke="#333F51"/>
<line x1="48.5" y1="-324" x2="48.5" y2="396" stroke="#333F51"/>
<line x1="72.5" y1="-324" x2="72.5" y2="396" stroke="#333F51"/>
<line x1="96.5" y1="-324" x2="96.5" y2="396" stroke="#333F51"/>
<line x1="120.5" y1="-324" x2="120.5" y2="396" stroke="#333F51"/>
<line x1="144.5" y1="-324" x2="144.5" y2="396" stroke="#333F51"/>
<line x1="168.5" y1="-324" x2="168.5" y2="396" stroke="#333F51"/>
<line x1="192.5" y1="-324" x2="192.5" y2="396" stroke="#333F51"/>
<line x1="216.5" y1="-324" x2="216.5" y2="396" stroke="#333F51"/>
<line x1="240.5" y1="-324" x2="240.5" y2="396" stroke="#333F51"/>
<line x1="264.5" y1="-324" x2="264.5" y2="396" stroke="#333F51"/>
<line x1="288.5" y1="-324" x2="288.5" y2="396" stroke="#333F51"/>
<line x1="312.5" y1="-324" x2="312.5" y2="396" stroke="#333F51"/>
<line x1="336.5" y1="-324" x2="336.5" y2="396" stroke="#333F51"/>
<line x1="360.5" y1="-324" x2="360.5" y2="396" stroke="#333F51"/>
<line x1="384.5" y1="-324" x2="384.5" y2="396" stroke="#333F51"/>
<line x1="408.5" y1="-324" x2="408.5" y2="396" stroke="#333F51"/>
<line x1="432.5" y1="-324" x2="432.5" y2="396" stroke="#333F51"/>
<line x1="456.5" y1="-324" x2="456.5" y2="396" stroke="#333F51"/>
<line x1="480.5" y1="-324" x2="480.5" y2="396" stroke="#333F51"/>
<line x1="504.5" y1="-324" x2="504.5" y2="396" stroke="#333F51"/>
<line x1="528.5" y1="-324" x2="528.5" y2="396" stroke="#333F51"/>
<line x1="552.5" y1="-324" x2="552.5" y2="396" stroke="#333F51"/>
<line x1="576.5" y1="-324" x2="576.5" y2="396" stroke="#333F51"/>
<line x1="600.5" y1="-324" x2="600.5" y2="396" stroke="#333F51"/>
<line x1="624.5" y1="-324" x2="624.5" y2="396" stroke="#333F51"/>
<line x1="648.5" y1="-324" x2="648.5" y2="396" stroke="#333F51"/>
<line x1="672.5" y1="-324" x2="672.5" y2="396" stroke="#333F51"/>
<line x1="696.5" y1="-324" x2="696.5" y2="396" stroke="#333F51"/>
<line x1="720.5" y1="-324" x2="720.5" y2="396" stroke="#333F51"/>
<line x1="744.5" y1="-324" x2="744.5" y2="396" stroke="#333F51"/>
<line x1="768.5" y1="-324" x2="768.5" y2="396" stroke="#333F51"/>
<line x1="792.5" y1="-324" x2="792.5" y2="396" stroke="#333F51"/>
<line x1="816.5" y1="-324" x2="816.5" y2="396" stroke="#333F51"/>
<line x1="840.5" y1="-324" x2="840.5" y2="396" stroke="#333F51"/>
<line x1="864.5" y1="-324" x2="864.5" y2="396" stroke="#333F51"/>
<line x1="888.5" y1="-324" x2="888.5" y2="396" stroke="#333F51"/>
<line x1="912.5" y1="-324" x2="912.5" y2="396" stroke="#333F51"/>
<line x1="936.5" y1="-324" x2="936.5" y2="396" stroke="#333F51"/>
<line x1="960.5" y1="-324" x2="960.5" y2="396" stroke="#333F51"/>
<line x1="984.5" y1="-324" x2="984.5" y2="396" stroke="#333F51"/>
<line x1="1008.5" y1="-324" x2="1008.5" y2="396" stroke="#333F51"/>
<line x1="1032.5" y1="-324" x2="1032.5" y2="396" stroke="#333F51"/>
<line x1="1056.5" y1="-324" x2="1056.5" y2="396" stroke="#333F51"/>
<line x1="1080.5" y1="-324" x2="1080.5" y2="396" stroke="#333F51"/>
<line x1="1104.5" y1="-324" x2="1104.5" y2="396" stroke="#333F51"/>
<line x1="1128.5" y1="-324" x2="1128.5" y2="396" stroke="#333F51"/>
<line x1="1152.5" y1="-324" x2="1152.5" y2="396" stroke="#333F51"/>
<line x1="1176.5" y1="-324" x2="1176.5" y2="396" stroke="#333F51"/>
<line x1="1200.5" y1="-324" x2="1200.5" y2="396" stroke="#333F51"/>
<line x1="1224.5" y1="-324" x2="1224.5" y2="396" stroke="#333F51"/>
<line x1="1248.5" y1="-324" x2="1248.5" y2="396" stroke="#333F51"/>
<line x1="1272.5" y1="-324" x2="1272.5" y2="396" stroke="#333F51"/>
<line x1="1296.5" y1="-324" x2="1296.5" y2="396" stroke="#333F51"/>
<line x1="1320.5" y1="-324" x2="1320.5" y2="396" stroke="#333F51"/>
<line x1="1344.5" y1="-324" x2="1344.5" y2="396" stroke="#333F51"/>
<line x1="1368.5" y1="-324" x2="1368.5" y2="396" stroke="#333F51"/>
<line x1="1392.5" y1="-324" x2="1392.5" y2="396" stroke="#333F51"/>
<line x1="1416.5" y1="-324" x2="1416.5" y2="396" stroke="#333F51"/>
<line x1="1440.5" y1="-324" x2="1440.5" y2="396" stroke="#333F51"/>
</g>
<rect y="-276" width="1440" height="1216" fill="url(#paint0_radial_657_11346)"/>
</g>
<defs>
<radialGradient id="paint0_radial_657_11346" cx="0" cy="0" r="1" gradientUnits="userSpaceOnUse" gradientTransform="translate(720 332) rotate(90) scale(608 720)">
<stop stop-color="#2A3342" stop-opacity="0"/>
<stop offset="1" stop-color="#2A3342"/>
</radialGradient>
<clipPath id="clip0_657_11346">
<rect width="1440" height="940" fill="white"/>
</clipPath>
</defs>
</svg>
