<svg width="26" height="26" viewBox="0 0 26 26" fill="none" xmlns="http://www.w3.org/2000/svg">
<g filter="url(#filter0_d_354_2652)">
<circle cx="13" cy="12" r="9.375" fill="#22C55E" stroke="#16A34A" stroke-width="1.25"/>
</g>
<path d="M18.5917 8.00828C18.5142 7.93017 18.4221 7.86818 18.3205 7.82587C18.219 7.78356 18.11 7.76178 18 7.76178C17.89 7.76178 17.7811 7.78356 17.6796 7.82587C17.578 7.86818 17.4858 7.93017 17.4084 8.00828L11.2 14.2249L8.59171 11.6083C8.51127 11.5306 8.41632 11.4695 8.31227 11.4285C8.20823 11.3875 8.09713 11.3674 7.98531 11.3693C7.87349 11.3712 7.76315 11.3952 7.66058 11.4398C7.55802 11.4843 7.46524 11.5487 7.38754 11.6291C7.30984 11.7095 7.24875 11.8045 7.20774 11.9085C7.16674 12.0126 7.14663 12.1237 7.14856 12.2355C7.1505 12.3473 7.17444 12.4577 7.21902 12.5602C7.2636 12.6628 7.32794 12.7556 7.40837 12.8333L10.6084 16.0333C10.6858 16.1114 10.778 16.1734 10.8796 16.2157C10.9811 16.258 11.09 16.2798 11.2 16.2798C11.31 16.2798 11.419 16.258 11.5205 16.2157C11.6221 16.1734 11.7142 16.1114 11.7917 16.0333L18.5917 9.23328C18.6763 9.15524 18.7438 9.06053 18.79 8.95512C18.8361 8.8497 18.86 8.73586 18.86 8.62078C18.86 8.50569 18.8361 8.39186 18.79 8.28644C18.7438 8.18102 18.6763 8.08631 18.5917 8.00828Z" fill="white"/>
<defs>
<filter id="filter0_d_354_2652" x="0.5" y="0.75" width="25" height="25" filterUnits="userSpaceOnUse" color-interpolation-filters="sRGB">
<feFlood flood-opacity="0" result="BackgroundImageFix"/>
<feColorMatrix in="SourceAlpha" type="matrix" values="0 0 0 0 0 0 0 0 0 0 0 0 0 0 0 0 0 0 127 0" result="hardAlpha"/>
<feOffset dy="1.25"/>
<feGaussianBlur stdDeviation="1.25"/>
<feColorMatrix type="matrix" values="0 0 0 0 0 0 0 0 0 0 0 0 0 0 0 0 0 0 0.05 0"/>
<feBlend mode="normal" in2="BackgroundImageFix" result="effect1_dropShadow_354_2652"/>
<feBlend mode="normal" in="SourceGraphic" in2="effect1_dropShadow_354_2652" result="shape"/>
</filter>
</defs>
</svg>
