<svg width="95" height="32" viewBox="0 0 95 32" fill="none" xmlns="http://www.w3.org/2000/svg">
<path d="M54.3157 6.71122V10.2981H46.8277V14.173H52.4306V17.6552H46.8277V25.0909H42.3506V6.71122H54.3157Z" fill="white"/>
<path d="M61.1459 5.71631V25.0909H56.6688V5.71631H61.1459Z" fill="white"/>
<path d="M78.162 17.5505C78.162 17.9694 78.1358 18.4058 78.0835 18.8596H67.9511C68.0209 19.7672 68.3089 20.4654 68.8151 20.9541C69.3387 21.4254 69.9758 21.661 70.7264 21.661C71.8434 21.661 72.6202 21.1898 73.0565 20.2472H77.8216C77.5773 21.2072 77.1322 22.0712 76.4864 22.8392C75.858 23.6072 75.0638 24.2094 74.1038 24.6458C73.1438 25.0821 72.0704 25.3003 70.8834 25.3003C69.4522 25.3003 68.178 24.9949 67.0609 24.3839C65.9438 23.773 65.0711 22.9003 64.4427 21.7658C63.8144 20.6312 63.5002 19.3047 63.5002 17.7861C63.5002 16.2676 63.8056 14.941 64.4165 13.8065C65.0449 12.6719 65.9176 11.7992 67.0347 11.1883C68.1518 10.5774 69.4347 10.2719 70.8834 10.2719C72.2973 10.2719 73.554 10.5687 74.6536 11.1621C75.7533 11.7556 76.6085 12.6021 77.2195 13.7018C77.8478 14.8014 78.162 16.0843 78.162 17.5505ZM73.5802 16.3723C73.5802 15.6043 73.3184 14.9934 72.7947 14.5396C72.2711 14.0858 71.6165 13.8589 70.8311 13.8589C70.0805 13.8589 69.4434 14.077 68.9198 14.5134C68.4136 14.9498 68.0994 15.5694 67.9773 16.3723H73.5802Z" fill="white"/>
<path d="M89.1639 25.0909L86.3624 21.0327L84.0061 25.0909H79.1624L83.9799 17.629L79.0315 10.4814H84.0584L86.8599 14.5134L89.2162 10.4814H94.0599L89.1639 17.8385L94.1908 25.0909H89.1639Z" fill="white"/>
<path d="M14.626 9.94595C19.0055 11.4917 23.7285 11.4058 28.0651 9.73128C28.108 7.97089 27.6357 6.2105 26.8199 4.62186L26.3906 3.76313C26.2618 3.80607 26.09 3.89195 26.0041 3.97782C22.054 5.86702 17.5886 6.12463 13.4238 4.62187C10.5042 3.5914 7.32687 3.84901 4.57895 5.22297L3.72023 5.65233C3.76316 5.78114 3.84904 5.95288 3.93492 6.03875C4.45015 7.1551 4.87951 8.35732 5.18006 9.60247C8.1856 8.74374 11.5346 8.82961 14.626 9.94595Z" fill="#3B82F6"/>
<path d="M3.93493 22.8698L4.87952 22.3545C6.7935 21.3975 8.90498 20.9343 11 20.9954C12.2888 21.033 13.5713 21.2689 14.7978 21.7105C15.1973 21.8522 15.5981 21.9824 16 22.1011V26.6777C14.3376 26.3686 12.6547 26.3244 11 26.5375C9.28349 26.7584 7.59733 27.2562 5.99586 28.0221C5.90999 28.108 5.73824 28.1939 5.60943 28.2368L5.18007 27.3781C4.45015 25.9612 4.0208 24.4155 3.93493 22.8698Z" fill="#3B82F6"/>
<path d="M4.45002 18.9196C8.0996 17.4169 12.1786 17.288 15.914 18.6191C19.3489 19.8213 22.9985 20.036 26.4334 19.2631C26.3905 17.331 26.6481 15.4418 27.3351 13.5526C22.8267 14.8836 17.9749 14.7548 13.4666 13.1662C10.8905 12.2216 8.05667 12.2216 5.48049 13.0803C5.52343 14.9266 5.17995 16.8157 4.5359 18.662C4.5359 18.662 4.49296 18.7908 4.45002 18.9196Z" fill="#3B82F6"/>
</svg>
