<svg width="64" height="64" viewBox="0 0 64 64" fill="none" xmlns="http://www.w3.org/2000/svg">
<rect width="64" height="64" rx="12" fill="#EF5944"/>
<path d="M30.2826 24.4325C35.7569 26.3646 41.6607 26.2573 47.0814 24.1641C47.135 21.9636 46.5447 19.7632 45.5249 17.7774L44.9882 16.7039C44.8272 16.7576 44.6125 16.865 44.5052 16.9723C39.5675 19.3338 33.9858 19.6558 28.7798 17.7774C25.1302 16.4893 21.1586 16.8113 17.7237 18.5287L16.6503 19.0654C16.704 19.2265 16.8113 19.4411 16.9186 19.5485C17.5627 20.9439 18.0994 22.4467 18.4751 24.0031C22.232 22.9297 26.4183 23.037 30.2826 24.4325Z" fill="white"/>
<path d="M16.9187 40.5872L18.0994 39.9432C20.4919 38.747 23.1312 38.1679 25.75 38.2443C27.361 38.2912 28.9641 38.5862 30.4973 39.1381C30.9967 39.3153 31.4977 39.478 32 39.6263V45.3471C29.922 44.9608 27.8184 44.9056 25.75 45.1719C23.6044 45.4481 21.4967 46.0703 19.4948 47.0277C19.3875 47.135 19.1728 47.2424 19.0118 47.296L18.4751 46.2226C17.5627 44.4515 17.026 42.5194 16.9187 40.5872Z" fill="white"/>
<path d="M17.5625 35.6496C22.1245 33.7711 27.2232 33.6101 31.8925 35.2739C36.1861 36.7766 40.7481 37.045 45.0417 36.0789C44.9881 33.6638 45.3101 31.3023 46.1688 28.9408C40.5334 30.6045 34.4687 30.4435 28.8333 28.4577C25.6131 27.277 22.0708 27.277 18.8506 28.3504C18.9043 30.6582 18.4749 33.0197 17.6699 35.3275C17.6699 35.3275 17.6162 35.4886 17.5625 35.6496Z" fill="white"/>
</svg>
